<?xml version="1.0" encoding="utf-8"?>
<!-- Generator: Adobe Illustrator 19.1.0, SVG Export Plug-In . SVG Version: 6.00 Build 0)  -->
<svg version="1.1" id="Layer_1" xmlns="http://www.w3.org/2000/svg" xmlns:xlink="http://www.w3.org/1999/xlink" x="0px" y="0px"
	 viewBox="-551.3 226 310 110" style="enable-background:new -551.3 226 310 110;" xml:space="preserve">
<metadata><?xpacket begin="﻿" id="W5M0MpCehiHzreSzNTczkc9d"?>
<x:xmpmeta xmlns:x="adobe:ns:meta/" x:xmptk="Adobe XMP Core 5.6-c067 79.157747, 2015/03/30-23:40:42        ">
   <rdf:RDF xmlns:rdf="http://www.w3.org/1999/02/22-rdf-syntax-ns#">
      <rdf:Description rdf:about=""/>
   </rdf:RDF>
</x:xmpmeta>
                                                                                                    
                                                                                                    
                                                                                                    
                                                                                                    
                                                                                                    
                                                                                                    
                                                                                                    
                                                                                                    
                                                                                                    
                                                                                                    
                                                                                                    
                                                                                                    
                                                                                                    
                                                                                                    
                                                                                                    
                                                                                                    
                                                                                                    
                                                                                                    
                                                                                                    
                                                                                                    
                           
<?xpacket end="w"?></metadata>
<style type="text/css">
	.st0{fill:#1D4381;}
	.st1{fill:#F15C22;}
</style>
<g>
	<path class="st0" d="M-529.3,239.5h8.3c0.2,0,0.2,1.1,0,1.1c-4.7,0-5.1,0.1-5.3,0.2c-0.2,0.2-0.3,1.8-0.4,9.8
		c0,4.7-0.1,7.2-0.1,16.1c0,5.3,0.1,6.5,0.2,6.6c0.2,0.2,1.2,0.4,5.1,0.4c5,0,6.6-0.4,7.7-1.5c1.1-1.1,2.2-3.7,4-11.1
		c0.1-0.2,1-0.2,1,0c-0.1,4-0.2,10.1-0.5,13.4c0,0.3-0.1,0.5-0.7,0.5c-4.5-0.2-8.7-0.1-14.7-0.1c-6.5,0-10.2,0-13.7,0.1
		c-0.2,0-0.1-1.1,0.1-1.1c4.5-0.1,5-0.1,5.2-0.2c0.2-0.2,0.2-1,0.2-4.6c0.1-7,0.2-14.3,0.2-20.7c0-5.3-0.1-7.1-0.3-7.4
		c-0.2-0.2-1-0.3-5-0.4c-0.2,0-0.1-1.1,0.1-1.1C-535.1,239.4-531.4,239.5-529.3,239.5z"/>
	<path class="st0" d="M-505.9,274.7c-0.2,0-0.2-1,0-1c3.3-0.1,4.2-0.1,4.4-0.3s0.3-0.9,0.4-2.4c0.1-1.9,0.1-3.3,0.1-5.1
		c0-2.2-0.1-7.9-0.2-10.7c0-1.1-0.1-1.6-0.4-1.8s-0.7-0.2-4.4-0.3c-0.2,0-0.2-1,0-1c3-0.1,8.2-0.2,9.4-0.2c0.4,0,0.6,0.1,0.6,0.5
		c-0.1,3.3,0,10,0,14c0,5.4,0.2,6.8,0.5,7.1c0.2,0.2,1,0.3,4.1,0.3c0.3,0,0.3,1.1,0,1.1C-492.8,274.7-505,274.7-505.9,274.7z
		 M-498.9,245.1c-1.8,0-3.2-1.6-3.2-3.3c0-1,0.4-1.7,1-2.3c0.7-0.7,1.5-1.1,2.7-1.1c1.6,0,3.1,1.4,3.1,3.1
		C-495.3,243.3-497.2,245.1-498.9,245.1z"/>
	<path class="st0" d="M-483.8,272.3c-0.3,0-1.2,0.8-3.6,3.2c-0.2,0.2-0.9,0.1-0.9-0.2c0.1-3,0.2-8.9,0.2-16.3
		c0-4.4-0.1-10.1-0.2-15.9c-0.1-2.8-0.1-3.7-0.3-3.9s-0.6-0.2-3.8-0.2c-0.2,0-0.2-1,0-1c3.1-0.1,7.5-0.2,9.2-0.3
		c0.4,0,0.5,0.2,0.5,0.6c0,1.3-0.2,17.2-0.2,18.7l0.1,0.1c1.6-3.3,4.2-6,7.7-6c2.7,0,5.1,1.4,7,3.2c1.9,2,3.1,4.7,3.1,8
		c0,4-1.8,7.3-4.2,9.6c-2.2,2.1-4.6,3.4-7.5,3.4C-480.7,275.3-483.2,272.3-483.8,272.3z M-481.8,257.5c-0.7,1.5-1,2.7-1,5.2
		c0,6.2,0.2,7.8,0.6,8.6c0.5,1.1,3.1,2.7,5.3,2.7c2,0,3.6-1,4.6-3.1c0.9-1.7,1.4-4.3,1.4-8c0-3.9-0.5-6.6-1.3-8
		c-0.8-1.5-1.7-2.3-3.6-2.3C-478.4,252.5-480.7,255.1-481.8,257.5z"/>
	<path class="st0" d="M-438.6,268.2c-1.8,5-6.1,7.3-10,7.3s-7.4-1.5-9.7-4c-2.1-2.1-3.4-4.7-3.4-8.4c0-3.1,1.5-6.2,3.4-8.2
		c2.4-2.4,5.3-4,8.8-4c3.5,0,6.3,1.5,8.1,3.4c1.6,1.6,3,4.5,3.1,8c0,0.3-0.1,0.4-0.4,0.5c-9.4-0.1-14,0.1-17,0.2
		c0,3.7,0.5,6,1.3,7.6c1.2,2.2,3,3.5,6.3,3.5c3.7,0,6.6-2.1,8.3-6.3C-439.4,267.5-438.6,267.9-438.6,268.2z M-454.2,254.7
		c-1,1.8-1.3,4.2-1.4,7.1l11.8-0.1c-0.4-6.8-2.1-9.5-6-9.5C-452,252-453.6,253.3-454.2,254.7z"/>
	<path class="st0" d="M-432.9,273.4c0.2-0.2,0.3-2.1,0.4-3.6c0-2.1,0-7.6-0.1-10.2c0-4.4-0.3-6.1-0.5-6.3s-0.7-0.2-3.9-0.3
		c-0.2,0-0.2-1.1,0.1-1.1c2.3,0,7.4-0.2,8.6-0.2c0.8,0,1,0.1,1,0.9c-0.1,1.5-0.1,4.5-0.1,6.6h0.1c1.8-4.4,4-7.9,7.4-7.9
		c3,0,4.9,1.8,4.9,4.2c0,2.4-1.7,3.8-3.4,3.8s-2.9-1.1-2.9-2.7c0-1.9,1.5-2.7,1.5-3.2c0-0.2-0.3-0.5-1-0.5c-1.8,0-3.7,2.3-5,5.2
		c-1.1,2.2-1.5,3.8-1.5,5.7v5.3c0.1,2.7,0.2,4.1,0.4,4.3c0.1,0.2,1.1,0.2,4.5,0.3c0.3,0,0.3,1.1,0.1,1.1h-14.9c-0.2,0-0.2-1.1,0-1.1
		C-433.4,273.6-433.1,273.5-432.9,273.4z"/>
	<path class="st0" d="M-407.5,254c0,0.7,2.2,0.8,2.2,3.1c0,1.6-1.3,2.8-3,2.8c-1.6,0-3-1.3-3-3c0-1.2,0.5-2.1,1.4-3
		c1.5-1.5,3.9-2.8,7.4-2.8c3.6,0,5.8,1.1,7.4,2.6c1.5,1.5,2,3.3,2,6c0,2.9-0.2,7.9-0.2,11.9c0,1.4,0.4,1.9,1.4,1.9
		c1.3,0,2.4-1.3,3-4.2c0.1-0.2,0.9-0.1,0.9,0.2c-0.5,3.3-2.3,5.7-5.4,5.7c-2.9,0-4.7-1.5-5.3-3.9c-1.9,2.2-4.4,3.8-7.3,3.9
		c-3.4,0.1-7-2.3-7-5.8c0-1.5,0.5-2.8,1.7-4c1.9-1.9,5.3-3.4,12.8-4c0.1-0.8,0-2.4,0-4.1c0-2.2-0.3-3.3-1.1-4.1
		c-0.7-0.7-1.8-1.1-3.6-1.1C-405.8,252.2-407.5,253.6-407.5,254z M-407.7,269.1c0,2.8,1,4.5,3,4.5c2.3,0,5-2.2,5.6-3.4
		c0.2-0.4,0.3-0.8,0.4-2.5c0.1-1.6,0.1-2.3,0.1-5C-406.3,263.2-407.7,264.4-407.7,269.1z"/>
	<path class="st0" d="M-377.8,237.8c0.5,0,0.6,0.2,0.6,0.7c-0.1,6-0.1,11-0.1,17.3c0,5.8-0.1,10.6-0.1,15.3c0,1.5,0.2,2,0.5,2.3
		c0.2,0.2,0.5,0.3,4,0.4c0.2,0,0.2,1.1,0,1.1c-5.1-0.2-8.3-0.2-13.7-0.2c-0.2,0-0.1-1.1,0.1-1.1c3.1,0,3.6-0.1,3.8-0.2
		c0.2-0.2,0.2-0.5,0.2-1.4c0.1-2.8,0.2-8.2,0.2-11.8c0-7.9,0-13.2-0.1-19.4c0-1.1,0-1.4-0.2-1.5s-0.5-0.2-3.9-0.4
		c-0.2-0.1-0.2-1,0.1-1C-383.4,237.8-381.3,237.8-377.8,237.8z"/>
	<path class="st0" d="M-355.5,272.6c0.7-0.7,1.4-1.8,2.3-3.8c4.8-10.4,9.7-21.1,13.2-30.4c0.1-0.1,0.4-0.2,1.1-0.2
		c1,0,1.2,0.1,1.3,0.4c1.5,4.7,4,12,10.6,30.1c1,2.8,1.5,3.7,2.1,4.5c0.5,0.5,1.1,0.6,4.5,0.8c0.2,0,0.2,1,0,1
		c-3.3-0.1-5.6-0.2-7.9-0.2c-2.7,0-4.3-0.1-7.6,0.1c-0.1,0-0.2-1,0-1c2.8-0.2,3.5-0.3,3.8-0.7c0.3-0.2,0.4-0.7,0-1.9
		c-0.5-1.5-1.6-4.7-2.6-7.4c-1-0.1-4.2-0.1-8.7-0.1c-2.2,0-3.7,0-5.3,0.1c-0.2,0-0.5,0-0.6,0.3c-1,2-1.5,3.4-2.3,5.6
		c-0.4,1-0.6,1.9-0.6,2.5c0,1.3,0.5,1.5,4.5,1.6c0.1,0,0.1,1-0.1,1c-3.1-0.1-8.2-0.1-11.8,0c-0.1,0-0.1-1,0-1
		C-356.8,273.6-356.2,273.4-355.5,272.6z M-341.4,245.5c-2.6,6.2-5.2,12-7.3,16.7c3.6,0.2,9.9,0.3,13.4,0.3
		C-337,257.6-339.6,250.2-341.4,245.5C-341.3,245.5-341.4,245.5-341.4,245.5z"/>
	<path class="st0" d="M-314.2,273.4c0.2-0.2,0.3-2.1,0.4-3.6c0-2.1,0-7.6-0.1-10.2c0-4.4-0.3-6.1-0.5-6.3s-0.7-0.2-3.9-0.3
		c-0.2,0-0.2-1.1,0.1-1.1c2.3,0,7.4-0.2,8.6-0.2c0.8,0,1,0.1,1,0.9c-0.1,1.5-0.1,4.5-0.1,6.6h0.1c1.8-4.4,4-7.9,7.4-7.9
		c3,0,4.9,1.8,4.9,4.2c0,2.4-1.7,3.8-3.4,3.8c-1.6,0-2.9-1.1-2.9-2.7c0-1.9,1.5-2.7,1.5-3.2c0-0.2-0.3-0.5-1-0.5
		c-1.8,0-3.7,2.3-5,5.2c-1.1,2.2-1.5,3.8-1.5,5.7v5.3c0.1,2.7,0.2,4.1,0.4,4.3c0.1,0.2,1.1,0.2,4.5,0.3c0.3,0,0.3,1.1,0.1,1.1h-14.9
		c-0.2,0-0.2-1.1,0-1.1C-314.8,273.6-314.4,273.5-314.2,273.4z"/>
	<path class="st0" d="M-283.4,275.2c-2.4,0-4.2-0.8-5.4-2c-1.1-1.1-1.5-2.3-1.5-4.8c0-3.8,0.1-10.4,0.2-15c-0.4-0.1-3.5-0.1-4.2-0.1
		c-0.3,0-0.2-1.1-0.1-1.1c3.5-0.2,4.5-0.5,5.3-1.3c1.2-1.1,2.7-4.4,3.3-7.2c0.1-0.3,1-0.3,1,0c-0.2,1.9-0.2,6.5-0.2,8.3
		c2.3,0.1,6.2,0.1,7.1,0.1c0.4,0,0.2,1.3-0.1,1.3c-4.5,0-6.4,0.1-7.1,0.1c-0.1,2.1-0.2,8.6-0.2,13.3c0,4,0.1,4.6,0.5,5.4
		c0.4,0.8,1.4,1.5,2.7,1.5c1.8,0,3.5-1.9,4.5-5.7c0.1-0.2,1.1-0.1,1,0.2C-277.7,272.6-280,275.2-283.4,275.2z"/>
	<path class="st0" d="M-256.2,272.5c-1.8,1.7-4.6,2.6-7.2,2.6c-4.6,0-6.9-1.6-7.4-1.6c-0.3,0-0.7,0.7-1.3,1.9c-0.1,0.2-1,0.2-1-0.1
		c-0.1-2.7-0.4-6-0.6-8.5c0-0.2,1-0.4,1-0.1c0.7,2.1,1.5,4.1,2.7,5.1c1.4,1.4,3.9,2.1,6.4,2.1c2.1,0,3.6-0.5,4.5-1.3
		c0.5-0.6,1-1.5,1-2.8c0-1.9-1.5-3-6.6-4.3c-3.9-1.1-5.7-1.8-6.9-3c-1-1-1.5-2.2-1.5-3.7c0-4.4,4-7.5,8.5-7.5c3.6,0,6,1.8,6.6,1.8
		c0.3,0,0.5-0.5,1.3-2.4c0.1-0.2,0.9-0.1,1,0.1c-0.2,2.6-0.2,5.1-0.1,7.7c0,0.4-0.9,0.4-1.1,0.1c-0.8-1.9-1.5-3.3-2.4-4.2
		c-1.3-1.3-2.8-2.1-5.4-2.1c-1.6,0-3,0.5-3.8,1.4c-0.6,0.6-1,1.5-1,2.4c0,2.2,1.6,3.1,6.8,4.4c4,1.1,5.8,1.8,7,3.1
		c1.1,1.1,1.5,2.3,1.5,3.9C-254.2,269.6-255.1,271.2-256.2,272.5z"/>
	<path class="st1" d="M-521.1,306.8c0.5-1.1,1.2-2.2,1.3-2.2c0.3,0,2.2,0.3,2.3,0.4s0.2,0.8,0.2,1c-0.6,1.3-3.3,7.7-4.7,11.7
		c-0.4,1.1-0.7,2.4-0.7,3.2s0.5,1.4,1.2,1.4c1.2,0,2.4-0.7,5.2-4.2c0.1-0.1,0.7,0.3,0.7,0.4c-2.6,3.5-4.4,4.9-6.6,4.9
		c-1.5,0-3.3-1.2-3.3-2.9c0-0.8,0.1-1.5,0.3-2.4c-2.1,2.9-5.1,5.4-7.4,5.4c-2.3,0-5-2.5-5-6c0-2.4,1-4.9,3.8-7.8c3.1-3,6.8-5,9.5-5
		C-523,304.6-521.7,305.5-521.1,306.8z M-533.5,314.2c-1.3,2.6-1.6,4.4-1.6,5.6c0,1.6,1.2,2.6,2.6,2.6c2.4,0,6.1-3.4,7.9-7.1
		c1.8-3.6,2.9-6.7,2.9-7.4c0-1.2-1.2-2.5-2.9-2.5C-528.4,305.4-531.2,309.5-533.5,314.2z"/>
	<path class="st1" d="M-505.1,305.2c0.1,0,0.2,0.1,0.2,0.2c-0.3,1-1.9,5.5-2.4,6.7c0,0.1,0.1,0.3,0.2,0.2c4-5.2,6.2-7.7,8.7-7.7
		c1.4,0,2.3,0.5,3.1,1.3c0.8,0.8,1.2,1.6,1.2,2.6c0,1.6-0.6,2.7-2.3,6.3c-1.6,3.5-2.2,4.8-2.2,5.8c0,0.9,0.6,1.5,1.4,1.5
		c1.4,0,3.1-1.4,5.1-3.7c0.1-0.1,0.8,0.4,0.7,0.5c-1.5,1.8-4.5,4.6-6.7,4.6c-1.1,0-1.7-0.3-2.4-1.1c-0.7-0.7-1-1.5-1-2.5
		c0-1,0.5-2.5,2.2-6c1.7-3.6,2.2-4.7,2.2-5.9s-0.8-1.9-1.8-1.9c-1.2,0-1.9,0.5-3.8,2.3c-3.2,3.2-5.9,7.3-6.7,9.2
		c-0.7,1.7-1.6,3.8-2.3,5.4c0,0.2-2.9,0-3.2,0c-0.1,0-0.1-0.1,0-0.2c0.6-1.4,3.9-8.7,4.5-10.4c1.7-4.4,2-6,1.9-6.1s-4.3,0-4.8-0.1
		c-0.1,0,0-0.9,0.1-0.9C-510.7,305.3-505.3,305.2-505.1,305.2z"/>
	<path class="st1" d="M-472.3,307.6C-472.3,307.6-472.2,307.7-472.3,307.6c1.9-4.5,3.2-7.5,4.8-11.9c0.2-0.7,0.1-1,0-1.1
		s-3.2-0.2-5.1-0.2c-0.1,0-0.1-0.9,0-0.9c2.5,0,6.1,0.1,9.2,0c0.1,0,0.3,0.1,0.2,0.3c-4,9.3-6,14.2-10.3,23.9
		c-0.6,1.3-0.8,2.1-0.8,2.9c0,0.8,0.4,1.4,1.2,1.4c1.2,0,2.2-0.6,3.8-2.2c0.7-0.7,1.2-1.2,1.7-1.9c0.1-0.1,0.7,0.4,0.6,0.5
		c-2.4,3.1-4.6,4.9-6.6,4.9c-2,0-3.6-1.4-3.6-3.1c0-0.5,0-0.7,0.1-1.3c-2.3,2.9-4.6,4.5-7.3,4.5c-1.5,0-3.2-0.9-4.3-1.8
		c-1-1-1.7-2.3-1.7-4.3c0-3,1.5-6,4-8.4c2.3-2.3,5.8-4.5,9.6-4.5C-474.6,304.5-472.9,305.9-472.3,307.6z M-485.1,313
		c-1.1,2-1.7,4.2-1.7,6.2c0,2.2,0.9,3.6,2.9,3.6c1.5,0,3-0.6,5-2.6c1.6-1.6,2.6-3,3.9-6c1.1-2.5,2-4.6,2.1-5.1c-0.4-2-1.7-3.6-4-3.6
		C-480.2,305.3-483.2,309-485.1,313z"/>
	<path class="st0" d="M-426.3,287.3c0.1-0.2,0.9-0.1,0.9,0.1c-0.3,3.7-0.4,6.9-0.1,11.4c0,0.2-0.8,0.3-1,0.1
		c-1.5-4.1-2.9-6.4-4.4-7.8c-1.5-1.5-3.6-2.5-6.6-2.5c-3.1,0-5,0.9-6.3,2.2c-1.2,1.2-1.8,2.8-1.8,4.6c0,3.9,2.5,5,9.2,6.8
		c6,1.6,8.9,3.1,10.6,4.8c1.5,1.5,2.2,3.3,2.2,6c0,6.2-5.4,10.6-12.3,10.6c-6.3,0-9.4-3.1-10.6-3.1c-0.8,0-1.6,1.1-2.5,2.6
		c-0.1,0.2-0.9,0.1-0.9-0.1c0.1-4.1,0.1-7.4-0.4-12.7c0-0.2,0.8-0.4,0.9-0.1c2.2,5.1,3.7,7.5,5.3,9.2c1.8,1.8,4.7,3,8.1,3
		c2.9,0,5-0.8,6.3-2s1.8-2.6,1.8-4.6c0-3.7-2.3-5.5-9.2-7.3c-6-1.5-8.8-2.8-10.5-4.5c-1.5-1.5-2.2-3.2-2.2-5.9
		c0-5.6,5.1-10.6,12.4-10.6c6,0,8.6,2.5,9.2,2.5C-427.7,290-427,288.7-426.3,287.3z"/>
	<path class="st0" d="M-416.1,320.1c-1.9-1.9-3.4-4.5-3.4-8.1c0-3.1,1.3-6.1,3.6-8.5c2.2-2.2,5.2-4,9.2-4c5.2,0,9.3,3.1,9.3,6.3
		c0,2.2-1.5,3.6-3.3,3.6c-1.6,0-3-1.3-3-2.7c0-0.9,0.2-1.5,0.7-2c1-1,2.2-0.8,2.4-1.1c0.5-0.5-1.8-2.8-5.9-2.8
		c-3.1,0-4.7,1.5-5.6,3.3c-1,1.9-1.4,4.2-1.4,7.4c0,4,0.3,6.2,1.2,7.7c1,1.8,2.4,3.3,5.6,3.3c3.4,0,6.6-2.3,8.1-6.9
		c0.1-0.5,1.3,0.1,1.1,0.5c-1.6,4.8-5.2,7.8-10.1,7.8C-410.8,323.7-413.8,322.4-416.1,320.1z"/>
	<path class="st0" d="M-395.5,323.1c-0.2,0-0.2-1,0-1c3.3-0.1,4.2-0.1,4.4-0.3c0.2-0.2,0.3-0.9,0.4-2.4c0.1-1.9,0.1-3.3,0.1-5.1
		c0-2.2-0.1-7.9-0.2-10.7c0-1.1-0.1-1.6-0.4-1.8c-0.3-0.2-0.7-0.2-4.4-0.3c-0.2,0-0.2-1,0-1c3-0.1,8.2-0.2,9.4-0.2
		c0.4,0,0.6,0.1,0.6,0.5c-0.1,3.3,0,10,0,14c0,5.4,0.2,6.8,0.5,7.1c0.2,0.2,1,0.3,4.1,0.3c0.3,0,0.3,1.1,0,1.1
		C-382.4,323.1-394.7,323.1-395.5,323.1z M-388.5,293.4c-1.8,0-3.2-1.6-3.2-3.3c0-1,0.4-1.7,1-2.3c0.7-0.7,1.5-1.1,2.7-1.1
		c1.6,0,3.1,1.4,3.1,3.1C-384.9,291.7-386.7,293.4-388.5,293.4z"/>
	<path class="st0" d="M-357.5,316.6c-1.8,5-6.1,7.3-10,7.3s-7.4-1.5-9.7-4c-2.1-2.1-3.4-4.7-3.4-8.4c0-3.1,1.5-6.2,3.4-8.2
		c2.4-2.4,5.3-4,8.8-4s6.3,1.5,8.1,3.4c1.6,1.6,3,4.5,3.1,8c0,0.3-0.1,0.4-0.4,0.5c-9.4-0.1-14,0.1-17,0.2c0,3.7,0.5,6,1.3,7.6
		c1.2,2.2,3,3.5,6.3,3.5c3.7,0,6.6-2.1,8.3-6.3C-358.4,315.9-357.4,316.3-357.5,316.6z M-373.1,303c-1,1.8-1.3,4.2-1.4,7.1l11.8-0.1
		c-0.4-6.8-2.1-9.5-6-9.5C-371,300.4-372.5,301.7-373.1,303z"/>
	<path class="st0" d="M-355.7,322.1c3-0.1,3.6-0.1,3.9-0.2c0.2-0.2,0.4-1.1,0.4-4.5v-11.5c0-2.5-0.2-3.9-0.5-4.2
		c-0.2-0.2-0.8-0.3-3.8-0.4c-0.2,0-0.2-1,0.1-1c2.6,0,6.9-0.1,9.2-0.1c0.4,0,0.4,0.2,0.4,0.6c-0.1,1.5-0.2,4.3-0.2,5.7l0.2,0.1
		c2-4,4.5-7.4,8.6-7.4c4.5,0,7.2,2.9,7.2,8.4c0,2.2-0.1,5-0.1,7.8c0,4.9,0.2,6,0.5,6.3c0.2,0.2,0.7,0.2,3.5,0.4c0.2,0,0.2,1-0.1,1
		c-4.6-0.1-8.5-0.1-12.1-0.1c-0.3,0-0.2-1-0.1-1c1.7-0.1,2.4-0.2,2.7-0.4c0.2-0.2,0.2-1,0.2-2.4c0-1.8-0.1-11.6-0.1-12.9
		c0-3.1-1-4.8-3.3-4.8c-2.8,0-5.2,3.1-6.5,5.6c-0.7,1.3-0.8,1.9-0.8,4c0,1.7,0.1,5.4,0.1,7.5c0.1,2,0.1,2.7,0.3,2.9s0.6,0.3,3.5,0.4
		c0.2,0,0.2,1-0.1,1c-3.7-0.1-9.5-0.1-13.1,0C-356,323.1-355.9,322.1-355.7,322.1z"/>
	<path class="st0" d="M-322.4,320.1c-1.9-1.9-3.4-4.5-3.4-8.1c0-3.1,1.3-6.1,3.6-8.5c2.2-2.2,5.2-4,9.2-4c5.2,0,9.3,3.1,9.3,6.3
		c0,2.2-1.5,3.6-3.3,3.6c-1.6,0-3-1.3-3-2.7c0-0.9,0.2-1.5,0.7-2c1-1,2.2-0.8,2.4-1.1c0.5-0.5-1.8-2.8-5.9-2.8
		c-3.1,0-4.7,1.5-5.6,3.3c-1,1.9-1.4,4.2-1.4,7.4c0,4,0.3,6.2,1.2,7.7c1,1.8,2.4,3.3,5.6,3.3c3.4,0,6.6-2.3,8.1-6.9
		c0.1-0.5,1.3,0.1,1.1,0.5c-1.6,4.8-5.2,7.8-10.1,7.8C-317.1,323.7-320.2,322.4-322.4,320.1z"/>
	<path class="st0" d="M-277.7,316.6c-1.8,5-6.1,7.3-10,7.3s-7.4-1.5-9.7-4c-2.1-2.1-3.4-4.7-3.4-8.4c0-3.1,1.5-6.2,3.4-8.2
		c2.4-2.4,5.3-4,8.8-4s6.3,1.5,8.1,3.4c1.6,1.6,3,4.5,3.1,8c0,0.3-0.1,0.4-0.4,0.5c-9.4-0.1-14,0.1-17,0.2c0,3.7,0.5,6,1.3,7.6
		c1.2,2.2,3,3.5,6.3,3.5c3.7,0,6.6-2.1,8.3-6.3C-278.6,315.9-277.6,316.3-277.7,316.6z M-293.3,303c-1,1.8-1.3,4.2-1.4,7.1l11.8-0.1
		c-0.4-6.8-2.1-9.5-6-9.5C-291,300.4-292.6,301.7-293.3,303z"/>
	<path class="st0" d="M-256.3,320.8c-1.8,1.7-4.6,2.6-7.2,2.6c-4.6,0-6.9-1.6-7.4-1.6c-0.3,0-0.7,0.7-1.3,1.9c-0.1,0.2-1,0.2-1-0.1
		c-0.1-2.7-0.4-6-0.6-8.5c0-0.2,1-0.4,1-0.1c0.7,2.1,1.5,4.1,2.7,5.1c1.4,1.4,3.9,2.1,6.4,2.1c2.1,0,3.6-0.5,4.5-1.3
		c0.5-0.6,1-1.5,1-2.8c0-1.9-1.5-3-6.6-4.3c-3.9-1.1-5.7-1.8-6.9-3c-1-1-1.5-2.2-1.5-3.7c0-4.4,4-7.5,8.5-7.5c3.6,0,6,1.8,6.6,1.8
		c0.3,0,0.5-0.5,1.3-2.4c0.1-0.2,0.9-0.1,1,0.1c-0.2,2.6-0.2,5.1-0.1,7.7c0,0.4-0.9,0.4-1.1,0.1c-0.8-1.9-1.5-3.3-2.4-4.2
		c-1.3-1.3-2.8-2.1-5.4-2.1c-1.6,0-3,0.5-3.8,1.4c-0.6,0.6-1,1.5-1,2.4c0,2.2,1.6,3.1,6.8,4.4c4,1.1,5.8,1.8,7,3.1
		c1.1,1.1,1.5,2.3,1.5,3.9C-254.2,318-255.1,319.6-256.3,320.8z"/>
</g>
</svg>
