<?xml version="1.0" standalone="no"?>
<!DOCTYPE svg PUBLIC "-//W3C//DTD SVG 1.1//EN" "http://www.w3.org/Graphics/SVG/1.1/DTD/svg11.dtd" >
<svg xmlns="http://www.w3.org/2000/svg">
<metadata></metadata>
<defs>
<font id="gentonaheavy" horiz-adv-x="610" >
<font-face units-per-em="2048" ascent="1638" descent="-410" />
<missing-glyph horiz-adv-x="368" />
<glyph unicode="&#xfb01;" horiz-adv-x="1384" d="M10 659v345h133v12q0 210 106 304.5t333 94.5q86 0 229 -33l-33 -278h-114q-59 0 -83 -23t-24 -67v-10h735v-1004h-413v659h-322v-659h-414v659h-133zM860 1296q0 100 68.5 155.5t165.5 55.5t165 -55.5t68 -155.5t-68 -155.5t-165 -55.5t-165.5 55.5t-68.5 155.5z" />
<glyph unicode="&#xfb02;" horiz-adv-x="1363" d="M10 659v345h133v16q0 207 107 301t332 94q105 0 297 -49v27h413v-1393h-413v1104h-215q-107 0 -107 -88v-12h223v-345h-223v-659h-414v659h-133z" />
<glyph horiz-adv-x="2048" />
<glyph horiz-adv-x="2048" />
<glyph unicode="&#xd;" horiz-adv-x="2048" />
<glyph unicode=" "  horiz-adv-x="368" />
<glyph unicode="&#x09;" horiz-adv-x="368" />
<glyph unicode="&#xa0;" horiz-adv-x="368" />
<glyph unicode="!" horiz-adv-x="593" d="M72 1249h450l-61 -778h-328zM104 174q0 81 54 137t139 56t138.5 -56t53.5 -137t-53.5 -136.5t-138.5 -55.5t-139 55.5t-54 136.5z" />
<glyph unicode="&#x22;" horiz-adv-x="972" d="M150 786v525h374l-92 -525h-282zM537 786v525h374l-92 -525h-282z" />
<glyph unicode="#" horiz-adv-x="1474" d="M61 174l58 307h182l29 164h-183l58 307h178l31 174h327l-30 -174h184l31 174h327l-30 -174h190l-57 -307h-187l-28 -164h186l-57 -307h-183l-30 -174h-328l31 174h-185l-30 -174h-328l31 174h-187zM629 481h184l29 164h-185z" />
<glyph unicode="$" horiz-adv-x="1138" d="M41 129l129 301q285 -133 424 -133q78 0 78 39q0 19 -31.5 32.5t-133.5 43.5q-19 6 -29.5 9t-29 8.5t-34.5 10.5q-181 54 -253.5 144t-72.5 225q0 137 89.5 227.5t252.5 110.5v110h268v-118q161 -20 353 -88l-93 -291q-295 88 -401 88q-32 0 -47.5 -11t-15.5 -28 q0 -22 27 -33.5t128 -38.5l32 -8t33 -9t40 -11q169 -46 246 -131t77 -230q0 -148 -98.5 -243t-280.5 -115v-111h-268v119q-200 36 -389 131z" />
<glyph unicode="%" horiz-adv-x="1839" d="M51 874q0 201 89.5 298.5t273.5 97.5t273 -97.5t89 -298.5q0 -198 -89 -293.5t-273 -95.5q-185 0 -274 95.5t-89 293.5zM322 874q0 -81 17.5 -114t74.5 -33t74.5 33t17.5 114q0 86 -17.5 120t-74.5 34t-74.5 -34t-17.5 -120zM463 0l688 1249h229l-688 -1249h-229z M1063 371q0 201 89 298t273 97q185 0 274 -97t89 -298q0 -198 -89 -293.5t-274 -95.5q-184 0 -273 95.5t-89 293.5zM1333 371q0 -81 17.5 -114.5t74.5 -33.5t75 33.5t18 114.5q0 85 -18 119t-75 34t-74.5 -34t-17.5 -119z" />
<glyph unicode="&#x26;" horiz-adv-x="1402" d="M61 369q0 97 53.5 169t180.5 140q-59 62 -79.5 124.5t-20.5 133.5q0 160 119.5 247t340.5 87q177 0 284.5 -86.5t107.5 -227.5q0 -92 -55 -166.5t-169 -115.5l138 -92q59 92 77 118l271 -168q-66 -112 -82 -137l155 -106l-190 -287l-168 125q-82 -81 -170.5 -113 t-212.5 -32q-580 0 -580 387zM473 422q0 -61 51 -91t117 -30q63 0 113 27l-246 182q-35 -51 -35 -88zM567 922q0 -50 56 -103q110 47 110 109q0 76 -78 76q-35 0 -61.5 -22t-26.5 -60z" />
<glyph unicode="'" horiz-adv-x="585" d="M150 786v525h374l-92 -525h-282z" />
<glyph unicode="(" horiz-adv-x="737" d="M102 492q0 242 87.5 461.5t248.5 402.5l258 -137q-219 -388 -219 -727q0 -340 219 -728l-258 -137q-161 183 -248.5 403t-87.5 462z" />
<glyph unicode=")" horiz-adv-x="716" d="M20 -236q220 390 220 728q0 337 -220 727l259 137q161 -183 248 -402.5t87 -461.5t-87.5 -462t-247.5 -403z" />
<glyph unicode="*" horiz-adv-x="958" d="M61 889l62 188l223 -49l23 221h217l22 -223l228 51l61 -188l-211 -98l131 -203l-151 -129l-187 184l-190 -184l-152 129l131 205z" />
<glyph unicode="+" horiz-adv-x="1071" d="M102 354v297h285v285h297v-285h285v-297h-285v-282h-297v282h-285z" />
<glyph unicode="," d="M72 -166q62 43 97 77t60 81q-72 23 -114.5 83.5t-42.5 139.5q0 100 65 167t168 67t168.5 -73t65.5 -183q0 -124 -103.5 -258.5t-269.5 -221.5z" />
<glyph unicode="-" horiz-adv-x="856" d="M106 375v368h644v-368h-644z" />
<glyph unicode="." d="M72 215q0 100 65 167t168 67t168.5 -67t65.5 -167t-65.5 -166.5t-168.5 -66.5t-168 66.5t-65 166.5z" />
<glyph unicode="/" horiz-adv-x="978" d="M0 -430l553 1761h354l-563 -1761h-344z" />
<glyph unicode="0" horiz-adv-x="1294" d="M51 621q0 317 147.5 483t448.5 166t448.5 -166t147.5 -483q0 -313 -147.5 -476t-448.5 -163t-448.5 163t-147.5 476zM487 621q0 -139 31.5 -196.5t128.5 -57.5t128.5 57.5t31.5 196.5q0 145 -31.5 204.5t-128.5 59.5t-128.5 -59.5t-31.5 -204.5z" />
<glyph unicode="1" horiz-adv-x="1062" d="M31 0v358h311v406q-144 -26 -229 -35l-82 289q174 70 393 231h348v-891h250v-358h-991z" />
<glyph unicode="2" horiz-adv-x="1124" d="M10 1108q206 88 329.5 125t250.5 37q212 0 341.5 -121.5t129.5 -319.5q0 -59 -21 -113.5t-55 -99.5t-91 -93.5t-115 -87.5t-140 -89q164 12 238 12h186v-358h-1012v301q43 34 107 84t100.5 78.5t87.5 68.5t80 64.5t64.5 56t54.5 52t37.5 43.5t26 40.5t7.5 32.5 q0 45 -30 68.5t-76 23.5q-72 0 -161.5 -25.5t-225.5 -78.5z" />
<glyph unicode="3" horiz-adv-x="1181" d="M20 121l115 289q245 -103 438 -103q129 0 129 82q0 80 -225 80h-168v311h168q120 0 164.5 13.5t44.5 54.5q0 90 -137 90q-130 0 -395 -74l-86 281q303 125 540 125q205 0 338 -99.5t133 -259.5q0 -98 -45 -170t-119 -106q101 -45 148 -104.5t47 -149.5 q0 -190 -138 -294.5t-378 -104.5q-315 0 -574 139z" />
<glyph unicode="4" horiz-adv-x="1296" d="M20 481l656 768h409v-727h170v-329h-170v-193h-409v193h-635zM399 522h277v299q-43 -58 -92 -110l-62 -68q-46 -52 -123 -121z" />
<glyph unicode="5" horiz-adv-x="1191" d="M20 121l115 309q242 -102 418 -102q67 0 118.5 34.5t51.5 88.5q0 44 -33 72t-90 28q-77 0 -147 -82l-344 49l41 731h927v-352h-588l-14 -152q126 76 268 76q186 0 286.5 -102.5t100.5 -288.5q0 -108 -41.5 -194.5t-113 -141t-164 -83.5t-197.5 -29q-149 0 -305.5 34 t-288.5 105z" />
<glyph unicode="6" horiz-adv-x="1212" d="M51 559q0 333 180 522t478 189q94 0 209 -25t215 -65l-101 -297q-197 43 -303 43q-114 -1 -174.5 -54.5t-79.5 -164.5q135 94 309 94t280.5 -102t106.5 -269q0 -205 -137 -326.5t-387 -121.5q-285 0 -440.5 155.5t-155.5 421.5zM475 489q13 -82 58 -126t114 -44 q57 0 91 36.5t34 95.5q0 44 -36.5 72t-94.5 28q-38 0 -85.5 -16.5t-80.5 -45.5z" />
<glyph unicode="7" horiz-adv-x="1071" d="M31 889v360h1009v-319q-123 -196 -229 -444t-172 -486h-502q211 550 443 889h-549z" />
<glyph unicode="8" horiz-adv-x="1185" d="M20 369q0 178 216 293q-79 48 -121.5 108.5t-42.5 144.5q0 174 140 264.5t402 90.5q245 0 369.5 -86t124.5 -248q0 -78 -48 -137.5t-149 -106.5q132 -64 193 -136t61 -187q0 -184 -146 -285.5t-398 -101.5q-322 0 -461.5 96.5t-139.5 290.5zM432 401q0 -49 40 -74.5 t108 -25.5q57 0 92 24t35 64q0 33 -38.5 58.5t-164.5 82.5q-32 -24 -49 -49.5t-20 -42t-3 -37.5zM485 922q0 -34 31 -57t119 -58q84 48 84 121q0 34 -34 55t-91 21q-49 0 -79 -22.5t-30 -59.5z" />
<glyph unicode="9" horiz-adv-x="1212" d="M41 821q0 205 137 327t387 122q283 0 429.5 -154.5t146.5 -423.5q0 -357 -163 -533.5t-474 -176.5q-94 0 -209 25t-215 65l100 297q197 -43 303 -43q108 1 162 50t72 154q-128 -79 -289 -79q-174 0 -280.5 101.5t-106.5 268.5zM440 801q0 -44 36.5 -72.5t94.5 -28.5 q77 0 150 48q-19 184 -156 184q-57 0 -91 -36t-34 -95z" />
<glyph unicode=":" d="M72 215q0 100 65 167t168 67t168.5 -67t65.5 -167t-65.5 -166.5t-168.5 -66.5t-168 66.5t-65 166.5zM72 791q0 100 65 166.5t168 66.5t168.5 -66.5t65.5 -166.5t-65.5 -167t-168.5 -67t-168 67t-65 167z" />
<glyph unicode=";" d="M72 -166q62 43 97 77t60 81q-72 23 -114.5 83.5t-42.5 139.5q0 100 65 167t168 67t168.5 -73t65.5 -183q0 -124 -103.5 -258.5t-269.5 -221.5zM72 791q0 100 65 166.5t168 66.5t168.5 -66.5t65.5 -166.5t-65.5 -167t-168.5 -67t-168 67t-65 167z" />
<glyph unicode="&#x3c;" horiz-adv-x="870" d="M41 539l561 450l186 -227l-219 -176l-71 -49l73 -50l217 -178l-184 -221z" />
<glyph unicode="=" horiz-adv-x="1050" d="M102 190v256h846v-256h-846zM102 559v256h846v-256h-846z" />
<glyph unicode="&#x3e;" horiz-adv-x="870" d="M82 309l217 178l74 50l-72 49l-219 176l186 227l561 -450l-563 -451z" />
<glyph unicode="?" horiz-adv-x="1142" d="M41 1108q206 88 329.5 125t250.5 37q209 0 340 -115t131 -285q0 -147 -109.5 -247.5t-310.5 -143.5l4 -67h-336l-61 327h61q124 0 194 11t91.5 27.5t21.5 43.5q0 45 -30 68.5t-76 23.5q-72 0 -161.5 -25.5t-225.5 -78.5zM319 174q0 81 54 137t139 56t139 -56t54 -137 t-54 -136.5t-139 -55.5t-139 55.5t-54 136.5z" />
<glyph unicode="@" horiz-adv-x="1835" d="M82 420q0 188 65.5 347.5t180.5 269.5t275 171.5t345 61.5q238 0 421.5 -97t283.5 -271.5t100 -399.5q-1 -103 -20.5 -186.5t-48.5 -136.5t-71.5 -92t-80.5 -58.5t-86 -31t-77.5 -13.5t-65.5 -2t-61 1.5t-58.5 8t-57 18.5t-48 34.5t-40.5 53.5q-82 -71 -142.5 -93.5 t-154.5 -22.5q-154 0 -233.5 110.5t-79.5 331.5q0 238 76 347.5t237 109.5q72 0 131 -26.5t123 -88.5v98h359v-545q0 -64 6 -96t15.5 -40.5t27.5 -8.5q12 0 22.5 1.5t29 9t33.5 20t32 37t29 58t20.5 86t9.5 116.5q0 280 -169 446t-462 166q-311 0 -501.5 -191.5 t-190.5 -502.5q0 -298 172 -468.5t459 -170.5q144 0 257.5 21t254.5 65l51 -137q-106 -54 -259 -86.5t-304 -32.5q-239 0 -422 100.5t-283 284.5t-100 424zM780 424q0 -93 23 -128.5t78 -35.5q76 0 114 62v188q-52 70 -118 70q-54 0 -75.5 -33t-21.5 -123z" />
<glyph unicode="A" horiz-adv-x="1470" d="M10 0l430 1249h590l430 -1249h-450l-54 172h-442l-53 -172h-451zM623 522h225l-74 240q-28 90 -39 147q-11 -57 -39 -147z" />
<glyph unicode="B" horiz-adv-x="1261" d="M82 0v1249h565q237 0 365.5 -95.5t128.5 -272.5q0 -165 -160 -242q123 -34 181.5 -105.5t58.5 -191.5q0 -164 -143.5 -253t-409.5 -89h-586zM512 328h135q69 0 98 22t29 76q0 45 -35.5 69.5t-101.5 24.5h-125v-192zM512 750h125q46 0 71 25t25 69t-24.5 63t-81.5 19h-115 v-176z" />
<glyph unicode="C" horiz-adv-x="1241" d="M51 621q0 310 174.5 479.5t483.5 169.5q242 0 481 -115l-127 -324q-132 31 -202 42.5t-132 11.5q-242 0 -242 -264q0 -126 58.5 -190t163.5 -64q90 0 168 14.5t219 58.5l135 -319q-155 -75 -280 -107t-263 -32q-294 0 -465.5 167.5t-171.5 471.5z" />
<glyph unicode="D" horiz-adv-x="1345" d="M82 0v1249h532q326 0 503 -162.5t177 -461.5t-177 -462t-503 -163h-532zM512 356h102q117 0 180.5 70t63.5 199t-63.5 198.5t-180.5 69.5h-102v-537z" />
<glyph unicode="E" horiz-adv-x="1140" d="M82 0v1249h975v-354h-551v-115h465v-309h-465v-117h567v-354h-991z" />
<glyph unicode="F" horiz-adv-x="1083" d="M82 0v1249h960v-389h-536v-162h455v-370h-455v-328h-424z" />
<glyph unicode="G" horiz-adv-x="1384" d="M51 621q0 312 165.5 480.5t471.5 168.5q130 0 282.5 -28t289.5 -85l-105 -319q-105 22 -158 31.5t-125.5 17.5t-142.5 8q-119 0 -180.5 -69.5t-61.5 -204.5q0 -129 59.5 -202t162.5 -73q97 0 233 25v78h-242v288h613v-581q-178 -96 -323 -135t-302 -39 q-294 0 -465.5 167.5t-171.5 471.5z" />
<glyph unicode="H" horiz-adv-x="1361" d="M82 0v1249h430v-430h338v430h430v-1249h-430v428h-338v-428h-430z" />
<glyph unicode="I" horiz-adv-x="593" d="M82 0v1249h430v-1249h-430z" />
<glyph unicode="J" horiz-adv-x="1001" d="M10 94l96 289q135 -37 242 -37q60 0 90.5 39.5t30.5 126.5v737h430v-737q0 -286 -102.5 -408t-345.5 -122q-208 0 -441 112z" />
<glyph unicode="K" horiz-adv-x="1361" d="M82 0v1249h430v-444l346 444h481v-28l-391 -492l404 -698v-31h-492l-207 356l-141 -159v-197h-430z" />
<glyph unicode="L" horiz-adv-x="1083" d="M82 0v1249h430v-858h520v-391h-950z" />
<glyph unicode="M" horiz-adv-x="1712" d="M82 0l53 1249h475l213 -522q18 -45 33 -104q15 59 33 104l213 522h475l53 -1249h-426l-6 512v66l-219 -578h-246l-217 578v-54l-8 -524h-426z" />
<glyph unicode="N" horiz-adv-x="1392" d="M82 0v1249h389l410 -555v555h430v-1249h-389l-410 563v-563h-430z" />
<glyph unicode="O" horiz-adv-x="1417" d="M51 621q0 310 174.5 479.5t483.5 169.5q308 0 482.5 -169.5t174.5 -479.5q0 -305 -174.5 -472t-482.5 -167q-309 0 -483.5 167t-174.5 472zM487 621q0 -126 58.5 -190t163.5 -64t163 64t58 190q0 132 -58 198t-163 66t-163.5 -66t-58.5 -198z" />
<glyph unicode="P" horiz-adv-x="1232" d="M82 0v1249h545q277 0 426 -133.5t149 -380.5q0 -235 -150 -362t-427 -127h-113v-246h-430zM512 586h113q77 0 118 38.5t41 110.5t-41.5 111t-117.5 39h-113v-299z" />
<glyph unicode="Q" horiz-adv-x="1376" d="M51 621q0 312 165.5 480.5t471.5 168.5t471.5 -168.5t165.5 -480.5q0 -307 -165.5 -473t-471.5 -166t-471.5 166t-165.5 473zM487 621q0 -129 49 -191.5t152 -62.5t152 62.5t49 191.5q0 135 -49 199.5t-152 64.5t-152 -64.5t-49 -199.5zM514 -309l61 248 q200 -28 315 -34.5t327 -6.5v-330q-314 0 -703 123z" />
<glyph unicode="R" horiz-adv-x="1263" d="M82 0v1249h555q277 0 426 -124.5t149 -354.5q0 -136 -45.5 -230t-142.5 -159l229 -350v-31h-454l-170 297h-117v-297h-430zM512 627h139q66 0 101.5 37t35.5 106q0 61 -38 94t-109 33h-129v-270z" />
<glyph unicode="S" horiz-adv-x="1224" d="M41 141l139 332q129 -67 255 -106t198 -39q63 0 63 39q0 13 -8 21.5t-32 18t-49 16.5t-78.5 23t-100.5 31q-74 25 -122.5 46t-94 52t-70.5 68t-40 89.5t-15 121.5q0 199 125.5 307.5t355.5 108.5q304 0 594 -109l-90 -321q-140 49 -267 69.5t-194 20.5q-49 0 -49 -37 q0 -13 8.5 -22t31.5 -17t49 -14.5t76 -20t97 -28.5q64 -21 107.5 -39.5t91.5 -50t76 -69t46.5 -94t18.5 -128.5q0 -205 -136 -316.5t-376 -111.5q-149 0 -309.5 42t-300.5 117z" />
<glyph unicode="T" horiz-adv-x="1220" d="M41 858v391h1139v-391h-355v-858h-430v858h-354z" />
<glyph unicode="U" horiz-adv-x="1355" d="M82 612v637h430v-637q0 -126 39.5 -179.5t126.5 -53.5t126.5 53.5t39.5 179.5v637h430v-637q0 -325 -145.5 -477.5t-450.5 -152.5t-450.5 152.5t-145.5 477.5z" />
<glyph unicode="V" horiz-adv-x="1417" d="M10 1249h477l183 -635q18 -58 39 -147q21 89 39 147l202 635h457l-451 -1249h-495z" />
<glyph unicode="W" horiz-adv-x="1953" d="M31 1249h456l121 -635q11 -57 21 -131l18 131l98 635h463l99 -635l18 -131q10 74 21 131l120 635h457l-307 -1249h-516l-84 393q-26 127 -39 219q-13 -92 -39 -219l-84 -393h-516z" />
<glyph unicode="X" horiz-adv-x="1411" d="M10 0l367 625l-367 624h477l179 -286l39 -64l40 64l179 286h477l-367 -624l367 -625h-467l-189 299l-38 66l-41 -66l-189 -299h-467z" />
<glyph unicode="Y" horiz-adv-x="1384" d="M10 1249h451l137 -266q46 -82 94 -203q48 121 94 203l138 266h450l-467 -882v-367h-430v367z" />
<glyph unicode="Z" horiz-adv-x="1263" d="M72 0v313l538 570q-225 -9 -297 -9h-190v375h1067v-334l-483 -550q163 10 282 10h209v-375h-1126z" />
<glyph unicode="[" horiz-adv-x="837" d="M164 -369v1721h643v-322h-262v-1079h262v-320h-643z" />
<glyph unicode="\" horiz-adv-x="978" d="M72 1331h354l553 -1761h-344z" />
<glyph unicode="]" horiz-adv-x="837" d="M31 -49h262v1079h-262v322h643v-1721h-643v320z" />
<glyph unicode="^" horiz-adv-x="1073" d="M61 680l349 631h254l348 -631h-336l-76 143q-44 85 -63 140q-17 -48 -64 -140l-76 -143h-336z" />
<glyph unicode="_" horiz-adv-x="1034" d="M106 -55h822v-295h-822v295z" />
<glyph unicode="`" horiz-adv-x="1024" d="M225 1268v82l262 182l279 -363l-100 -106q-250 77 -441 205z" />
<glyph unicode="a" horiz-adv-x="1095" d="M31 299q0 313 428 313h151q0 49 -23 75t-83 26q-117 0 -314 -41l-61 270q183 49 280 65.5t177 16.5q228 0 333 -97.5t105 -314.5v-612h-414v115q-109 -133 -254 -133q-81 0 -138 14.5t-100.5 49.5t-65 97.5t-21.5 155.5zM418 352q0 -33 23.5 -52t58.5 -19q48 0 110 32 v125h-94q-44 0 -71 -24t-27 -62z" />
<glyph unicode="b" horiz-adv-x="1185" d="M72 0v1311h413v-422q73 71 142.5 102t152.5 31q186 0 275.5 -123t89.5 -385q0 -136 -30.5 -240.5t-84.5 -167t-122 -93.5t-148 -31q-104 0 -159 29.5t-116 103.5v-115h-413zM485 395q46 -69 133 -69q60 0 88.5 45.5t28.5 142.5q0 160 -112 160q-76 0 -138 -80v-199z" />
<glyph unicode="c" horiz-adv-x="993" d="M31 498q0 248 134 387t359 139q117 0 218.5 -24.5t213.5 -86.5l-110 -264q-158 51 -260 51q-67 0 -108.5 -55.5t-41.5 -146.5q0 -88 41 -141.5t109 -53.5q117 0 278 74l125 -250q-111 -78 -215.5 -111.5t-249.5 -33.5q-103 0 -192.5 34.5t-156.5 99t-105.5 163 t-38.5 219.5z" />
<glyph unicode="d" horiz-adv-x="1185" d="M41 514q0 257 95.5 382.5t269.5 125.5q90 0 157.5 -24t136.5 -91v404h414v-1311h-414v115q-61 -74 -115.5 -103.5t-158.5 -29.5q-80 0 -148 31t-122 93.5t-84.5 167t-30.5 240.5zM451 514q0 -97 28 -142.5t88 -45.5q87 0 133 69v199q-62 80 -137 80q-112 0 -112 -160z " />
<glyph unicode="e" horiz-adv-x="1091" d="M41 496q0 252 136 390t388 138q224 0 353 -127.5t129 -353.5q0 -57 -11 -144h-592q9 -56 41.5 -79t100.5 -23q93 0 165 18t185 62l115 -236q-128 -85 -241 -122t-245 -37q-248 0 -386 134t-138 380zM442 600h242q0 143 -119 143q-46 0 -78.5 -36.5t-44.5 -106.5z" />
<glyph unicode="f" horiz-adv-x="811" d="M10 659v345h133v10q0 210 106.5 305.5t332.5 95.5q99 0 229 -26l-29 -285h-118q-59 0 -83 -24.5t-24 -69.5v-6h223v-345h-223v-659h-414v659h-133z" />
<glyph unicode="g" horiz-adv-x="1185" d="M41 535q0 248 90 367.5t275 119.5q77 0 144.5 -27t149.5 -90v101h414v-818q0 -299 -131.5 -432t-411.5 -133q-246 0 -444 72l53 266q178 -29 330 -29q91 0 136 45.5t52 157.5q-61 -54 -124 -73t-168 -19q-176 0 -270.5 126t-94.5 366zM451 535q0 -94 26 -131t90 -37 q73 0 133 51v192q-40 34 -71 49t-66 15q-61 0 -86.5 -32t-25.5 -107z" />
<glyph unicode="h" horiz-adv-x="1173" d="M72 0v1311h413v-443q101 83 178.5 118.5t157.5 35.5q154 0 219.5 -87.5t65.5 -291.5v-643h-414v520q0 65 -14 87t-57 22q-64 0 -136 -72v-557h-413z" />
<glyph unicode="i" horiz-adv-x="598" d="M66 1296q0 100 68 155.5t165 55.5t165 -55.5t68 -155.5t-68 -155.5t-165 -55.5t-165 55.5t-68 155.5zM92 0v1004h414v-1004h-414z" />
<glyph unicode="j" horiz-adv-x="598" d="M-49 -90q87 47 114 99.5t27 148.5v846h414v-846q0 -108 -22.5 -189t-76 -149.5t-147 -115.5t-229.5 -75zM61 1296q0 100 68.5 155.5t165.5 55.5t165 -55.5t68 -155.5t-68 -155.5t-165 -55.5t-165.5 55.5t-68.5 155.5z" />
<glyph unicode="k" horiz-adv-x="1187" d="M72 0v1311h413v-584l228 277h452v-31l-348 -410l357 -532v-31h-474l-153 244l-62 -72v-172h-413z" />
<glyph unicode="l" horiz-adv-x="557" d="M72 0v1311h413v-1311h-413z" />
<glyph unicode="m" horiz-adv-x="1732" d="M72 0v1004h413v-136q86 83 156.5 118.5t149.5 35.5q107 0 169.5 -41t90.5 -131q105 98 178.5 135t150.5 37q154 0 219.5 -87.5t65.5 -291.5v-643h-414v520q0 109 -65 109q-48 0 -111 -66v-563h-413v520q0 109 -66 109q-49 0 -111 -62v-567h-413z" />
<glyph unicode="n" horiz-adv-x="1173" d="M72 0v1004h413v-136q101 83 178.5 118.5t157.5 35.5q154 0 219.5 -87.5t65.5 -291.5v-643h-414v520q0 65 -14 87t-57 22q-64 0 -136 -72v-557h-413z" />
<glyph unicode="o" horiz-adv-x="1150" d="M41 498q0 251 140.5 388.5t393.5 137.5t394 -137.5t141 -388.5q0 -246 -141 -381t-394 -135t-393.5 134.5t-140.5 381.5zM446 498q0 -107 33 -151t96 -44t96.5 44t33.5 151q0 111 -33.5 156.5t-96.5 45.5t-96 -45.5t-33 -156.5z" />
<glyph unicode="p" horiz-adv-x="1185" d="M72 -305v1311h413v-117q73 71 142.5 102t152.5 31q186 0 275.5 -123t89.5 -385q0 -136 -30.5 -240.5t-84.5 -167t-122 -93.5t-148 -31q-104 0 -159 29.5t-116 103.5v-420h-413zM485 395q46 -69 133 -69q60 0 88.5 45.5t28.5 142.5q0 160 -112 160q-76 0 -138 -80v-199z " />
<glyph unicode="q" horiz-adv-x="1185" d="M41 514q0 262 89.5 385t275.5 123q83 0 152 -31t142 -102v117h414v-1311h-414v420q-61 -74 -115.5 -103.5t-158.5 -29.5q-80 0 -148 31t-122 93.5t-84.5 167t-30.5 240.5zM451 514q0 -97 28 -142.5t88 -45.5q87 0 133 69v199q-62 80 -137 80q-112 0 -112 -160z" />
<glyph unicode="r" horiz-adv-x="874" d="M72 0v1004h413v-197q58 117 117 166t139 49q68 0 123 -6l-26 -426q-49 4 -117 4q-49 0 -83 -5.5t-66 -21.5t-53 -47t-34 -80v-440h-413z" />
<glyph unicode="s" horiz-adv-x="993" d="M16 115l101 288q120 -64 217.5 -95.5t146.5 -31.5q51 0 51 21q0 19 -34.5 34.5t-149.5 49.5q-134 43 -197 121.5t-63 208.5q0 151 100.5 232t286.5 81q149 0 245.5 -14t235.5 -56l-79 -274q-233 57 -326 57q-64 0 -64 -22q0 -17 12.5 -24t68.5 -22q21 -5 35 -9 t40.5 -11.5t52.5 -15.5q131 -40 193.5 -112.5t62.5 -186.5q0 -167 -116.5 -259.5t-294.5 -92.5q-87 0 -244 37t-281 96z" />
<glyph unicode="t" horiz-adv-x="847" d="M10 659v345h133v204h414v-204h223v-345h-223v-245q0 -49 23.5 -75t83.5 -26h122l41 -250q-49 -35 -142.5 -58t-184.5 -23q-189 0 -273 95t-84 316v266h-133z" />
<glyph unicode="u" horiz-adv-x="1183" d="M72 360v644h413v-531q0 -64 14.5 -86t57.5 -22q64 0 135 71v568h414v-1004h-414v115q-11 -7 -37.5 -25t-35 -23.5t-30 -19.5t-29.5 -18t-26 -14t-27 -12.5t-24.5 -8.5t-27.5 -7.5t-27 -3t-31 -1.5q-159 0 -242 90t-83 288z" />
<glyph unicode="v" horiz-adv-x="1210" d="M10 1004h432l123 -412q9 -28 41 -141q18 73 39 141l123 412h432l-364 -1004h-461z" />
<glyph unicode="w" horiz-adv-x="1636" d="M8 1004h416l100 -504q2 -13 5.5 -37.5t5.5 -36.5l14 74l125 504h289l124 -504q2 -14 7.5 -40.5t7.5 -37.5q6 38 12 78l98 504h416l-250 -1004h-452l-107 428l-108 -428h-451z" />
<glyph unicode="x" horiz-adv-x="1177" d="M10 0l314 502l-314 502h443l122 -209q7 -15 15 -25l12 25l123 209h442l-313 -502l313 -502h-432l-133 209l-12 24l-15 -24l-133 -209h-432z" />
<glyph unicode="y" horiz-adv-x="1196" d="M0 1004h432l123 -359l43 -147q81 187 156 506h442q-170 -549 -293 -805q-98 -203 -263 -338t-409 -211l-135 313q87 35 142.5 65t105.5 76z" />
<glyph unicode="z" horiz-adv-x="1114" d="M72 0v262l401 424q-152 -4 -215 -4h-166v322h924v-252l-377 -437q171 7 242 7h161v-322h-970z" />
<glyph unicode="{" horiz-adv-x="858" d="M31 342v299q125 15 168 57.5t43 141.5v59q0 135 31.5 224.5t103.5 145.5t180 79.5t270 23.5l21 -295q-73 -8 -113 -18t-63 -31.5t-29 -49t-6 -79.5v-59q0 -162 -62 -241.5t-192 -106.5q130 -27 192 -107t62 -242v-59q0 -52 6 -79.5t29 -49t63 -31.5t113 -18l-21 -295 q-162 0 -270 23.5t-180 79.5t-103.5 145.5t-31.5 224.5v59q0 99 -43 141.5t-168 57.5z" />
<glyph unicode="|" horiz-adv-x="755" d="M205 -410v1721h346v-1721h-346z" />
<glyph unicode="}" horiz-adv-x="858" d="M10 -94q73 8 113 18t63 31.5t29 49t6 79.5v59q0 162 62 242t192 107q-130 27 -192 106.5t-62 241.5v59q0 52 -6 79.5t-29 49t-63 31.5t-113 18l21 295q162 0 270 -23.5t180 -79.5t103.5 -145.5t31.5 -224.5v-59q0 -99 43 -141.5t168 -57.5v-299q-125 -15 -168 -57.5 t-43 -141.5v-59q0 -135 -31.5 -224.5t-103.5 -145.5t-180 -79.5t-270 -23.5z" />
<glyph unicode="~" horiz-adv-x="1126" d="M102 528q69 124 138.5 184t141 63t157.5 -25l137 -52q34 -11 62.5 -13t61.5 21.5t74 77.5l150 -108q-69 -124 -140 -184t-143 -63.5t-157 24.5l-135 51q-38 15 -63.5 16t-59.5 -21.5t-76 -76.5z" />
<glyph unicode="&#xa1;" horiz-adv-x="593" d="M72 -244l61 779h328l61 -779h-450zM104 831q0 81 54 137t139 56t138.5 -56t53.5 -137t-53.5 -136.5t-138.5 -55.5t-139 55.5t-54 136.5z" />
<glyph unicode="&#xa2;" horiz-adv-x="1060" d="M51 565q0 228 108.5 382t295.5 194v108h268v-108q123 -21 293 -101l-113 -270q-159 53 -264 53q-82 0 -128 -59t-46 -199q0 -80 12.5 -132.5t37.5 -78.5t53.5 -35.5t70.5 -9.5q121 0 283 76l129 -256q-166 -116 -328 -137v-103h-268v105q-86 17 -158 60.5t-128 112.5 t-87 171t-31 227z" />
<glyph unicode="&#xa3;" horiz-adv-x="1226" d="M82 483v164h149q40 261 166.5 387.5t347.5 126.5q122 0 225 -24.5t216 -87.5l-113 -271q-159 53 -264 53q-67 0 -105.5 -41.5t-58.5 -142.5h285v-164h-305l-15 -139h484v-344h-1010v309l111 23l16 151h-129z" />
<glyph unicode="&#xa5;" horiz-adv-x="1255" d="M10 1130h439l102 -239q13 -31 76 -184q5 12 32 79.5t43 104.5l103 239h440l-264 -524h174v-102h-227l-41 -82h268v-103h-313v-319h-430v319h-310v103h265l-41 82h-224v102h172z" />
<glyph unicode="&#xa6;" horiz-adv-x="755" d="M205 301h346v-711h-346v711zM205 600v711h346v-711h-346z" />
<glyph unicode="&#xa7;" horiz-adv-x="1267" d="M72 500q0 84 45 132t131 85q-84 84 -84 223q0 151 107.5 240.5t301.5 89.5q243 0 494 -94l-104 -299q-100 48 -196 75t-153 27q-61 0 -61 -27q0 -20 23 -30.5t117 -36.5q65 -19 108 -31q149 -43 232 -89.5t113 -97t30 -122.5q0 -82 -45 -130t-132 -87q84 -81 84 -224 q0 -154 -111 -251t-315 -97q-259 0 -536 140l106 303q238 -133 406 -133q61 0 61 28q0 20 -25 30.5t-131 39.5q-57 16 -92 26q-149 43 -231.5 90t-112.5 97.5t-30 122.5zM442 563q0 -12 15.5 -22t48.5 -20.5t68.5 -19.5t92.5 -23.5t103 -28.5l18 -7q17 25 17 41q0 19 -36 33 t-134.5 38t-157.5 42l-18 6q-17 -26 -17 -39z" />
<glyph unicode="&#xa8;" horiz-adv-x="1024" d="M92 1280q0 86 58.5 136t136.5 50q83 0 138.5 -49.5t55.5 -136.5q0 -86 -55.5 -135t-138.5 -49q-78 0 -136.5 49.5t-58.5 134.5zM543 1280q0 87 55.5 136.5t138.5 49.5q78 0 136.5 -50t58.5 -136q0 -85 -58.5 -134.5t-136.5 -49.5q-83 0 -138.5 49t-55.5 135z" />
<glyph unicode="&#xa9;" horiz-adv-x="1488" d="M102 625q0 175 85.5 323.5t233.5 235t324 86.5q175 0 322.5 -86.5t233 -235t85.5 -323.5q0 -176 -85.5 -324t-233 -233.5t-322.5 -85.5q-176 0 -324 85.5t-233.5 233.5t-85.5 324zM190 625q0 -152 74 -279.5t201.5 -201.5t279.5 -74q113 0 216 43.5t177 117.5t118 177 t44 217q0 113 -44 216t-118 178t-177 119t-216 44q-114 0 -217 -44t-177 -119t-117.5 -178t-43.5 -216zM389 618q0 177 96 276t258 99q157 0 304 -78l-78 -188q-112 37 -185 37q-58 0 -83 -32t-25 -114q0 -77 25 -107t83 -30q81 0 199 51l86 -176q-78 -55 -152.5 -79.5 t-173.5 -24.5q-154 0 -254 98t-100 268z" />
<glyph unicode="&#xaa;" horiz-adv-x="813" d="M41 752q0 223 307 223h107q0 35 -16.5 53.5t-59.5 18.5q-78 0 -223 -29l-43 192q223 60 325 60q164 0 239 -69.5t75 -225.5v-436h-297v82q-75 -97 -181 -97q-118 0 -175.5 50t-57.5 178zM317 791q0 -24 17 -38t43 -14q40 0 78 23v90h-66q-32 0 -52 -16.5t-20 -44.5z" />
<glyph unicode="&#xab;" horiz-adv-x="1361" d="M41 539l479 450l207 -207l-178 -176q-27 -27 -80 -69q58 -46 82 -70l176 -178l-205 -201zM594 539l479 450l207 -207l-178 -176q-27 -27 -80 -69q58 -46 82 -70l176 -178l-205 -201z" />
<glyph unicode="&#xad;" horiz-adv-x="856" d="M106 375v368h644v-368h-644z" />
<glyph unicode="&#xae;" horiz-adv-x="1488" d="M102 625q0 175 85.5 323.5t233.5 235t324 86.5q175 0 322.5 -86.5t233 -235t85.5 -323.5q0 -176 -85.5 -324t-233 -233.5t-322.5 -85.5q-176 0 -324 85.5t-233.5 233.5t-85.5 324zM190 625q0 -152 74 -279.5t201.5 -201.5t279.5 -74q113 0 216 43.5t177 117.5t118 177 t44 217q0 113 -44 216t-118 178t-177 119t-216 44q-114 0 -217 -44t-177 -119t-117.5 -178t-43.5 -216zM430 272v709h320q181 0 260.5 -65t79.5 -197q0 -138 -115 -180q110 -65 135 -267h-305q-2 12 -5.5 38t-5.5 38t-6 32t-9.5 29t-14 20t-20.5 15.5t-27 4.5h-37v-177h-250 zM700 637h56q65 0 65 72q0 67 -71 67h-50v-139z" />
<glyph unicode="&#xaf;" horiz-adv-x="1024" d="M160 1135v295h704v-295h-704z" />
<glyph unicode="&#xb0;" horiz-adv-x="790" d="M61 936q0 151 90.5 242.5t243.5 91.5t243.5 -91.5t90.5 -242.5q0 -149 -90.5 -238.5t-243.5 -89.5t-243.5 89.5t-90.5 238.5zM293 936q0 -49 26 -77t76 -28t76.5 28.5t26.5 76.5q0 52 -26.5 81.5t-76.5 29.5t-76 -29.5t-26 -81.5z" />
<glyph unicode="&#xb1;" horiz-adv-x="1071" d="M102 559v256h306v223h256v-223h303v-256h-303v-221h-256v221h-306zM104 0v256h842v-256h-842z" />
<glyph unicode="&#xb2;" horiz-adv-x="747" d="M31 1374q126 55 203.5 78t158.5 23q130 0 210.5 -76t80.5 -199q0 -85 -65.5 -153t-196.5 -146q102 8 147 8h117v-223h-629v186q220 173 256 204q95 83 95 120q0 57 -66 57q-77 0 -240 -65z" />
<glyph unicode="&#xb3;" horiz-adv-x="757" d="M20 764l72 178q145 -63 273 -63q79 0 79 49q0 51 -141 51h-102v195h102q78 0 104.5 7t26.5 33q0 56 -86 56q-80 0 -246 -45l-53 174q194 76 336 76q127 0 210 -61.5t83 -160.5q0 -61 -28.5 -105.5t-74.5 -64.5q63 -29 92 -65.5t29 -93.5q0 -119 -85 -183.5t-234 -64.5 q-196 0 -357 88z" />
<glyph unicode="&#xb4;" horiz-adv-x="1024" d="M289 1169l278 363l262 -182v-82q-192 -129 -440 -205z" />
<glyph unicode="&#xb6;" horiz-adv-x="1265" d="M61 805q0 227 131.5 335.5t403.5 108.5h598v-315l-170 -37v-897h-389v371h-39q-272 0 -403.5 106.5t-131.5 327.5z" />
<glyph unicode="&#xb7;" d="M72 543q0 100 65 166.5t168 66.5t168.5 -66.5t65.5 -166.5t-65.5 -167t-168.5 -67t-168 67t-65 167z" />
<glyph unicode="&#xb8;" horiz-adv-x="1024" d="M254 -375l33 150q106 -19 143 -19q32 0 48 9t16 34q0 34 -15.5 46t-64.5 12h-66l43 225h150v-131q116 -10 157 -48.5t41 -125.5q0 -90 -54.5 -147.5t-156.5 -57.5q-136 0 -274 53z" />
<glyph unicode="&#xb9;" horiz-adv-x="729" d="M61 1311q138 57 256 143h215v-553h156v-223h-602v223h180v252q-61 -12 -155 -23z" />
<glyph unicode="&#xba;" horiz-adv-x="864" d="M51 893q0 181 100 279t281 98t281 -98t100 -279q0 -176 -100 -272.5t-281 -96.5t-281 96.5t-100 272.5zM340 893q0 -75 23.5 -106t68.5 -31t68.5 31t23.5 106q0 80 -23.5 112.5t-68.5 32.5t-68.5 -32.5t-23.5 -112.5z" />
<glyph unicode="&#xbb;" horiz-adv-x="1361" d="M82 289l176 178q24 24 82 70q-53 42 -80 69l-178 176l207 207l479 -450l-481 -451zM635 289l176 178q24 24 82 70q-53 42 -80 69l-178 176l207 207l479 -450l-481 -451z" />
<glyph unicode="&#xbc;" horiz-adv-x="1851" d="M61 1106q138 57 256 143h215v-553h156v-223h-602v223h180v252q-48 -9 -155 -22zM483 0l688 1249h230l-688 -1249h-230zM981 299l408 477h256v-452h104v-205h-104v-119h-256v119h-396zM1217 324h172v186q-35 -45 -58 -68l-39 -43q-33 -42 -75 -75z" />
<glyph unicode="&#xbd;" horiz-adv-x="1902" d="M61 1106q138 57 256 143h215v-553h156v-223h-602v223h180v252q-48 -9 -155 -22zM483 0l688 1249h230l-688 -1249h-230zM1145 688q125 54 203 77t159 23q131 0 211 -75.5t80 -198.5q0 -85 -65.5 -153t-196.5 -146q102 8 147 8h117v-223h-629v186q220 173 256 204 q95 83 95 120q0 57 -66 57q-76 0 -239 -65z" />
<glyph unicode="&#xbe;" horiz-adv-x="1816" d="M20 559l72 178q145 -63 273 -63q79 0 79 49q0 51 -141 51h-102v195h102q77 0 104 7.5t27 33.5q0 55 -86 55q-80 0 -246 -45l-53 174q194 76 336 76q127 0 210 -61t83 -160q0 -61 -28.5 -105.5t-74.5 -64.5q63 -28 92 -65.5t29 -94.5q0 -119 -85 -183.5t-234 -64.5 q-196 0 -357 88zM449 0l688 1249h229l-688 -1249h-229zM967 299l407 477h256v-452h105v-205h-105v-119h-256v119h-395zM1202 324h172v186q-38 -50 -57 -68l-39 -43q-32 -39 -76 -75z" />
<glyph unicode="&#xbf;" horiz-adv-x="1142" d="M51 135q0 147 109.5 247.5t310.5 143.5l-4 68h336l61 -328h-61q-124 0 -194 -11t-91.5 -27.5t-21.5 -43.5q0 -45 30 -68.5t76 -23.5q71 0 159.5 26t227.5 79l113 -299q-206 -88 -329.5 -125t-250.5 -37q-209 0 -340 114.5t-131 284.5zM438 831q0 81 54 137t139 56 t138.5 -56t53.5 -137t-53.5 -136.5t-138.5 -55.5t-139 55.5t-54 136.5z" />
<glyph unicode="&#xc0;" horiz-adv-x="1470" d="M10 0l430 1249h590l430 -1249h-450l-54 172h-442l-53 -172h-451zM434 1483v82l303 161l238 -321l-101 -107q-141 39 -236.5 79t-203.5 106zM623 522h225l-74 240q-28 90 -39 147q-11 -57 -39 -147z" />
<glyph unicode="&#xc1;" horiz-adv-x="1470" d="M10 0l430 1249h590l430 -1249h-450l-54 172h-442l-53 -172h-451zM485 1405l238 321l303 -161v-82q-108 -66 -203.5 -106t-236.5 -79zM623 522h225l-74 240q-28 90 -39 147q-11 -57 -39 -147z" />
<glyph unicode="&#xc2;" horiz-adv-x="1470" d="M10 0l430 1249h590l430 -1249h-450l-54 172h-442l-53 -172h-451zM342 1405l279 295h229l278 -295l-100 -107l-293 154l-293 -154zM623 522h225l-74 240q-28 90 -39 147q-11 -57 -39 -147z" />
<glyph unicode="&#xc3;" horiz-adv-x="1470" d="M10 0l430 1249h590l430 -1249h-450l-54 172h-442l-53 -172h-451zM360 1356q0 76 18 134.5t48 92.5t68 54.5t80.5 24t82.5 -2.5t76 -21l111 -53q22 -10 36 -12.5t30 7.5t28 22.5t37 42.5h147q0 -91 -27.5 -157.5t-70 -99t-95 -46t-102 -8.5t-92.5 24l-112 53 q-41 20 -62.5 9.5t-64.5 -64.5h-136zM623 522h225l-74 240q-28 90 -39 147q-11 -57 -39 -147z" />
<glyph unicode="&#xc4;" horiz-adv-x="1470" d="M10 0l430 1249h590l430 -1249h-450l-54 172h-442l-53 -172h-451zM326 1516q0 82 55.5 130t128.5 48q80 0 133 -47.5t53 -130.5q0 -82 -53 -129.5t-133 -47.5q-73 0 -128.5 48.5t-55.5 128.5zM623 522h225l-74 240q-28 90 -39 147q-11 -57 -39 -147zM774 1516 q0 83 53.5 130.5t133.5 47.5q73 0 128.5 -48t55.5 -130q0 -80 -55.5 -128.5t-128.5 -48.5q-80 0 -133.5 47.5t-53.5 129.5z" />
<glyph unicode="&#xc5;" horiz-adv-x="1470" d="M10 0l430 1249h590l430 -1249h-450l-54 172h-442l-53 -172h-451zM496 1550q0 105 66.5 169.5t172.5 64.5t173 -64.5t67 -169.5q0 -101 -67 -164t-173 -63t-172.5 63t-66.5 164zM623 522h225l-74 240q-28 90 -39 147q-11 -57 -39 -147zM664 1550q0 -29 20 -46t51 -17 q33 0 52.5 17t19.5 46q0 33 -19.5 51.5t-52.5 18.5q-32 0 -51.5 -18.5t-19.5 -51.5z" />
<glyph unicode="&#xc6;" horiz-adv-x="2037" d="M10 0l738 1249h1206v-354h-551v-115h465v-309h-465v-117h567v-354h-991v172h-404l-94 -172h-471zM768 522h211v383z" />
<glyph unicode="&#xc7;" horiz-adv-x="1241" d="M51 621q0 310 174.5 479.5t483.5 169.5q242 0 481 -115l-127 -324q-132 31 -202 42.5t-132 11.5q-242 0 -242 -264q0 -126 58.5 -190t163.5 -64q90 0 168 14.5t219 58.5l135 -319q-155 -75 -280 -107t-263 -32h-2v-31q115 -10 157 -49t42 -125q0 -90 -54.5 -147.5 t-156.5 -57.5q-137 0 -275 53l33 150q106 -19 143 -19q32 0 48 9t16 34q0 34 -15.5 46t-64.5 12h-65l26 141q-221 45 -345 206t-124 417z" />
<glyph unicode="&#xc8;" horiz-adv-x="1140" d="M82 0v1249h975v-354h-551v-115h465v-309h-465v-117h567v-354h-991zM252 1483v82l303 161l238 -321l-101 -107q-141 39 -236.5 79t-203.5 106z" />
<glyph unicode="&#xc9;" horiz-adv-x="1140" d="M82 0v1249h975v-354h-551v-115h465v-309h-465v-117h567v-354h-991zM303 1405l238 321l303 -161v-82q-108 -66 -204 -106t-237 -79z" />
<glyph unicode="&#xca;" horiz-adv-x="1140" d="M82 0v1249h975v-354h-551v-115h465v-309h-465v-117h567v-354h-991zM160 1405l278 295h230l278 -295l-100 -107l-293 154l-293 -154z" />
<glyph unicode="&#xcb;" horiz-adv-x="1140" d="M82 0v1249h975v-354h-551v-115h465v-309h-465v-117h567v-354h-991zM143 1516q0 82 56 130t129 48q80 0 133 -47.5t53 -130.5q0 -82 -53 -129.5t-133 -47.5q-73 0 -129 48.5t-56 128.5zM592 1516q0 83 53 130.5t133 47.5q73 0 129 -48t56 -130q0 -80 -56 -128.5 t-129 -48.5q-80 0 -133 47.5t-53 129.5z" />
<glyph unicode="&#xcc;" horiz-adv-x="593" d="M-4 1483v82l303 161l238 -321l-101 -107q-141 39 -236.5 79t-203.5 106zM82 0v1249h430v-1249h-430z" />
<glyph unicode="&#xcd;" horiz-adv-x="593" d="M47 1405l238 321l303 -161v-82q-108 -66 -204 -106t-237 -79zM82 0v1249h430v-1249h-430z" />
<glyph unicode="&#xce;" horiz-adv-x="593" d="M-96 1405l278 295h230l278 -295l-100 -107l-293 154l-293 -154zM82 0v1249h430v-1249h-430z" />
<glyph unicode="&#xcf;" horiz-adv-x="593" d="M-113 1516q0 82 56 130t129 48q80 0 133 -47.5t53 -130.5q0 -82 -53 -129.5t-133 -47.5q-73 0 -129 48.5t-56 128.5zM82 0v1249h430v-1249h-430zM336 1516q0 83 53 130.5t133 47.5q73 0 129 -48t56 -130q0 -80 -56 -128.5t-129 -48.5q-80 0 -133 47.5t-53 129.5z" />
<glyph unicode="&#xd0;" horiz-adv-x="1355" d="M0 459v329h92v461h533q326 0 503 -162.5t177 -461.5t-177 -462t-503 -163h-533v459h-92zM522 356h103q117 0 180 70t63 199t-63 198.5t-180 69.5h-103v-105h150v-329h-150v-103z" />
<glyph unicode="&#xd1;" horiz-adv-x="1392" d="M82 0v1249h389l410 -555v555h430v-1249h-389l-410 563v-563h-430zM322 1356q0 91 25.5 156t65.5 97.5t90.5 45.5t98.5 7.5t92 -24.5l111 -53q22 -10 36 -12.5t30 7.5t28 22.5t37 42.5h147q0 -91 -27.5 -157.5t-70 -99t-95 -46t-102 -8.5t-92.5 24l-112 53 q-41 20 -62.5 9.5t-64.5 -64.5h-135z" />
<glyph unicode="&#xd2;" horiz-adv-x="1417" d="M51 621q0 310 174.5 479.5t483.5 169.5q308 0 482.5 -169.5t174.5 -479.5q0 -305 -174.5 -472t-482.5 -167q-309 0 -483.5 167t-174.5 472zM408 1483v82l303 161l237 -321l-100 -107q-141 39 -236.5 79t-203.5 106zM487 621q0 -126 58.5 -190t163.5 -64t163 64t58 190 q0 132 -58 198t-163 66t-163.5 -66t-58.5 -198z" />
<glyph unicode="&#xd3;" horiz-adv-x="1417" d="M51 621q0 310 174.5 479.5t483.5 169.5q308 0 482.5 -169.5t174.5 -479.5q0 -305 -174.5 -472t-482.5 -167q-309 0 -483.5 167t-174.5 472zM459 1405l237 321l303 -161v-82q-108 -66 -203.5 -106t-236.5 -79zM487 621q0 -126 58.5 -190t163.5 -64t163 64t58 190 q0 132 -58 198t-163 66t-163.5 -66t-58.5 -198z" />
<glyph unicode="&#xd4;" horiz-adv-x="1417" d="M51 621q0 310 174.5 479.5t483.5 169.5q308 0 482.5 -169.5t174.5 -479.5q0 -305 -174.5 -472t-482.5 -167q-309 0 -483.5 167t-174.5 472zM315 1405l279 295h229l279 -295l-101 -107l-292 154l-293 -154zM487 621q0 -126 58.5 -190t163.5 -64t163 64t58 190 q0 132 -58 198t-163 66t-163.5 -66t-58.5 -198z" />
<glyph unicode="&#xd5;" horiz-adv-x="1417" d="M51 621q0 310 174.5 479.5t483.5 169.5q308 0 482.5 -169.5t174.5 -479.5q0 -305 -174.5 -472t-482.5 -167q-309 0 -483.5 167t-174.5 472zM334 1356q0 76 18 134.5t48 92.5t68 54.5t80.5 24t82.5 -2.5t76 -21l110 -53q22 -10 36 -12.5t30 7.5t28 22.5t37 42.5h148 q0 -91 -27.5 -157.5t-70 -99t-95 -46t-102 -8.5t-92.5 24l-113 53q-41 20 -62.5 9.5t-64.5 -64.5h-135zM487 621q0 -126 58.5 -190t163.5 -64t163 64t58 190q0 132 -58 198t-163 66t-163.5 -66t-58.5 -198z" />
<glyph unicode="&#xd6;" horiz-adv-x="1417" d="M51 621q0 310 174.5 479.5t483.5 169.5q308 0 482.5 -169.5t174.5 -479.5q0 -305 -174.5 -472t-482.5 -167q-309 0 -483.5 167t-174.5 472zM299 1516q0 82 55.5 130t128.5 48q80 0 133.5 -47.5t53.5 -130.5q0 -82 -53.5 -129.5t-133.5 -47.5q-73 0 -128.5 48.5 t-55.5 128.5zM487 621q0 -126 58.5 -190t163.5 -64t163 64t58 190q0 132 -58 198t-163 66t-163.5 -66t-58.5 -198zM748 1516q0 83 53 130.5t133 47.5q73 0 128.5 -48t55.5 -130q0 -80 -55.5 -128.5t-128.5 -48.5q-80 0 -133 47.5t-53 129.5z" />
<glyph unicode="&#xd7;" horiz-adv-x="1046" d="M82 725l209 209l225 -223l232 231l208 -209l-231 -231l223 -226l-211 -204l-221 221l-215 -215l-209 209l215 215z" />
<glyph unicode="&#xd8;" horiz-adv-x="1406" d="M45 129l105 104q-103 159 -103 388q0 310 174.5 479.5t483.5 169.5q227 0 387 -94l92 92l147 -148l-86 -86q117 -163 117 -413q0 -305 -174.5 -472t-482.5 -167q-245 0 -406 106l-106 -106zM483 621q0 -36 2 -52l303 303q-41 13 -83 13q-105 0 -163.5 -66t-58.5 -198z M598 387q44 -20 107 -20q105 0 163 64t58 190q0 53 -8 86z" />
<glyph unicode="&#xd9;" horiz-adv-x="1355" d="M82 612v637h430v-637q0 -126 39.5 -179.5t126.5 -53.5t126.5 53.5t39.5 179.5v637h430v-637q0 -325 -145.5 -477.5t-450.5 -152.5t-450.5 152.5t-145.5 477.5zM377 1483v82l303 161l238 -321l-101 -107q-141 39 -236.5 79t-203.5 106z" />
<glyph unicode="&#xda;" horiz-adv-x="1355" d="M82 612v637h430v-637q0 -126 39.5 -179.5t126.5 -53.5t126.5 53.5t39.5 179.5v637h430v-637q0 -325 -145.5 -477.5t-450.5 -152.5t-450.5 152.5t-145.5 477.5zM428 1405l238 321l303 -161v-82q-108 -66 -204 -106t-237 -79z" />
<glyph unicode="&#xdb;" horiz-adv-x="1355" d="M82 612v637h430v-637q0 -126 39.5 -179.5t126.5 -53.5t126.5 53.5t39.5 179.5v637h430v-637q0 -325 -145.5 -477.5t-450.5 -152.5t-450.5 152.5t-145.5 477.5zM285 1405l278 295h230l278 -295l-100 -107l-293 154l-293 -154z" />
<glyph unicode="&#xdc;" horiz-adv-x="1355" d="M82 612v637h430v-637q0 -126 39.5 -179.5t126.5 -53.5t126.5 53.5t39.5 179.5v637h430v-637q0 -325 -145.5 -477.5t-450.5 -152.5t-450.5 152.5t-145.5 477.5zM268 1516q0 82 56 130t129 48q80 0 133 -47.5t53 -130.5q0 -82 -53 -129.5t-133 -47.5q-73 0 -129 48.5 t-56 128.5zM717 1516q0 83 53 130.5t133 47.5q73 0 128.5 -48t55.5 -130q0 -80 -55.5 -128.5t-128.5 -48.5q-80 0 -133 47.5t-53 129.5z" />
<glyph unicode="&#xdd;" horiz-adv-x="1384" d="M10 1249h451l137 -266q46 -82 94 -203q48 121 94 203l138 266h450l-467 -882v-367h-430v367zM442 1405l238 321l303 -161v-82q-108 -66 -203.5 -106t-236.5 -79z" />
<glyph unicode="&#xde;" horiz-adv-x="1232" d="M82 0v1249h430v-143h115q296 0 435.5 -120t139.5 -372q0 -248 -134.5 -359.5t-420.5 -111.5h-135v-143h-430zM512 483h133q139 0 139 131q0 127 -159 127h-113v-258z" />
<glyph unicode="&#xdf;" horiz-adv-x="1304" d="M0 700v304h150q70 135 213.5 210.5t336.5 75.5q219 0 355.5 -98.5t136.5 -259.5q0 -198 -184 -258q130 -37 193 -118t63 -216q0 -161 -114 -259.5t-300 -98.5q-140 0 -246 32l27 295q118 -8 147 -8q49 0 79 24t30 64q0 49 -58.5 64.5t-177.5 15.5h-24v291h24 q71 0 113.5 32.5t42.5 86.5q0 38 -26 58.5t-74 20.5q-97 0 -149 -51.5t-52 -148.5v-758h-414v684z" />
<glyph unicode="&#xe0;" horiz-adv-x="1095" d="M31 299q0 313 428 313h151q0 49 -23 75t-83 26q-117 0 -314 -41l-61 270q183 49 280 65.5t177 16.5q228 0 333 -97.5t105 -314.5v-612h-414v115q-109 -133 -254 -133q-81 0 -138 14.5t-100.5 49.5t-65 97.5t-21.5 155.5zM262 1268v82l262 182l279 -363l-101 -106 q-248 76 -440 205zM418 352q0 -33 23.5 -52t58.5 -19q48 0 110 32v125h-94q-44 0 -71 -24t-27 -62z" />
<glyph unicode="&#xe1;" horiz-adv-x="1095" d="M31 299q0 313 428 313h151q0 49 -23 75t-83 26q-117 0 -314 -41l-61 270q183 49 280 65.5t177 16.5q228 0 333 -97.5t105 -314.5v-612h-414v115q-109 -133 -254 -133q-81 0 -138 14.5t-100.5 49.5t-65 97.5t-21.5 155.5zM326 1169l278 363l262 -182v-82 q-192 -129 -440 -205zM418 352q0 -33 23.5 -52t58.5 -19q48 0 110 32v125h-94q-44 0 -71 -24t-27 -62z" />
<glyph unicode="&#xe2;" horiz-adv-x="1095" d="M31 299q0 313 428 313h151q0 49 -23 75t-83 26q-117 0 -314 -41l-61 270q183 49 280 65.5t177 16.5q228 0 333 -97.5t105 -314.5v-612h-414v115q-109 -133 -254 -133q-81 0 -138 14.5t-100.5 49.5t-65 97.5t-21.5 155.5zM184 1176l267 299h217l266 -299l-96 -103 l-279 144q-46 -24 -139 -72.5t-139 -71.5zM418 352q0 -33 23.5 -52t58.5 -19q48 0 110 32v125h-94q-44 0 -71 -24t-27 -62z" />
<glyph unicode="&#xe3;" horiz-adv-x="1095" d="M31 299q0 313 428 313h151q0 49 -23 75t-83 26q-117 0 -314 -41l-61 270q183 49 280 65.5t177 16.5q228 0 333 -97.5t105 -314.5v-612h-414v115q-109 -133 -254 -133q-81 0 -138 14.5t-100.5 49.5t-65 97.5t-21.5 155.5zM174 1151q0 91 25.5 156.5t65.5 97.5t90.5 45.5 t99 8t92.5 -24.5l110 -54q22 -10 36 -12.5t30 7.5t28 22.5t37 42.5h148q0 -91 -27.5 -157.5t-70 -99t-95 -46t-102 -8.5t-92.5 24l-113 53q-41 20 -62.5 9.5t-64.5 -64.5h-135zM418 352q0 -33 23.5 -52t58.5 -19q48 0 110 32v125h-94q-44 0 -71 -24t-27 -62z" />
<glyph unicode="&#xe4;" horiz-adv-x="1095" d="M31 299q0 313 428 313h151q0 49 -23 75t-83 26q-117 0 -314 -41l-61 270q183 49 280 65.5t177 16.5q228 0 333 -97.5t105 -314.5v-612h-414v115q-109 -133 -254 -133q-81 0 -138 14.5t-100.5 49.5t-65 97.5t-21.5 155.5zM129 1280q0 86 58.5 136t136.5 50 q83 0 138.5 -49.5t55.5 -136.5q0 -86 -55.5 -135t-138.5 -49q-78 0 -136.5 49.5t-58.5 134.5zM418 352q0 -33 23.5 -52t58.5 -19q48 0 110 32v125h-94q-44 0 -71 -24t-27 -62zM580 1280q0 87 55.5 136.5t138.5 49.5q78 0 136.5 -50t58.5 -136q0 -85 -58.5 -134.5 t-136.5 -49.5q-83 0 -138.5 49t-55.5 135z" />
<glyph unicode="&#xe5;" horiz-adv-x="1095" d="M31 299q0 313 428 313h151q0 49 -23 75t-83 26q-117 0 -314 -41l-61 270q183 49 280 65.5t177 16.5q228 0 333 -97.5t105 -314.5v-612h-414v115q-109 -133 -254 -133q-81 0 -138 14.5t-100.5 49.5t-65 97.5t-21.5 155.5zM330 1325q0 105 66.5 169.5t172.5 64.5t173 -64.5 t67 -169.5q0 -101 -67 -164t-173 -63t-172.5 63t-66.5 164zM418 352q0 -33 23.5 -52t58.5 -19q48 0 110 32v125h-94q-44 0 -71 -24t-27 -62zM498 1325q0 -29 20 -46t51 -17q33 0 52.5 17t19.5 46q0 33 -19.5 51.5t-52.5 18.5q-32 0 -51.5 -18.5t-19.5 -51.5z" />
<glyph unicode="&#xe6;" horiz-adv-x="1669" d="M31 299q0 157 106 229t322 72h151q0 113 -106 113q-117 0 -314 -41l-61 270q183 49 280 65.5t177 16.5q174 0 272 -61q116 61 285 61q224 0 352.5 -127.5t128.5 -353.5q0 -65 -10 -144h-592q9 -57 41 -79.5t100 -22.5q93 0 165 18t185 62l115 -236q-128 -85 -240.5 -122 t-244.5 -37q-228 0 -359 110q-205 -110 -387 -110q-97 0 -162 14t-112.5 49.5t-69.5 97.5t-22 156zM418 352q0 -33 23.5 -52t58.5 -19q66 0 147 16q-17 51 -22 102h-109q-58 0 -78 -9.5t-20 -37.5zM1020 600h242q0 143 -119 143q-46 0 -78.5 -36.5t-44.5 -106.5z" />
<glyph unicode="&#xe7;" horiz-adv-x="993" d="M31 498q0 248 134 387t359 139q117 0 218.5 -24.5t213.5 -86.5l-110 -264q-158 51 -260 51q-67 0 -108.5 -55.5t-41.5 -146.5q0 -88 41 -141.5t109 -53.5q117 0 278 74l125 -250q-103 -73 -200 -107t-224 -38v-31q115 -10 157 -49t42 -125q0 -90 -54.5 -147.5 t-156.5 -57.5q-136 0 -274 53l32 150q106 -19 144 -19q32 0 47.5 9t15.5 34q0 34 -15.5 46t-64.5 12h-65l24 139q-164 38 -265 169.5t-101 332.5z" />
<glyph unicode="&#xe8;" horiz-adv-x="1091" d="M41 496q0 252 136 390t388 138q224 0 353 -127.5t129 -353.5q0 -57 -11 -144h-592q9 -56 41.5 -79t100.5 -23q93 0 165 18t185 62l115 -236q-128 -85 -241 -122t-245 -37q-248 0 -386 134t-138 380zM250 1268v82l262 182l279 -363l-101 -106q-248 76 -440 205zM442 600 h242q0 143 -119 143q-46 0 -78.5 -36.5t-44.5 -106.5z" />
<glyph unicode="&#xe9;" horiz-adv-x="1091" d="M41 496q0 252 136 390t388 138q224 0 353 -127.5t129 -353.5q0 -57 -11 -144h-592q9 -56 41.5 -79t100.5 -23q93 0 165 18t185 62l115 -236q-128 -85 -241 -122t-245 -37q-248 0 -386 134t-138 380zM313 1169l279 363l262 -182v-82q-192 -129 -440 -205zM442 600h242 q0 143 -119 143q-46 0 -78.5 -36.5t-44.5 -106.5z" />
<glyph unicode="&#xea;" horiz-adv-x="1091" d="M41 496q0 252 136 390t388 138q224 0 353 -127.5t129 -353.5q0 -57 -11 -144h-592q9 -56 41.5 -79t100.5 -23q93 0 165 18t185 62l115 -236q-128 -85 -241 -122t-245 -37q-248 0 -386 134t-138 380zM172 1176l266 299h217l267 -299l-97 -103l-278 144 q-46 -24 -139.5 -72.5t-139.5 -71.5zM442 600h242q0 143 -119 143q-46 0 -78.5 -36.5t-44.5 -106.5z" />
<glyph unicode="&#xeb;" horiz-adv-x="1091" d="M41 496q0 252 136 390t388 138q224 0 353 -127.5t129 -353.5q0 -57 -11 -144h-592q9 -56 41.5 -79t100.5 -23q93 0 165 18t185 62l115 -236q-128 -85 -241 -122t-245 -37q-248 0 -386 134t-138 380zM117 1280q0 86 58 136t136 50q83 0 139 -49.5t56 -136.5 q0 -86 -56 -135t-139 -49q-77 0 -135.5 49.5t-58.5 134.5zM442 600h242q0 143 -119 143q-46 0 -78.5 -36.5t-44.5 -106.5zM567 1280q0 87 56 136.5t139 49.5q78 0 136 -50t58 -136q0 -85 -58.5 -134.5t-135.5 -49.5q-83 0 -139 49t-56 135z" />
<glyph unicode="&#xec;" horiz-adv-x="598" d="M12 1268v82l262 182l279 -363l-100 -106q-250 77 -441 205zM92 0v1004h414v-1004h-414z" />
<glyph unicode="&#xed;" horiz-adv-x="598" d="M76 1169l278 363l262 -182v-82q-192 -129 -440 -205zM92 0v1004h414v-1004h-414z" />
<glyph unicode="&#xee;" horiz-adv-x="598" d="M-66 1176l267 299h217l266 -299l-96 -103l-279 144q-46 -24 -139 -72.5t-139 -71.5zM92 0v1004h414v-1004h-414z" />
<glyph unicode="&#xef;" horiz-adv-x="598" d="M-121 1280q0 86 58.5 136t136.5 50q83 0 138.5 -49.5t55.5 -136.5q0 -86 -55.5 -135t-138.5 -49q-78 0 -136.5 49.5t-58.5 134.5zM92 0v1004h414v-1004h-414zM330 1280q0 87 55.5 136.5t138.5 49.5q78 0 136.5 -50t58.5 -136q0 -85 -58.5 -134.5t-136.5 -49.5 q-83 0 -138.5 49t-55.5 135z" />
<glyph unicode="&#xf0;" horiz-adv-x="1150" d="M41 498q0 127 55 231.5t163.5 169t252.5 66.5q-24 26 -84 82l-174 -64l-47 133l94 35q-58 43 -86 61v56l418 145q35 -37 96 -106l148 53l47 -133l-95 -35q143 -165 212 -321t69 -373q0 -246 -141 -381t-394 -135t-393.5 134.5t-140.5 381.5zM446 477q0 -174 129 -174 q63 0 96.5 44t33.5 151q0 122 -35 213q-133 -6 -178.5 -55t-45.5 -179z" />
<glyph unicode="&#xf1;" horiz-adv-x="1173" d="M72 0v1004h413v-136q101 83 178.5 118.5t157.5 35.5q154 0 219.5 -87.5t65.5 -291.5v-643h-414v520q0 65 -14 87t-57 22q-64 0 -136 -72v-557h-413zM209 1151q0 91 25.5 156.5t65.5 97.5t90.5 45.5t99 8t92.5 -24.5l110 -54q22 -10 36 -12.5t30 7.5t28 22.5t37 42.5h148 q0 -91 -27.5 -157.5t-70 -99t-95 -46t-102 -8.5t-92.5 24l-113 53q-41 20 -62.5 9.5t-64.5 -64.5h-135z" />
<glyph unicode="&#xf2;" horiz-adv-x="1150" d="M41 498q0 251 140.5 388.5t393.5 137.5t394 -137.5t141 -388.5q0 -246 -141 -381t-394 -135t-393.5 134.5t-140.5 381.5zM289 1268v82l262 182l278 -363l-100 -106q-248 76 -440 205zM446 498q0 -107 33 -151t96 -44t96.5 44t33.5 151q0 111 -33.5 156.5t-96.5 45.5 t-96 -45.5t-33 -156.5z" />
<glyph unicode="&#xf3;" horiz-adv-x="1150" d="M41 498q0 251 140.5 388.5t393.5 137.5t394 -137.5t141 -388.5q0 -246 -141 -381t-394 -135t-393.5 134.5t-140.5 381.5zM352 1169l279 363l262 -182v-82q-192 -129 -440 -205zM446 498q0 -107 33 -151t96 -44t96.5 44t33.5 151q0 111 -33.5 156.5t-96.5 45.5t-96 -45.5 t-33 -156.5z" />
<glyph unicode="&#xf4;" horiz-adv-x="1150" d="M41 498q0 251 140.5 388.5t393.5 137.5t394 -137.5t141 -388.5q0 -246 -141 -381t-394 -135t-393.5 134.5t-140.5 381.5zM211 1176l266 299h217l267 -299l-97 -103l-278 144q-46 -24 -139.5 -72.5t-139.5 -71.5zM446 498q0 -107 33 -151t96 -44t96.5 44t33.5 151 q0 111 -33.5 156.5t-96.5 45.5t-96 -45.5t-33 -156.5z" />
<glyph unicode="&#xf5;" horiz-adv-x="1150" d="M41 498q0 251 140.5 388.5t393.5 137.5t394 -137.5t141 -388.5q0 -246 -141 -381t-394 -135t-393.5 134.5t-140.5 381.5zM197 1130q0 91 25.5 156.5t65.5 97.5t90.5 45.5t98.5 8t92 -24.5l111 -53q22 -10 36 -12.5t30 7t28 22t37 42.5h147q0 -91 -27.5 -157t-70 -99 t-95 -46.5t-102 -8t-92.5 24.5l-112 53q-20 11 -34 14t-29 -5t-28 -22t-36 -43h-135zM446 498q0 -107 33 -151t96 -44t96.5 44t33.5 151q0 111 -33.5 156.5t-96.5 45.5t-96 -45.5t-33 -156.5z" />
<glyph unicode="&#xf6;" horiz-adv-x="1150" d="M41 498q0 251 140.5 388.5t393.5 137.5t394 -137.5t141 -388.5q0 -246 -141 -381t-394 -135t-393.5 134.5t-140.5 381.5zM156 1280q0 86 58 136t136 50q83 0 139 -49.5t56 -136.5q0 -86 -56 -135t-139 -49q-77 0 -135.5 49.5t-58.5 134.5zM446 498q0 -107 33 -151t96 -44 t96.5 44t33.5 151q0 111 -33.5 156.5t-96.5 45.5t-96 -45.5t-33 -156.5zM606 1280q0 87 56 136.5t139 49.5q78 0 136 -50t58 -136q0 -85 -58.5 -134.5t-135.5 -49.5q-83 0 -139 49t-56 135z" />
<glyph unicode="&#xf7;" horiz-adv-x="1050" d="M102 360v297h846v-297h-846zM395 168q0 58 38 96.5t97 38.5q61 0 98.5 -38.5t37.5 -96.5t-37.5 -96.5t-98.5 -38.5q-59 0 -97 38.5t-38 96.5zM395 844q0 58 38 96.5t97 38.5q61 0 98.5 -38.5t37.5 -96.5t-37.5 -96.5t-98.5 -38.5q-59 0 -97 38.5t-38 96.5z" />
<glyph unicode="&#xf8;" horiz-adv-x="1118" d="M45 498q0 251 141 388.5t394 137.5q186 0 321 -80l76 76l104 -105l-71 -71q104 -132 104 -346q0 -247 -140.5 -381.5t-393.5 -134.5q-206 0 -340 90l-82 -82l-105 104l82 82q-90 125 -90 322zM451 492l192 194q-25 14 -63 14q-63 0 -96 -45.5t-33 -156.5v-6zM498 332 q33 -29 82 -29q63 0 96 44t33 151l-2 43z" />
<glyph unicode="&#xf9;" horiz-adv-x="1183" d="M72 360v644h413v-531q0 -64 14.5 -86t57.5 -22q64 0 135 71v568h414v-1004h-414v115q-11 -7 -37.5 -25t-35 -23.5t-30 -19.5t-29.5 -18t-26 -14t-27 -12.5t-24.5 -8.5t-27.5 -7.5t-27 -3t-31 -1.5q-159 0 -242 90t-83 288zM305 1268v82l262 182l279 -363l-101 -106 q-248 76 -440 205z" />
<glyph unicode="&#xfa;" horiz-adv-x="1183" d="M72 360v644h413v-531q0 -64 14.5 -86t57.5 -22q64 0 135 71v568h414v-1004h-414v115q-11 -7 -37.5 -25t-35 -23.5t-30 -19.5t-29.5 -18t-26 -14t-27 -12.5t-24.5 -8.5t-27.5 -7.5t-27 -3t-31 -1.5q-159 0 -242 90t-83 288zM369 1169l278 363l262 -182v-82 q-192 -129 -440 -205z" />
<glyph unicode="&#xfb;" horiz-adv-x="1183" d="M72 360v644h413v-531q0 -64 14.5 -86t57.5 -22q64 0 135 71v568h414v-1004h-414v115q-11 -7 -37.5 -25t-35 -23.5t-30 -19.5t-29.5 -18t-26 -14t-27 -12.5t-24.5 -8.5t-27.5 -7.5t-27 -3t-31 -1.5q-159 0 -242 90t-83 288zM227 1176l267 299h217l266 -299l-96 -103 l-279 144q-46 -24 -139 -72.5t-139 -71.5z" />
<glyph unicode="&#xfc;" horiz-adv-x="1183" d="M72 360v644h413v-531q0 -64 14.5 -86t57.5 -22q64 0 135 71v568h414v-1004h-414v115q-11 -7 -37.5 -25t-35 -23.5t-30 -19.5t-29.5 -18t-26 -14t-27 -12.5t-24.5 -8.5t-27.5 -7.5t-27 -3t-31 -1.5q-159 0 -242 90t-83 288zM172 1280q0 86 58.5 136t136.5 50 q83 0 138.5 -49.5t55.5 -136.5q0 -86 -55.5 -135t-138.5 -49q-78 0 -136.5 49.5t-58.5 134.5zM623 1280q0 87 55.5 136.5t138.5 49.5q78 0 136.5 -50t58.5 -136q0 -85 -58.5 -134.5t-136.5 -49.5q-83 0 -138.5 49t-55.5 135z" />
<glyph unicode="&#xfd;" horiz-adv-x="1196" d="M0 1004h432l123 -359l43 -147q81 187 156 506h442q-170 -549 -293 -805q-98 -203 -263 -338t-409 -211l-135 313q87 35 142.5 65t105.5 76zM375 1169l278 363l262 -182v-82q-192 -129 -440 -205z" />
<glyph unicode="&#xfe;" horiz-adv-x="1185" d="M72 -305v1616h413v-406q82 63 150 90t145 27q186 0 275.5 -123t89.5 -385q0 -136 -30.5 -240.5t-84.5 -167t-122 -93.5t-148 -31q-97 0 -152.5 25t-122.5 89v-401h-413zM485 377q60 -51 133 -51q60 0 88.5 45.5t28.5 142.5q0 160 -112 160q-62 0 -138 -64v-233z" />
<glyph unicode="&#xff;" horiz-adv-x="1196" d="M0 1004h432l123 -359l43 -147q81 187 156 506h442q-170 -549 -293 -805q-98 -203 -263 -338t-409 -211l-135 313q87 35 142.5 65t105.5 76zM178 1280q0 86 58.5 136t136.5 50q83 0 138.5 -49.5t55.5 -136.5q0 -86 -55.5 -135t-138.5 -49q-78 0 -136.5 49.5t-58.5 134.5z M629 1280q0 87 55.5 136.5t138.5 49.5q78 0 136.5 -50t58.5 -136q0 -85 -58.5 -134.5t-136.5 -49.5q-83 0 -138.5 49t-55.5 135z" />
<glyph unicode="&#x152;" horiz-adv-x="1906" d="M51 621q0 310 174.5 479.5t483.5 169.5q101 0 190 -21h924v-354h-551v-115h465v-309h-465v-117h567v-354h-940q-89 -18 -190 -18q-309 0 -483.5 167t-174.5 472zM487 621q0 -126 58.5 -190t163.5 -64q83 0 139 41v434q-55 43 -139 43q-105 0 -163.5 -66t-58.5 -198z" />
<glyph unicode="&#x153;" horiz-adv-x="1755" d="M41 498q0 251 140.5 388.5t393.5 137.5q200 0 330 -86q127 86 324 86q224 0 352.5 -127.5t128.5 -353.5q0 -65 -10 -144h-592q9 -57 41 -79.5t100 -22.5q93 0 165 18t185 62l115 -236q-128 -85 -240.5 -122t-244.5 -37q-196 0 -324 84q-131 -84 -330 -84 q-253 0 -393.5 134.5t-140.5 381.5zM446 498q0 -107 33 -151t96 -44t96.5 44t33.5 151q0 111 -33.5 156.5t-96.5 45.5t-96 -45.5t-33 -156.5zM1106 600h242q0 143 -119 143q-46 0 -78.5 -36.5t-44.5 -106.5z" />
<glyph unicode="&#x178;" horiz-adv-x="1384" d="M10 1249h451l137 -266q46 -82 94 -203q48 121 94 203l138 266h450l-467 -882v-367h-430v367zM283 1516q0 82 55.5 130t128.5 48q80 0 133 -47.5t53 -130.5q0 -82 -53 -129.5t-133 -47.5q-73 0 -128.5 48.5t-55.5 128.5zM731 1516q0 83 53.5 130.5t133.5 47.5 q73 0 128.5 -48t55.5 -130q0 -80 -55.5 -128.5t-128.5 -48.5q-80 0 -133.5 47.5t-53.5 129.5z" />
<glyph unicode="&#x2c6;" horiz-adv-x="1024" d="M147 1176l267 299h217l266 -299l-96 -103l-279 144q-46 -24 -139 -72.5t-139 -71.5z" />
<glyph unicode="&#x2dc;" horiz-adv-x="1024" d="M135 1151q0 91 25.5 156.5t65.5 97.5t90.5 45.5t99 8t92.5 -24.5l110 -54q22 -10 36.5 -12t30.5 7.5t28 22t37 42.5h147q0 -91 -27.5 -157.5t-70 -99t-95 -46t-102 -8.5t-92.5 24l-113 53q-41 20 -62.5 9.5t-64.5 -64.5h-135z" />
<glyph unicode="&#x2000;" horiz-adv-x="892" />
<glyph unicode="&#x2001;" horiz-adv-x="1784" />
<glyph unicode="&#x2002;" horiz-adv-x="892" />
<glyph unicode="&#x2003;" horiz-adv-x="1784" />
<glyph unicode="&#x2004;" horiz-adv-x="594" />
<glyph unicode="&#x2005;" horiz-adv-x="446" />
<glyph unicode="&#x2006;" horiz-adv-x="297" />
<glyph unicode="&#x2007;" horiz-adv-x="297" />
<glyph unicode="&#x2008;" horiz-adv-x="223" />
<glyph unicode="&#x2009;" horiz-adv-x="356" />
<glyph unicode="&#x200a;" horiz-adv-x="99" />
<glyph unicode="&#x2010;" horiz-adv-x="856" d="M106 375v368h644v-368h-644z" />
<glyph unicode="&#x2011;" horiz-adv-x="856" d="M106 375v368h644v-368h-644z" />
<glyph unicode="&#x2012;" horiz-adv-x="856" d="M106 375v368h644v-368h-644z" />
<glyph unicode="&#x2013;" horiz-adv-x="1019" d="M106 395v307h807v-307h-807z" />
<glyph unicode="&#x2014;" horiz-adv-x="1941" d="M106 395v307h1729v-307h-1729z" />
<glyph unicode="&#x2018;" d="M72 872q0 124 103 258.5t269 221.5l95 -121q-63 -44 -98 -78t-60 -80q72 -23 115 -83.5t43 -139.5q0 -100 -65.5 -167t-168.5 -67t-168 73t-65 183z" />
<glyph unicode="&#x2019;" d="M72 737q62 43 97 77t60 81q-72 23 -114.5 83.5t-42.5 139.5q0 100 65 167t168 67t168.5 -73t65.5 -183q0 -124 -103.5 -258.5t-269.5 -221.5z" />
<glyph unicode="&#x201a;" d="M72 -166q62 43 97 77t60 81q-72 23 -114.5 83.5t-42.5 139.5q0 100 65 167t168 67t168.5 -73t65.5 -183q0 -124 -103.5 -258.5t-269.5 -221.5z" />
<glyph unicode="&#x201c;" horiz-adv-x="1142" d="M72 872q0 124 103 258.5t269 221.5l95 -121q-63 -44 -98 -78t-60 -80q72 -23 115 -83.5t43 -139.5q0 -100 -65.5 -167t-168.5 -67t-168 73t-65 183zM604 872q0 124 103.5 258.5t269.5 221.5l94 -121q-63 -44 -98 -78t-60 -80q72 -23 115 -83.5t43 -139.5q0 -100 -65 -167 t-168 -67t-168.5 73t-65.5 183z" />
<glyph unicode="&#x201d;" horiz-adv-x="1142" d="M72 737q62 43 97 77t60 81q-72 23 -114.5 83.5t-42.5 139.5q0 100 65 167t168 67t168.5 -73t65.5 -183q0 -124 -103.5 -258.5t-269.5 -221.5zM604 737q63 44 98 78t60 80q-72 23 -115 83.5t-43 139.5q0 100 65.5 167t168.5 67t168 -73t65 -183q0 -124 -103.5 -258.5 t-269.5 -221.5z" />
<glyph unicode="&#x201e;" horiz-adv-x="1142" d="M72 -166q62 43 97 77t60 81q-72 23 -114.5 83.5t-42.5 139.5q0 100 65 167t168 67t168.5 -73t65.5 -183q0 -124 -103.5 -258.5t-269.5 -221.5zM604 -166q63 44 98 78t60 80q-72 23 -115 83.5t-43 139.5q0 100 65.5 167t168.5 67t168 -73t65 -183q0 -124 -103.5 -258.5 t-269.5 -221.5z" />
<glyph unicode="&#x2022;" horiz-adv-x="751" d="M72 537q0 131 85 218t220 87q133 0 218 -87t85 -218q0 -129 -85 -216.5t-218 -87.5q-135 0 -220 87t-85 217z" />
<glyph unicode="&#x2026;" horiz-adv-x="1830" d="M72 215q0 100 65 167t168 67t168.5 -67t65.5 -167t-65.5 -166.5t-168.5 -66.5t-168 66.5t-65 166.5zM682 215q0 100 65 167t168 67t168.5 -67t65.5 -167t-65.5 -166.5t-168.5 -66.5t-168 66.5t-65 166.5zM1292 215q0 100 65.5 167t168.5 67t168 -67t65 -167t-65 -166.5 t-168 -66.5t-168.5 66.5t-65.5 166.5z" />
<glyph unicode="&#x202f;" horiz-adv-x="356" />
<glyph unicode="&#x2039;" horiz-adv-x="808" d="M41 539l479 450l207 -207l-178 -176q-27 -27 -80 -69q58 -46 82 -70l176 -178l-205 -201z" />
<glyph unicode="&#x203a;" horiz-adv-x="808" d="M82 289l176 178q24 24 82 70q-53 42 -80 69l-178 176l207 207l479 -450l-481 -451z" />
<glyph unicode="&#x205f;" horiz-adv-x="446" />
<glyph unicode="&#x20ac;" horiz-adv-x="1118" d="M20 422v102h89v41v41h-89v103h101q37 204 174 324t338 120q114 0 214 -25.5t226 -87.5l-112 -270q-159 53 -265 53q-117 0 -155 -114h327l-41 -103h-303l-2 -41v-41h285l-41 -102h-227q19 -66 57 -89.5t100 -23.5q121 0 283 76l129 -256q-115 -80 -221 -113.5t-254 -33.5 q-75 0 -143 16.5t-129 51.5t-109 86t-82 124t-49 162h-101z" />
<glyph unicode="&#x2122;" horiz-adv-x="1628" d="M20 1034v215h627v-215h-188v-411h-246v411h-193zM682 623l27 626h268l119 -288q4 -11 10 -31.5t8 -24.5q1 4 6 24.5t10 31.5l119 288h267l30 -626h-241l-5 262l-100 -262h-174l-100 262l-6 -262h-238z" />
<glyph unicode="&#x25fc;" horiz-adv-x="1003" d="M0 0v1004h1004v-1004h-1004z" />
<glyph unicode="&#xfb03;" horiz-adv-x="2136" d="M10 659v345h133v10q0 210 106.5 305.5t332.5 95.5q99 0 229 -26l-29 -285h-118q-59 0 -83 -24.5t-24 -69.5v-6h332v12q0 210 105.5 304.5t332.5 94.5q69 0 199 -26l-29 -285h-88q-106 0 -106 -90v-10h735v-1004h-414v659h-321v-659h-414v659h-332v-659h-414v659h-133z M1604 1296q0 100 68 155.5t165 55.5t165.5 -55.5t68.5 -155.5t-68.5 -155.5t-165.5 -55.5t-165 55.5t-68 155.5z" />
<glyph unicode="&#xfb04;" horiz-adv-x="2088" d="M10 659v345h133v10q0 210 106.5 305.5t332.5 95.5q99 0 229 -26l-29 -285h-118q-59 0 -83 -24.5t-24 -69.5v-6h311v12q0 210 106 304.5t333 94.5q105 0 297 -49v27h413v-1393h-413v1104h-215q-107 0 -107 -88v-12h223v-345h-223v-659h-414v659h-311v-659h-414v659h-133z " />
</font>
</defs>
</svg>
