<?xml version="1.0" standalone="no"?>
<!DOCTYPE svg PUBLIC "-//W3C//DTD SVG 1.1//EN" "http://www.w3.org/Graphics/SVG/1.1/DTD/svg11.dtd" >
<svg xmlns="http://www.w3.org/2000/svg">
<metadata></metadata>
<defs>
<font id="gentonabook" horiz-adv-x="1050" >
<font-face units-per-em="2048" ascent="1638" descent="-410" />
<missing-glyph horiz-adv-x="450" />
<glyph unicode="&#xfb01;" horiz-adv-x="1150" d="M43 811v156h139v75q0 171 75.5 252.5t244.5 81.5q64 0 223 -24l-16 -138q-129 11 -177 11q-94 0 -129.5 -43.5t-35.5 -139.5v-75h632v-967h-184v811h-448v-811h-185v811h-139zM801 1247q0 49 31.5 76t78.5 27t79 -27t32 -76q0 -47 -32 -74.5t-79 -27.5t-78.5 27t-31.5 75 z" />
<glyph unicode="&#xfb02;" horiz-adv-x="1140" d="M43 811v156h139v75q0 171 75.5 252.5t244.5 81.5q83 0 311 -43v35h184v-1368h-184v1204q-177 21 -281 21q-94 0 -129.5 -43.5t-35.5 -139.5v-75h292v-156h-292v-811h-185v811h-139z" />
<glyph horiz-adv-x="2048" />
<glyph horiz-adv-x="2048" />
<glyph unicode="&#xd;" horiz-adv-x="2048" />
<glyph unicode=" "  horiz-adv-x="450" />
<glyph unicode="&#x09;" horiz-adv-x="450" />
<glyph unicode="&#xa0;" horiz-adv-x="450" />
<glyph unicode="!" horiz-adv-x="450" d="M125 1249h199l-27 -841h-145zM129 90q0 42 27 69t69 27q44 0 70.5 -27t26.5 -69t-27 -70t-70 -28q-42 0 -69 28t-27 70z" />
<glyph unicode="&#x22;" horiz-adv-x="653" d="M123 813v524h172l-49 -524h-123zM371 813v524h172l-49 -524h-123z" />
<glyph unicode="#" horiz-adv-x="1415" d="M88 264l27 135h241l78 330h-239l26 135h244l61 262h150l-62 -262h324l61 262h150l-62 -262h252l-26 -135h-256l-78 -330h254l-27 -135h-258l-61 -264h-150l62 264h-324l-61 -264h-150l62 264h-238zM506 399h323l78 330h-323z" />
<glyph unicode="$" horiz-adv-x="1083" d="M66 154l67 131q204 -160 434 -160q106 0 167 44t61 116q0 75 -63 117.5t-257 105.5q-200 64 -276 134t-76 196q0 122 90 198t246 82v133h127v-137q155 -19 346 -100l-45 -131q-236 98 -385 98q-91 0 -146 -39.5t-55 -103.5q0 -72 57.5 -109.5t251.5 -97.5 q203 -61 284 -137t81 -203q0 -136 -104.5 -220.5t-284.5 -88.5v-117h-125v123q-216 27 -395 166z" />
<glyph unicode="%" horiz-adv-x="1726" d="M84 895q0 185 78.5 280t232.5 95t234 -95.5t80 -279.5q0 -183 -80 -277t-234 -94t-232.5 94t-78.5 277zM209 895q0 -258 186 -258q189 0 189 258q0 262 -189 262q-186 0 -186 -262zM434 0l725 1249h115l-727 -1249h-113zM1018 352q0 184 79.5 279.5t233.5 95.5t232.5 -95 t78.5 -280q0 -183 -78.5 -276.5t-232.5 -93.5t-233.5 93.5t-79.5 276.5zM1145 352q0 -256 186 -256q187 0 187 256q0 262 -187 262q-186 0 -186 -262z" />
<glyph unicode="&#x26;" horiz-adv-x="1323" d="M94 338q0 105 68 178.5t223 145.5q-94 89 -130 158.5t-36 154.5q0 136 99.5 215.5t269.5 79.5q155 0 247.5 -80.5t92.5 -220.5q0 -104 -66.5 -192t-210.5 -146l314 -254q44 61 129 213l125 -76q-80 -147 -140 -231l193 -156l-88 -127l-197 162q-89 -97 -185 -138.5 t-220 -41.5q-233 0 -360.5 92t-127.5 264zM274 358q0 -110 85 -170.5t223 -60.5q86 0 155 31t133 100l-374 309q-118 -53 -170 -99t-52 -110zM387 969q0 -64 32.5 -116.5t115.5 -127.5q142 58 195.5 110t53.5 123q0 90 -52 138.5t-142 48.5t-146.5 -47.5t-56.5 -128.5z" />
<glyph unicode="'" horiz-adv-x="403" d="M133 813v524h172l-49 -524h-123z" />
<glyph unicode="(" horiz-adv-x="647" d="M166 498q0 476 313 854l115 -70q-260 -368 -260 -784q0 -417 260 -785l-115 -69q-313 378 -313 854z" />
<glyph unicode=")" horiz-adv-x="641" d="M59 -287q260 363 260 785q0 421 -260 784l115 70q313 -378 313 -854t-313 -854z" />
<glyph unicode="*" horiz-adv-x="864" d="M100 977l29 88l240 -70l12 254h100l15 -256l239 72l31 -88l-236 -98l154 -205l-72 -62l-180 195l-182 -195l-70 62l152 205z" />
<glyph unicode="+" horiz-adv-x="972" d="M74 418v137h342v342h135v-342h344v-137h-344v-340h-135v340h-342z" />
<glyph unicode="," horiz-adv-x="524" d="M117 -207q59 50 86.5 97.5t40.5 107.5q-38 9 -61 37.5t-23 68.5q0 50 30 81.5t80 31.5t81.5 -35t31.5 -88q0 -95 -54.5 -188.5t-162.5 -167.5z" />
<glyph unicode="-" horiz-adv-x="806" d="M129 494v163h549v-163h-549z" />
<glyph unicode="." horiz-adv-x="507" d="M141 104q0 50 31 81.5t82 31.5t82 -31.5t31 -81.5q0 -48 -31.5 -80t-81.5 -32t-81.5 32t-31.5 80z" />
<glyph unicode="/" horiz-adv-x="860" d="M63 -422l533 1778h160l-537 -1778h-156z" />
<glyph unicode="0" horiz-adv-x="1259" d="M96 623q0 314 136 480.5t397 166.5q262 0 398 -166.5t136 -480.5q0 -310 -136 -475.5t-398 -165.5q-261 0 -397 165.5t-136 475.5zM287 623q0 -231 85.5 -351t256.5 -120q344 0 344 471q0 477 -344 477q-342 0 -342 -477z" />
<glyph unicode="1" horiz-adv-x="991" d="M125 1071q213 80 354 178h148v-1089h264v-160h-758v160h307v874q-149 -54 -278 -78z" />
<glyph unicode="2" horiz-adv-x="1064" d="M68 1137q282 133 503 133q191 0 300.5 -105.5t109.5 -287.5q0 -60 -18.5 -117.5t-65.5 -117.5t-87 -104.5t-124.5 -111.5t-133.5 -103.5t-156 -113.5q-52 -38 -79 -57q140 8 195 8h496v-160h-928v135q56 46 133 107.5t130.5 103.5t118 96t108.5 94t88.5 87t70.5 86.5 t42.5 81.5t16.5 81q0 114 -65 176t-182 62q-194 0 -420 -109z" />
<glyph unicode="3" horiz-adv-x="1091" d="M53 106l53 132q111 -54 232.5 -79.5t226.5 -25.5q128 0 204.5 57t76.5 156q0 108 -85.5 161.5t-244.5 53.5h-180v160h180q151 0 225 42t74 132q0 101 -70.5 161t-189.5 60q-194 0 -428 -98l-43 127q251 119 494 119q182 0 296.5 -95t114.5 -249q0 -101 -56.5 -174 t-148.5 -105q121 -41 181.5 -113t60.5 -186q0 -165 -123.5 -262.5t-331.5 -97.5q-129 0 -267 31.5t-251 92.5z" />
<glyph unicode="4" horiz-adv-x="1226" d="M57 422l731 827h187v-809h209v-161h-209v-279h-187v279h-725zM274 440h514v582q-58 -78 -104 -129l-289 -324q-66 -78 -121 -129z" />
<glyph unicode="5" horiz-adv-x="1112" d="M53 106l53 138q220 -103 439 -103q137 0 223 69t86 185q0 108 -76 175t-203 67q-137 0 -286 -84l-156 25l47 671h807v-159h-645l-33 -404q166 78 320 78q186 0 295.5 -102t109.5 -275q0 -187 -130.5 -296t-336.5 -109q-129 0 -265 31.5t-249 92.5z" />
<glyph unicode="6" horiz-adv-x="1165" d="M96 573q0 316 168.5 505.5t437.5 191.5q181 0 342 -68l-47 -135q-152 49 -286 49q-190 -2 -306 -133.5t-126 -359.5q148 178 403 178q188 0 302 -106t114 -283q0 -202 -127 -316t-342 -114q-260 0 -396.5 155t-136.5 436zM285 473q22 -165 108.5 -252.5t235.5 -87.5 q129 0 211 76t82 211q0 118 -80 187t-213 69q-115 0 -206.5 -56.5t-137.5 -146.5z" />
<glyph unicode="7" horiz-adv-x="950" d="M25 1090v159h913v-141q-169 -216 -312.5 -517t-219.5 -591h-220q89 295 233 589.5t312 500.5h-706z" />
<glyph unicode="8" horiz-adv-x="1191" d="M72 338q0 223 286 315q-229 89 -229 285q0 154 128 243t349 89q212 0 333.5 -87.5t121.5 -236.5q0 -203 -254 -280q161 -47 237 -126.5t76 -201.5q0 -168 -138.5 -262t-377.5 -94q-263 0 -397.5 92.5t-134.5 263.5zM252 350q0 -105 91 -164t247 -59q153 0 242.5 58.5 t89.5 160.5q0 98 -89 157.5t-307 100.5q-149 -37 -211.5 -102t-62.5 -152zM311 940q0 -89 72 -143.5t238 -89.5q141 30 203.5 89t62.5 148q0 90 -79.5 145.5t-209.5 55.5q-129 0 -208 -57t-79 -148z" />
<glyph unicode="9" horiz-adv-x="1165" d="M68 840q0 203 129 316.5t352 113.5q248 0 380 -155.5t132 -436.5q0 -340 -149 -518t-427 -178q-115 0 -186.5 17.5t-161.5 63.5l49 134q148 -60 293 -60q191 0 291 123t109 361q-148 -175 -396 -175q-187 0 -301 108.5t-114 285.5zM244 831q0 -118 80 -187t213 -69 q107 0 195 54.5t142 138.5q-19 170 -102 260t-223 90q-137 0 -221 -75.5t-84 -211.5z" />
<glyph unicode=":" horiz-adv-x="507" d="M141 104q0 50 31 81.5t82 31.5t82 -31.5t31 -81.5q0 -48 -31.5 -80t-81.5 -32t-81.5 32t-31.5 80zM141 782q0 50 31 81.5t82 31.5t82 -31.5t31 -81.5q0 -48 -31.5 -80t-81.5 -32t-81.5 32t-31.5 80z" />
<glyph unicode=";" horiz-adv-x="524" d="M106 -207q59 50 86.5 97.5t40.5 107.5q-38 9 -60.5 37.5t-22.5 68.5q0 50 30 81.5t80 31.5t81.5 -35t31.5 -88q0 -95 -54.5 -188.5t-162.5 -167.5zM143 782q0 48 30.5 80.5t80.5 32.5t81.5 -32.5t31.5 -80.5q0 -50 -31 -81t-82 -31t-81 31t-30 81z" />
<glyph unicode="&#x3c;" horiz-adv-x="823" d="M102 504l514 422l86 -101l-327 -270q-13 -8 -36.5 -25.5t-35.5 -25.5l74 -53l325 -271l-84 -96z" />
<glyph unicode="=" horiz-adv-x="952" d="M74 293v121h800v-121h-800zM74 598v121h800v-121h-800z" />
<glyph unicode="&#x3e;" horiz-adv-x="827" d="M133 180l326 271l73 53q-13 8 -35.5 25.5t-35.5 25.5l-328 270l86 101l514 -422l-516 -420z" />
<glyph unicode="?" d="M47 1137q282 133 504 133q184 0 297 -104.5t113 -274.5q0 -146 -113 -242t-324 -131l6 -145h-151l-27 282q200 15 308 71.5t108 145.5q0 103 -68 165.5t-180 62.5q-194 0 -420 -109zM360 90q0 42 27 69t70 27q44 0 70 -27t26 -69t-26.5 -70t-69.5 -28q-42 0 -69.5 28 t-27.5 70z" />
<glyph unicode="@" horiz-adv-x="1865" d="M96 420q0 251 111.5 445t308.5 299.5t447 105.5q182 0 333 -55t255 -153.5t161 -238.5t57 -307q-1 -121 -26.5 -216.5t-65 -153.5t-91.5 -96.5t-101.5 -53t-100.5 -14.5q-82 0 -135 31.5t-73 111.5q-84 -76 -159 -109.5t-183 -33.5q-340 0 -340 446q0 224 95 331t267 107 q159 0 309 -104v88h160v-627q0 -80 24 -112.5t74 -32.5q34 0 67 13t67.5 46t60.5 81t43 125t18 173q0 304 -193.5 487t-522.5 183q-227 0 -403.5 -95t-275 -270t-98.5 -401q0 -333 204 -533t538 -200q271 0 495 116l35 -69q-105 -65 -243 -101t-287 -36q-185 0 -340.5 59.5 t-263.5 166.5t-168 260.5t-60 336.5zM649 428q0 -174 60.5 -245.5t175.5 -71.5q79 0 138.5 35t141.5 110v356q-71 61 -130 89t-130 28q-256 0 -256 -301z" />
<glyph unicode="A" horiz-adv-x="1351" d="M31 0l520 1249h252l520 -1249h-203l-121 295h-645l-121 -295h-202zM424 469h504l-205 498q-27 73 -47 149q-20 -76 -47 -149z" />
<glyph unicode="B" horiz-adv-x="1220" d="M172 0v1249h420q239 0 354 -84.5t115 -259.5q0 -94 -51.5 -158t-149.5 -94q139 -32 211 -111t72 -194q0 -178 -129 -263t-398 -85h-444zM360 178h261q167 0 247 44t80 136q0 95 -74 147t-210 52h-304v-379zM360 731h304q104 0 161.5 42t57.5 118q0 94 -71 138t-220 44 h-232v-342z" />
<glyph unicode="C" horiz-adv-x="1271" d="M96 623q0 311 158.5 479t450.5 168q116 0 235.5 -28.5t208.5 -80.5l-59 -143q-180 76 -379 76q-207 0 -314.5 -119.5t-107.5 -351.5q0 -220 106.5 -342.5t296.5 -122.5q241 0 434 121l72 -146q-210 -151 -514 -151q-278 0 -433 167.5t-155 473.5z" />
<glyph unicode="D" horiz-adv-x="1339" d="M172 0v1249h393q325 0 501.5 -159.5t176.5 -454.5q0 -305 -176.5 -470t-501.5 -165h-393zM360 176h205q233 0 359.5 119.5t126.5 339.5q0 211 -126.5 324.5t-359.5 113.5h-205v-897z" />
<glyph unicode="E" horiz-adv-x="1155" d="M172 0v1249h844v-176h-656v-358h572v-176h-572v-363h674v-176h-862z" />
<glyph unicode="F" horiz-adv-x="1069" d="M172 0v1249h825v-176h-637v-391h555v-176h-555v-506h-188z" />
<glyph unicode="G" horiz-adv-x="1370" d="M96 623q0 301 159.5 474t440.5 173q267 0 496 -92l-53 -156q-210 72 -426 72q-203 0 -313.5 -122.5t-110.5 -346.5q0 -227 102 -347t287 -120q122 0 216 21t177 75v223h-420v172h600v-497q-142 -89 -281.5 -129.5t-299.5 -40.5q-268 0 -421 168t-153 473z" />
<glyph unicode="H" horiz-adv-x="1398" d="M172 0v1249h188v-524h678v524h189v-1249h-189v549h-678v-549h-188z" />
<glyph unicode="I" horiz-adv-x="532" d="M172 0v1249h188v-1249h-188z" />
<glyph unicode="J" horiz-adv-x="983" d="M43 88l53 154q56 -24 89.5 -36.5t92.5 -26t113 -13.5q107 0 172.5 73t65.5 193v817h188v-817q0 -203 -106 -326.5t-281 -123.5q-177 0 -387 106z" />
<glyph unicode="K" horiz-adv-x="1306" d="M172 0v1249h188v-686l637 686h224v-12l-478 -518l512 -705v-14h-208l-426 582l-261 -285v-297h-188z" />
<glyph unicode="L" horiz-adv-x="1038" d="M172 0v1249h188v-1069h613v-180h-801z" />
<glyph unicode="M" horiz-adv-x="1710" d="M170 0l45 1249h227l385 -899q13 -29 27 -76q10 33 29 76l385 899h229l45 -1249h-192l-27 838v67l-393 -905h-150l-391 905v-63l-29 -842h-190z" />
<glyph unicode="N" horiz-adv-x="1413" d="M172 0v1249h172l709 -932v932h188v-1249h-172l-709 928v-928h-188z" />
<glyph unicode="O" horiz-adv-x="1382" d="M96 623q0 311 155.5 479t438.5 168q284 0 440 -168t156 -479q0 -307 -156 -474t-440 -167q-282 0 -438 167t-156 474zM289 623q0 -227 104 -346t297 -119q195 0 299.5 119t104.5 346q0 230 -104.5 350.5t-299.5 120.5q-193 0 -297 -120.5t-104 -350.5z" />
<glyph unicode="P" horiz-adv-x="1179" d="M172 0v1249h432q246 0 379 -115.5t133 -330.5q0 -214 -131 -329.5t-373 -115.5h-252v-358h-188zM360 535h250q156 -1 240 69q83 69 82 196q0 132 -85.5 202.5t-242.5 70.5h-244v-538z" />
<glyph unicode="Q" horiz-adv-x="1366" d="M96 623q0 312 152.5 479.5t435.5 167.5q282 0 434 -167.5t152 -479.5q0 -308 -152.5 -474.5t-433.5 -166.5q-283 0 -435.5 166.5t-152.5 474.5zM289 623q0 -229 100.5 -347t294.5 -118q192 0 292.5 118.5t100.5 346.5q0 231 -100.5 351t-292.5 120q-194 0 -294.5 -120 t-100.5 -351zM551 -207l37 109q147 -73 277.5 -103t312.5 -30v-150q-352 0 -627 174z" />
<glyph unicode="R" horiz-adv-x="1226" d="M172 0v1249h461q247 0 380.5 -112.5t133.5 -319.5q0 -146 -81.5 -251t-223.5 -148l334 -404v-14h-207l-318 393h-291v-393h-188zM360 569h277q152 0 234.5 64.5t82.5 183.5q0 121 -82.5 187.5t-234.5 68.5h-277v-504z" />
<glyph unicode="S" horiz-adv-x="1124" d="M63 137l74 148q124 -60 249 -95.5t218 -35.5q100 0 158.5 41t58.5 118q0 99 -65 147.5t-267 108.5q-52 15 -84 26t-75 29t-69.5 35.5t-55.5 45t-45 59t-26.5 75t-10.5 95.5q0 151 108.5 243.5t292.5 92.5q224 0 457 -99l-57 -151q-209 84 -402 84q-94 0 -149.5 -45.5 t-55.5 -106.5q0 -39 12.5 -68.5t27.5 -48t57.5 -39t71.5 -31t101 -33.5q41 -14 64 -21q73 -24 122 -44.5t99 -52t79 -67.5t47 -88t18 -117q0 -90 -32 -160.5t-88 -113t-128 -64.5t-156 -22q-128 0 -278 43.5t-271 111.5z" />
<glyph unicode="T" horiz-adv-x="1118" d="M29 1073v176h1061v-176h-437v-1073h-188v1073h-436z" />
<glyph unicode="U" horiz-adv-x="1357" d="M147 569v680h189v-680q0 -197 89.5 -302t254.5 -105q166 0 255 104.5t89 302.5v680h188v-680q0 -282 -138.5 -434.5t-393.5 -152.5t-394 152.5t-139 434.5z" />
<glyph unicode="V" horiz-adv-x="1306" d="M31 1249h211l364 -907q30 -82 47 -154q17 63 47 154l373 907h205l-516 -1249h-217z" />
<glyph unicode="W" horiz-adv-x="1826" d="M31 1249h211l250 -907q19 -88 28 -172q14 69 37 172l252 907h209l252 -907q23 -102 35 -170q14 99 30 170l252 907h211l-360 -1249h-275l-219 817q-1 7 -13 63t-18 91q-5 -34 -28 -154l-221 -817h-275z" />
<glyph unicode="X" horiz-adv-x="1239" d="M41 0l430 637l-418 612h232l301 -442q11 -15 35 -53q7 15 32 53l301 442h230l-420 -612l434 -637h-227l-318 475q-26 39 -32 51q-6 -9 -18 -26.5t-17 -24.5l-318 -475h-227z" />
<glyph unicode="Y" horiz-adv-x="1187" d="M37 1249h192l318 -555q20 -34 47 -106q16 49 47 106l317 555h193l-463 -839v-410h-188v410z" />
<glyph unicode="Z" horiz-adv-x="1204" d="M100 0v145l766 934q-23 -1 -65 -2.5t-76 -2.5t-63 -1h-523v176h969v-153l-741 -926q22 1 63.5 2.5t74 2.5t58.5 1h555v-176h-1018z" />
<glyph unicode="[" horiz-adv-x="741" d="M197 -360v1712h489v-146h-321v-1421h321v-145h-489z" />
<glyph unicode="\" horiz-adv-x="860" d="M117 1356h159l533 -1778h-156z" />
<glyph unicode="]" horiz-adv-x="741" d="M70 -215h321v1421h-321v146h489v-1712h-489v145z" />
<glyph unicode="^" horiz-adv-x="976" d="M100 702l328 635h121l328 -635h-148l-184 373q-41 73 -56 131h-4q-18 -68 -53 -131l-184 -373h-148z" />
<glyph unicode="_" horiz-adv-x="952" d="M117 -106h719v-138h-719v138z" />
<glyph unicode="`" horiz-adv-x="999" d="M270 1354l152 96l223 -287l-59 -59q-104 55 -163.5 96.5t-150.5 116.5z" />
<glyph unicode="a" d="M76 274q0 310 403 310q168 0 258 -2q0 142 -40 190.5t-162 48.5q-127 0 -332 -51l-31 150q247 65 393 65q199 0 278 -93.5t79 -311.5v-580h-185v121q-81 -66 -157 -102.5t-177 -36.5q-166 0 -246.5 69t-80.5 223zM246 293q0 -174 211 -174q74 0 147.5 40.5t132.5 106.5 v185h-235q-135 0 -195.5 -34t-60.5 -124z" />
<glyph unicode="b" horiz-adv-x="1155" d="M143 0v1337h185v-503q159 149 358 149q185 0 284 -118t99 -378q0 -106 -22 -192t-60 -143.5t-90.5 -96.5t-110 -56t-122.5 -17q-113 0 -184.5 35t-151.5 110v-127h-185zM328 299q149 -164 282 -164q57 0 105.5 19.5t88 60t62.5 110t23 162.5q0 342 -260 342 q-150 0 -301 -163v-367z" />
<glyph unicode="c" horiz-adv-x="1013" d="M86 477q0 229 131 368.5t346 139.5q193 0 352 -94l-63 -125q-128 63 -287 63q-134 0 -215.5 -97t-81.5 -255q0 -154 79.5 -246t211.5 -92q91 0 164 23t162 82l67 -123q-105 -79 -195.5 -109t-221.5 -30q-201 0 -325 136.5t-124 358.5z" />
<glyph unicode="d" horiz-adv-x="1157" d="M86 487q0 258 101.5 378t281.5 120q207 0 360 -143v495h185v-1337h-185v127q-80 -75 -152 -110t-185 -35q-82 0 -152.5 28.5t-128.5 86.5t-91.5 158t-33.5 232zM268 487q0 -93 22.5 -162.5t62 -110t87.5 -60t105 -19.5q61 0 115.5 25.5t87 55.5t81.5 83v367 q-137 163 -301 163q-260 0 -260 -342z" />
<glyph unicode="e" horiz-adv-x="1073" d="M86 475q0 130 35 229t99 160t148 91t187 30q201 0 313.5 -122t116.5 -347q0 -47 -6 -84h-717q11 -157 88.5 -230t204.5 -73q97 0 177.5 27.5t172.5 91.5l68 -119q-100 -79 -197.5 -113t-228.5 -34q-209 0 -335 122.5t-126 370.5zM266 575h555q-10 127 -78.5 194 t-187.5 67q-115 0 -192.5 -64t-96.5 -197z" />
<glyph unicode="f" horiz-adv-x="675" d="M43 811v156h135v75q0 171 77 252.5t247 81.5q112 0 188 -18l-14 -139q-64 6 -144 6q-95 0 -132.5 -44t-37.5 -139v-75h297v-156h-297v-811h-184v811h-135z" />
<glyph unicode="g" horiz-adv-x="1126" d="M86 494q0 491 383 491q186 0 360 -141v123h185l-2 -820q0 -244 -115 -359.5t-326 -115.5q-240 0 -428 103l54 139q174 -78 352 -78q138 0 208 71.5t70 239.5v41q-74 -75 -150.5 -110t-193.5 -35q-84 0 -154.5 26.5t-125.5 79.5t-86 141.5t-31 203.5zM266 494 q0 -83 22.5 -144t62.5 -95.5t88 -50.5t106 -16q87 0 148.5 42t133.5 124v312q-77 82 -147.5 122.5t-153.5 40.5q-125 0 -192.5 -77.5t-67.5 -257.5z" />
<glyph unicode="h" horiz-adv-x="1138" d="M143 0v1337h185v-524q175 170 374 170q162 0 232 -90t70 -289v-604h-185v549q0 141 -33.5 197.5t-138.5 56.5q-165 0 -319 -178v-625h-185z" />
<glyph unicode="i" horiz-adv-x="481" d="M129 1247q0 49 32 76t79 27t78.5 -27t31.5 -76q0 -48 -32 -75t-78 -27q-47 0 -79 27.5t-32 74.5zM150 0v967h184v-967h-184z" />
<glyph unicode="j" horiz-adv-x="481" d="M29 -201q71 35 94.5 87t23.5 173v908h185v-908q0 -178 -58 -273t-204 -132zM129 1247q0 49 32 76t79 27t78.5 -27t31.5 -76q0 -48 -32 -75t-78 -27q-47 0 -79 27.5t-32 74.5z" />
<glyph unicode="k" horiz-adv-x="1073" d="M143 0v1337h185v-827l454 457h226v-13l-379 -383l432 -557v-14h-217l-350 436l-166 -168v-268h-185z" />
<glyph unicode="l" horiz-adv-x="468" d="M143 0v1337h185v-1337h-185z" />
<glyph unicode="m" horiz-adv-x="1732" d="M143 0v967h185l-2 -144q82 78 159.5 119t167.5 41q225 0 283 -186q98 100 180 143t174 43q155 0 231 -92.5t76 -286.5v-604h-184v559q0 136 -31.5 194t-121.5 58q-131 0 -295 -170v-641h-185v559q0 135 -33.5 193.5t-123.5 58.5q-144 0 -295 -170v-641h-185z" />
<glyph unicode="n" horiz-adv-x="1138" d="M143 0v967h185v-142q86 78 169.5 118t184.5 40q165 0 243.5 -91.5t78.5 -287.5v-604h-185v559q0 141 -33.5 196.5t-138.5 55.5q-171 0 -319 -172v-639h-185z" />
<glyph unicode="o" horiz-adv-x="1142" d="M86 477q0 229 133.5 368.5t351.5 139.5t352 -139.5t134 -368.5q0 -223 -134 -359t-354 -136q-218 0 -350.5 136t-132.5 359zM266 477q0 -152 83.5 -245t219.5 -93q138 0 223 93t85 245q0 158 -84.5 254t-221.5 96t-221 -96t-84 -254z" />
<glyph unicode="p" horiz-adv-x="1155" d="M143 -332v1299h185v-121q169 137 358 137q185 0 284 -118t99 -380q0 -131 -33.5 -230.5t-91 -157.5t-128.5 -86.5t-152 -28.5q-111 0 -183 34.5t-153 106.5v-455h-185zM328 297q147 -162 303 -162q117 0 186.5 84t69.5 266q0 185 -59 264.5t-179 79.5q-83 0 -171 -47 t-150 -114v-371z" />
<glyph unicode="q" horiz-adv-x="1155" d="M86 485q0 498 383 498q199 0 360 -135v119h185l-2 -1299h-185v453q-80 -71 -151.5 -105t-183.5 -34q-81 0 -152 28.5t-129 86.5t-91.5 157.5t-33.5 230.5zM268 487q0 -93 22.5 -162.5t62 -110t87.5 -60t105 -19.5q86 0 149 40.5t133 117.5v379q-146 157 -301 157 q-258 0 -258 -342z" />
<glyph unicode="r" horiz-adv-x="776" d="M143 0v967h185v-189q39 93 116 149t172 56q68 0 123 -6l-12 -182q-49 4 -117 4q-98 0 -171.5 -63t-110.5 -179v-557h-185z" />
<glyph unicode="s" horiz-adv-x="913" d="M59 123l78 129q89 -63 164 -90t180 -27q82 0 130 31t48 90q0 23 -4.5 41t-11 31.5t-21.5 25t-27 19t-38.5 17t-44.5 15t-56 16.5t-63 19q-156 48 -222.5 104.5t-66.5 168.5q0 132 87.5 203t250.5 71q158 0 361 -86l-49 -139q-209 78 -316 78q-78 0 -120 -31.5t-42 -89.5 q0 -18 4.5 -32.5t17 -26.5t22.5 -19.5t34.5 -17t38.5 -14.5t48 -15.5t51 -15.5q68 -22 108 -36.5t84 -35.5t67 -42t43.5 -51t28.5 -67.5t8 -87.5q0 -128 -94 -202t-254 -74q-232 0 -424 141z" />
<glyph unicode="t" horiz-adv-x="741" d="M37 811v156h145v241h185v-241h286v-156h-286v-489q0 -95 36.5 -127.5t128.5 -32.5q72 0 144 10l20 -135q-125 -45 -225 -45q-153 0 -221 76t-68 247v496h-145z" />
<glyph unicode="u" horiz-adv-x="1134" d="M129 365v602h184v-559q0 -136 42.5 -197t148.5 -61q80 0 159.5 51.5t143.5 128.5v637h184v-967h-184v139q-93 -75 -179.5 -116t-183.5 -41q-162 0 -238.5 93.5t-76.5 289.5z" />
<glyph unicode="v" horiz-adv-x="1060" d="M16 967h189l274 -621q8 -21 51 -151q26 92 54 151l272 621h188l-411 -967h-205z" />
<glyph unicode="w" horiz-adv-x="1492" d="M20 967h179l213 -645q20 -79 30 -132q24 93 35 132l182 645h177l180 -645q6 -21 17.5 -66t17.5 -66q13 61 32 132l211 645h179l-308 -967h-225l-192 662l-193 -662h-227z" />
<glyph unicode="x" horiz-adv-x="995" d="M23 0l344 487l-336 480h207l202 -287q48 -67 58 -84q11 21 32 51t23 33l205 285h207l-336 -478l342 -487h-201l-217 293q-2 3 -23 33t-32 51q-10 -17 -58 -84l-215 -293h-202z" />
<glyph unicode="y" horiz-adv-x="1044" d="M6 965h193l252 -598q7 -15 59 -152q31 62 61 126.5t63.5 146.5t55.5 137.5t66 169t67 170.5h203q-4 -10 -33.5 -83.5t-35.5 -88t-33 -80.5t-35.5 -86.5t-32.5 -78t-36 -84t-33.5 -75t-37 -80.5t-34.5 -72t-37 -75q-91 -175 -203.5 -291t-265.5 -176l-66 158 q159 76 252 184z" />
<glyph unicode="z" horiz-adv-x="1021" d="M78 0v121l610 696q-74 -6 -178 -6h-418v156h834v-117l-594 -703q10 0 80.5 3.5t101.5 3.5h430v-154h-866z" />
<glyph unicode="{" horiz-adv-x="788" d="M94 436v129q145 6 193.5 61.5t48.5 213.5v137q0 181 91.5 269.5t299.5 101.5l12 -129q-128 -20 -179.5 -77t-51.5 -165v-137q0 -167 -51 -242.5t-170 -97.5q119 -21 170 -96t51 -242v-137q0 -109 51 -166t180 -78l-12 -129q-208 13 -299.5 101.5t-91.5 271.5v137 q0 158 -48 213t-194 61z" />
<glyph unicode="|" horiz-adv-x="616" d="M231 -410v1747h154v-1747h-154z" />
<glyph unicode="}" horiz-adv-x="788" d="M61 -219q130 21 181 78t51 166v137q0 167 51 242t170 96q-119 22 -170 97.5t-51 242.5v137q0 108 -51.5 165t-180.5 77l13 129q208 -13 299.5 -101.5t91.5 -269.5v-137q0 -157 49 -213t193 -62v-129q-144 -6 -193 -61.5t-49 -212.5v-137q0 -183 -91.5 -271.5 t-299.5 -101.5z" />
<glyph unicode="~" horiz-adv-x="913" d="M74 508q67 125 145 157.5t174 -12.5l168 -75q59 -29 105 -9t92 99l78 -52q-46 -87 -96.5 -130t-105.5 -46t-120 23l-168 78q-57 28 -101.5 10t-92.5 -94z" />
<glyph unicode="&#xa1;" horiz-adv-x="450" d="M115 -270l26 841h146l26 -841h-198zM119 889q0 42 27 70t69 28q43 0 69.5 -28t26.5 -70t-26 -69t-70 -27q-42 0 -69 27t-27 69z" />
<glyph unicode="&#xa2;" horiz-adv-x="1052" d="M96 547q0 136 34 243.5t94 175t134.5 106t161.5 48.5v129h127v-129q166 -15 314 -108l-60 -119q-130 78 -299 78q-65 0 -121.5 -23.5t-103.5 -72t-74 -132.5t-27 -196q0 -109 26 -191t71.5 -129.5t101 -70.5t119.5 -23q202 0 336 117l67 -111q-75 -72 -158.5 -109 t-191.5 -46v-115h-127v115q-68 6 -128 28t-115 66.5t-94.5 107t-63 155t-23.5 206.5z" />
<glyph unicode="&#xa3;" horiz-adv-x="1130" d="M76 0v135l164 15l22 274h-180v127h190l4 47q23 278 133 404t310 126q213 0 371 -108l-60 -121q-136 82 -287 82q-128 0 -198 -87t-88 -296l-4 -47h403v-127h-414l-22 -270h614v-154h-958z" />
<glyph unicode="&#xa5;" horiz-adv-x="1087" d="M31 1116h192l281 -461q8 -19 23 -51t18 -39l41 90l278 461h195l-361 -612h256v-103h-315l-2 -2v-104h317v-102h-317v-193h-186v193h-310v102h310v104l-2 2h-308v103h248z" />
<glyph unicode="&#xa6;" horiz-adv-x="616" d="M231 285h154v-695h-154v695zM231 643v694h154v-694h-154z" />
<glyph unicode="&#xa7;" horiz-adv-x="1208" d="M129 614q0 69 38 118t118 104q-70 64 -70 168q0 123 88.5 194.5t245.5 71.5q100 0 206.5 -23.5t194.5 -64.5l-47 -131q-81 39 -174.5 62.5t-165.5 23.5q-84 0 -130 -34t-46 -95q0 -59 55.5 -91.5t223.5 -85.5q216 -66 304.5 -133.5t88.5 -175.5q0 -69 -36.5 -118 t-117.5 -103q68 -65 68 -168q0 -123 -90.5 -197.5t-249.5 -74.5q-114 0 -242.5 42.5t-216.5 114.5l57 127q85 -67 194 -105t200 -38q84 0 130 33.5t46 93.5t-55.5 93t-223.5 83q-217 68 -305 134.5t-88 174.5zM295 639q0 -19 5.5 -35t19.5 -31t28 -26.5t42 -25.5t49 -23 t62 -23.5t68.5 -23t79.5 -25.5q76 -23 164 -64q45 45 62.5 75.5t17.5 62.5q0 29 -16 53t-41.5 42.5t-73 38.5t-93.5 35.5t-119 39.5q-9 3 -13 4q-102 31 -162 63q-47 -47 -63.5 -75.5t-16.5 -61.5z" />
<glyph unicode="&#xa8;" horiz-adv-x="999" d="M195 1251q0 50 32.5 80.5t77.5 30.5q50 0 81.5 -29.5t31.5 -81.5q0 -50 -31 -78t-82 -28q-45 0 -77.5 28.5t-32.5 77.5zM580 1251q0 51 31.5 81t80.5 30q46 0 79.5 -30.5t33.5 -80.5q0 -49 -33 -77.5t-80 -28.5q-49 0 -80.5 28t-31.5 78z" />
<glyph unicode="&#xa9;" horiz-adv-x="1515" d="M115 625q0 175 85.5 323.5t233.5 235t324 86.5q175 0 322.5 -86.5t233 -235t85.5 -323.5q0 -176 -85.5 -324t-233 -233.5t-322.5 -85.5q-176 0 -324 85.5t-233.5 233.5t-85.5 324zM174 625q0 -159 78 -293.5t212.5 -212.5t293.5 -78t293.5 78t213 212.5t78.5 293.5 q0 158 -78.5 293t-213.5 213.5t-293 78.5q-159 0 -293.5 -78.5t-212.5 -213t-78 -293.5zM412 616q0 174 94.5 276.5t253.5 102.5q157 0 284 -88l-47 -88q-109 64 -223 64q-106 0 -167.5 -71t-61.5 -196q0 -119 65 -187.5t170 -68.5q129 0 242 95l51 -82q-129 -123 -307 -123 q-154 0 -254 100t-100 266z" />
<glyph unicode="&#xaa;" horiz-adv-x="786" d="M74 770q0 109 71.5 161t219.5 52q121 0 184 -2q0 100 -31 135t-117 35q-100 0 -235 -33l-23 105q160 47 281 47q145 0 203.5 -64t58.5 -225v-414h-137v88q-55 -48 -111.5 -75t-130.5 -27q-117 0 -175 53t-58 164zM203 784q0 -125 143 -125q42 0 82.5 17t64.5 36t56 50 v129h-170q-92 0 -134 -25t-42 -82z" />
<glyph unicode="&#xab;" horiz-adv-x="1112" d="M92 504l420 422l96 -92l-248 -259q-4 -4 -84 -73q54 -40 86 -72l246 -258l-94 -88zM467 504l420 422l96 -92l-248 -259q-4 -4 -84 -73q54 -40 86 -72l246 -258l-94 -90z" />
<glyph unicode="&#xad;" horiz-adv-x="806" d="M129 494v163h549v-163h-549z" />
<glyph unicode="&#xae;" horiz-adv-x="1515" d="M115 625q0 175 85.5 323.5t233.5 235t324 86.5q175 0 322.5 -86.5t233 -235t85.5 -323.5q0 -176 -85.5 -324t-233 -233.5t-322.5 -85.5q-176 0 -324 85.5t-233.5 233.5t-85.5 324zM174 625q0 -159 78 -293.5t212.5 -212.5t293.5 -78t293.5 78t213 212.5t78.5 293.5 q0 158 -78.5 293t-213.5 213.5t-293 78.5q-159 0 -293.5 -78.5t-212.5 -213t-78 -293.5zM487 266v719h277q301 0 301 -237q0 -82 -41 -132.5t-117 -64.5q56 -27 99.5 -100t85.5 -185h-142q-48 121 -88 181.5t-82 60.5h-174v-242h-119zM614 608h183q69 0 104 35.5t35 101.5 t-44 102t-128 36h-150v-275z" />
<glyph unicode="&#xaf;" horiz-adv-x="999" d="M244 1157v162h512v-162h-512z" />
<glyph unicode="&#xb0;" horiz-adv-x="700" d="M100 1016q0 116 68 185t182 69q115 0 183.5 -69t68.5 -185q0 -109 -69 -175.5t-183 -66.5t-182 66.5t-68 175.5zM209 1016q0 -62 38.5 -98.5t102.5 -36.5q66 0 104 36.5t38 98.5q0 68 -38 108.5t-104 40.5q-64 0 -102.5 -40.5t-38.5 -108.5z" />
<glyph unicode="&#xb1;" horiz-adv-x="972" d="M74 106v121h813v-121h-813zM74 598v121h350v280h121v-280h348v-121h-350v-281h-119v281h-350z" />
<glyph unicode="&#xb2;" horiz-adv-x="704" d="M53 1393q178 82 314 82q119 0 186.5 -65.5t67.5 -180.5q0 -32 -10.5 -63.5t-24 -57t-44 -58.5t-52 -54t-67.5 -56.5t-71 -54t-81 -58.5q-11 -8 -17 -12.5t-15.5 -11t-17.5 -12.5q78 4 107 4h309v-109h-578v92q41 33 109 87t105 83.5t85.5 73t73 73.5t42.5 66t18 68 q0 67 -38 103t-106 36q-118 0 -258 -65z" />
<glyph unicode="&#xb3;" horiz-adv-x="704" d="M33 965l39 86q135 -66 278 -66q80 0 123 33t43 94q0 131 -194 131h-125v105h125q89 0 132.5 24.5t43.5 79.5q0 62 -40.5 94.5t-113.5 32.5q-128 0 -260 -57l-33 86q155 73 307 73q118 0 187 -57t69 -156q0 -65 -36 -109.5t-95 -64.5q154 -50 154 -184 q0 -108 -74.5 -166.5t-208.5 -58.5q-173 0 -321 80z" />
<glyph unicode="&#xb4;" horiz-adv-x="999" d="M348 1135l225 286l150 -96l-2 -37q-92 -76 -151 -117t-162 -96z" />
<glyph unicode="&#xb6;" horiz-adv-x="1124" d="M100 831q0 226 117.5 322t390.5 96h426v-143l-213 -16v-1090h-174v422h-39q-272 0 -390 94t-118 315z" />
<glyph unicode="&#xb7;" horiz-adv-x="559" d="M156 573q0 50 30.5 81.5t81.5 31.5t82 -31.5t31 -81.5q0 -48 -31.5 -80t-81.5 -32t-81 32t-31 80z" />
<glyph unicode="&#xb8;" horiz-adv-x="999" d="M301 -393l23 106q86 -18 145 -18q64 0 94 12.5t29 54.5q0 47 -25.5 57.5t-111.5 10.5h-88l45 223h104l-8 -119q120 0 165.5 -37t45.5 -137q0 -94 -54.5 -142t-154.5 -48q-92 0 -209 37z" />
<glyph unicode="&#xb9;" horiz-adv-x="655" d="M61 1337q146 58 258 117h101v-668h186v-108h-520v108h209v525q-118 -36 -209 -56z" />
<glyph unicode="&#xba;" horiz-adv-x="884" d="M96 905q0 175 90 270t256 95t256 -95t90 -270q0 -168 -91 -260t-257 -92q-164 0 -254 91.5t-90 260.5zM229 905q0 -233 211 -233q215 0 215 233q0 248 -213 248t-213 -248z" />
<glyph unicode="&#xbb;" horiz-adv-x="1112" d="M111 172l245 258q12 12 84 74q-53 42 -82 71l-247 259l94 92l418 -422l-420 -422zM485 172l246 258q12 12 84 74q-53 42 -82 71l-248 259l95 92l417 -422l-419 -422z" />
<glyph unicode="&#xbc;" horiz-adv-x="1798" d="M61 1133q154 61 258 116h101v-667h186v-109h-520v109h209v524q-106 -32 -209 -55zM467 0l727 1249h113l-727 -1249h-113zM958 254l455 522h121v-512h125v-100h-125v-164h-121v164h-450zM1079 264h334v373q-26 -37 -53 -64l-205 -227q-27 -33 -76 -82z" />
<glyph unicode="&#xbd;" horiz-adv-x="1816" d="M61 1133q154 61 258 116h101v-667h186v-109h-520v109h209v524q-106 -32 -209 -55zM467 0l727 1249h113l-727 -1249h-113zM1106 707q176 81 313 81q119 0 186.5 -65t67.5 -180q0 -72 -56.5 -148t-111.5 -120t-186 -138l-45 -33q98 5 106 5h310v-109h-578v92 q40 33 108.5 87t105 83.5t85 73t73 73.5t42.5 66t18 68q0 67 -37.5 103t-105.5 36q-116 0 -258 -66z" />
<glyph unicode="&#xbe;" horiz-adv-x="1773" d="M33 555l39 86q135 -66 278 -66q80 0 123 33t43 94q0 132 -194 132h-125v104h125q89 0 132.5 24.5t43.5 79.5q0 62 -40.5 94.5t-113.5 32.5q-128 0 -260 -57l-33 86q157 74 307 74q118 0 187 -57t69 -156q0 -65 -36 -109.5t-95 -64.5q154 -50 154 -185 q0 -108 -74.5 -166.5t-208.5 -58.5q-173 0 -321 80zM467 0l725 1249h115l-727 -1249h-113zM952 254l455 522h123v-512h123v-100h-123v-164h-123v164h-451zM1075 264h332v373q-25 -36 -51 -64l-205 -227q-43 -49 -76 -82z" />
<glyph unicode="&#xbf;" d="M104 88q0 146 113 242t324 131l-6 145h151l27 -282q-199 -15 -307.5 -72t-108.5 -146q0 -103 68 -165t180 -62q194 0 420 109l53 -146q-282 -133 -504 -133q-184 0 -297 104.5t-113 274.5zM512 889q0 42 26.5 70t69.5 28q42 0 69.5 -28t27.5 -70q0 -41 -27.5 -68.5 t-69.5 -27.5q-44 0 -70 27t-26 69z" />
<glyph unicode="&#xc0;" horiz-adv-x="1351" d="M31 0l520 1249h252l520 -1249h-203l-121 295h-645l-121 -295h-202zM403 1579l152 96l223 -266l-59 -59q-102 40 -160.5 77t-152.5 115zM424 469h504l-205 498q-27 73 -47 149q-20 -76 -47 -149z" />
<glyph unicode="&#xc1;" horiz-adv-x="1351" d="M31 0l520 1249h252l520 -1249h-203l-121 295h-645l-121 -295h-202zM424 469h504l-205 498q-27 73 -47 149q-20 -76 -47 -149zM569 1421l226 267l149 -97l-2 -37q-94 -78 -152.5 -115t-160.5 -77z" />
<glyph unicode="&#xc2;" horiz-adv-x="1351" d="M31 0l520 1249h252l520 -1249h-203l-121 295h-645l-121 -295h-202zM365 1430l249 221h125l252 -221l-71 -74l-242 145l-242 -145zM424 469h504l-205 498q-27 73 -47 149q-20 -76 -47 -149z" />
<glyph unicode="&#xc3;" horiz-adv-x="1351" d="M31 0l520 1249h252l520 -1249h-203l-121 295h-645l-121 -295h-202zM356 1425q13 67 43.5 112t70.5 63.5t86 17.5t91 -23l113 -53q57 -26 90 -9.5t55 79.5l96 -23q-12 -68 -44 -115.5t-73.5 -67.5t-87.5 -19.5t-89 22.5l-113 57q-56 27 -88.5 12t-54.5 -75zM424 469h504 l-205 498q-27 73 -47 149q-20 -76 -47 -149z" />
<glyph unicode="&#xc4;" horiz-adv-x="1351" d="M31 0l520 1249h252l520 -1249h-203l-121 295h-645l-121 -295h-202zM373 1503q0 50 32.5 80.5t77.5 30.5q50 0 81.5 -29.5t31.5 -81.5q0 -50 -31 -78t-82 -28q-45 0 -77.5 28.5t-32.5 77.5zM424 469h504l-205 498q-27 73 -47 149q-20 -76 -47 -149zM758 1503q0 51 31.5 81 t80.5 30q46 0 79.5 -30.5t33.5 -80.5q0 -49 -33 -77.5t-80 -28.5q-49 0 -80.5 28t-31.5 78z" />
<glyph unicode="&#xc5;" horiz-adv-x="1351" d="M31 0l520 1249h252l520 -1249h-203l-121 295h-645l-121 -295h-202zM424 469h504l-205 498q-27 73 -47 149q-20 -76 -47 -149zM479 1542q0 90 55.5 144.5t143.5 54.5t143.5 -54.5t55.5 -144.5q0 -83 -56 -135.5t-145 -52.5q-86 0 -141.5 52.5t-55.5 135.5zM586 1542 q0 -38 25 -61t65 -23q43 0 68.5 23t25.5 61q0 44 -25 70t-67 26t-67 -26t-25 -70z" />
<glyph unicode="&#xc6;" horiz-adv-x="1951" d="M31 0l850 1249h921v-176h-655v-358h571v-176h-571v-363h674v-176h-863v291h-516l-194 -291h-217zM559 465h399v596z" />
<glyph unicode="&#xc7;" horiz-adv-x="1271" d="M96 623q0 311 157.5 479t448.5 168q118 0 238 -28.5t209 -80.5l-62 -143q-177 76 -376 76q-207 0 -314.5 -119.5t-107.5 -351.5q0 -220 106.5 -342.5t296.5 -122.5q241 0 434 121l72 -146q-210 -151 -516 -151h-16l-4 -48q120 0 165 -37t45 -137q0 -94 -54 -142t-154 -48 q-92 0 -209 37l22 106q86 -18 146 -18q63 0 93 12.5t29 54.5q0 47 -25.5 57.5t-111.5 10.5h-88l33 162q-218 37 -337.5 200t-119.5 431z" />
<glyph unicode="&#xc8;" horiz-adv-x="1155" d="M172 0v1249h844v-176h-656v-358h572v-176h-572v-363h674v-176h-862zM311 1579l152 96l223 -266l-59 -59q-103 40 -162 77.5t-152 114.5z" />
<glyph unicode="&#xc9;" horiz-adv-x="1155" d="M172 0v1249h844v-176h-656v-358h572v-176h-572v-363h674v-176h-862zM475 1421l225 267l150 -97l-2 -37q-94 -78 -152.5 -115t-160.5 -77z" />
<glyph unicode="&#xca;" horiz-adv-x="1155" d="M172 0v1249h844v-176h-656v-358h572v-176h-572v-363h674v-176h-862zM270 1430l250 221h125l252 -221l-72 -74l-241 145l-242 -145z" />
<glyph unicode="&#xcb;" horiz-adv-x="1155" d="M172 0v1249h844v-176h-656v-358h572v-176h-572v-363h674v-176h-862zM279 1503q0 50 32.5 80.5t77.5 30.5q50 0 81.5 -29.5t31.5 -81.5q0 -50 -31 -78t-82 -28q-45 0 -77.5 28.5t-32.5 77.5zM664 1503q0 51 31.5 81t80.5 30q46 0 79.5 -30.5t33.5 -80.5q0 -49 -33 -77.5 t-80 -28.5q-49 0 -80.5 28t-31.5 78z" />
<glyph unicode="&#xcc;" horiz-adv-x="532" d="M-6 1579l151 96l224 -266l-60 -59q-102 40 -160.5 77t-152.5 115zM172 0v1249h188v-1249h-188z" />
<glyph unicode="&#xcd;" horiz-adv-x="532" d="M160 1421l225 267l150 -97l-3 -37q-94 -78 -152.5 -115t-160.5 -77zM172 0v1249h188v-1249h-188z" />
<glyph unicode="&#xce;" horiz-adv-x="532" d="M-45 1430l250 221h125l252 -221l-72 -74l-242 145l-241 -145zM172 0v1249h188v-1249h-188z" />
<glyph unicode="&#xcf;" horiz-adv-x="532" d="M-37 1503q0 50 33 80.5t78 30.5q50 0 81 -29.5t31 -81.5q0 -50 -30.5 -78t-81.5 -28q-45 0 -78 28.5t-33 77.5zM172 0v1249h188v-1249h-188zM348 1503q0 51 32 81t81 30q46 0 79 -30t33 -81q0 -49 -32.5 -77.5t-79.5 -28.5q-49 0 -81 28.5t-32 77.5z" />
<glyph unicode="&#xd0;" horiz-adv-x="1339" d="M27 543v149h137v557h393q325 0 501.5 -159.5t176.5 -454.5q0 -305 -176.5 -470t-501.5 -165h-393v543h-137zM352 176h205q233 0 359 119.5t126 339.5q0 211 -126 324.5t-359 113.5h-205v-381h256v-149h-256v-367z" />
<glyph unicode="&#xd1;" horiz-adv-x="1413" d="M172 0v1249h172l709 -932v932h188v-1249h-172l-709 928v-928h-188zM385 1425q13 67 43.5 112t70.5 63.5t86 17.5t91 -23l112 -53q57 -26 90.5 -9.5t55.5 79.5l96 -23q-12 -68 -44 -115.5t-73.5 -67.5t-88 -19.5t-89.5 22.5l-112 57q-56 27 -89 11.5t-55 -74.5z" />
<glyph unicode="&#xd2;" horiz-adv-x="1382" d="M96 623q0 311 155.5 479t438.5 168q284 0 440 -168t156 -479q0 -307 -156 -474t-440 -167q-282 0 -438 167t-156 474zM289 623q0 -227 104 -346t297 -119q195 0 299.5 119t104.5 346q0 230 -104.5 350.5t-299.5 120.5q-193 0 -297 -120.5t-104 -350.5zM418 1579l151 96 l224 -266l-60 -59q-102 40 -160.5 77t-152.5 115z" />
<glyph unicode="&#xd3;" horiz-adv-x="1382" d="M96 623q0 311 155.5 479t438.5 168q284 0 440 -168t156 -479q0 -307 -156 -474t-440 -167q-282 0 -438 167t-156 474zM289 623q0 -227 104 -346t297 -119q195 0 299.5 119t104.5 346q0 230 -104.5 350.5t-299.5 120.5q-193 0 -297 -120.5t-104 -350.5zM582 1421l225 267 l149 -97l-2 -37q-94 -78 -152.5 -115t-160.5 -77z" />
<glyph unicode="&#xd4;" horiz-adv-x="1382" d="M96 623q0 311 155.5 479t438.5 168q284 0 440 -168t156 -479q0 -307 -156 -474t-440 -167q-282 0 -438 167t-156 474zM289 623q0 -227 104 -346t297 -119q195 0 299.5 119t104.5 346q0 230 -104.5 350.5t-299.5 120.5q-193 0 -297 -120.5t-104 -350.5zM379 1430l250 221 h125l252 -221l-72 -74l-242 145l-241 -145z" />
<glyph unicode="&#xd5;" horiz-adv-x="1382" d="M96 623q0 311 155.5 479t438.5 168q284 0 440 -168t156 -479q0 -307 -156 -474t-440 -167q-282 0 -438 167t-156 474zM289 623q0 -227 104 -346t297 -119q195 0 299.5 119t104.5 346q0 230 -104.5 350.5t-299.5 120.5q-193 0 -297 -120.5t-104 -350.5zM369 1425 q13 67 43.5 112t70.5 63.5t85.5 17.5t90.5 -23l113 -53q57 -26 90.5 -9.5t55.5 79.5l96 -23q-12 -68 -44 -115.5t-73.5 -67.5t-88 -19.5t-89.5 22.5l-113 57q-56 27 -88.5 12t-54.5 -75z" />
<glyph unicode="&#xd6;" horiz-adv-x="1382" d="M96 623q0 311 155.5 479t438.5 168q284 0 440 -168t156 -479q0 -307 -156 -474t-440 -167q-282 0 -438 167t-156 474zM289 623q0 -227 104 -346t297 -119q195 0 299.5 119t104.5 346q0 230 -104.5 350.5t-299.5 120.5q-193 0 -297 -120.5t-104 -350.5zM387 1503 q0 50 33 80.5t78 30.5q50 0 81 -29.5t31 -81.5q0 -50 -30.5 -78t-81.5 -28q-45 0 -78 28.5t-33 77.5zM772 1503q0 51 32 81t81 30q46 0 79 -30t33 -81q0 -49 -32.5 -77.5t-79.5 -28.5q-49 0 -81 28.5t-32 77.5z" />
<glyph unicode="&#xd7;" horiz-adv-x="962" d="M135 254l254 252l-250 250l99 98l249 -248l248 246l96 -96l-245 -248l254 -254l-99 -98l-254 254l-254 -254z" />
<glyph unicode="&#xd8;" horiz-adv-x="1382" d="M86 623q0 311 155.5 479t438.5 168q247 0 395 -127l109 121l76 -72l-111 -125q127 -169 127 -444q0 -307 -156 -474t-440 -167q-242 0 -393 124l-107 -120l-76 71l111 123q-129 167 -129 443zM279 623q0 -185 67 -295l604 676q-104 90 -270 90q-193 0 -297 -120.5 t-104 -350.5zM414 246q102 -88 266 -88q195 0 299 119t104 346q0 187 -67 297z" />
<glyph unicode="&#xd9;" horiz-adv-x="1357" d="M147 569v680h189v-680q0 -197 89.5 -302t254.5 -105q166 0 255 104.5t89 302.5v680h188v-680q0 -282 -138.5 -434.5t-393.5 -152.5t-394 152.5t-139 434.5zM408 1579l151 96l223 -266l-59 -59q-102 40 -160.5 77t-152.5 115z" />
<glyph unicode="&#xda;" horiz-adv-x="1357" d="M147 569v680h189v-680q0 -197 89.5 -302t254.5 -105q166 0 255 104.5t89 302.5v680h188v-680q0 -282 -138.5 -434.5t-393.5 -152.5t-394 152.5t-139 434.5zM571 1421l226 267l149 -97l-2 -37q-94 -78 -152.5 -115t-160.5 -77z" />
<glyph unicode="&#xdb;" horiz-adv-x="1357" d="M147 569v680h189v-680q0 -197 89.5 -302t254.5 -105q166 0 255 104.5t89 302.5v680h188v-680q0 -282 -138.5 -434.5t-393.5 -152.5t-394 152.5t-139 434.5zM367 1430l249 221h125l252 -221l-71 -74l-242 145l-242 -145z" />
<glyph unicode="&#xdc;" horiz-adv-x="1357" d="M147 569v680h189v-680q0 -197 89.5 -302t254.5 -105q166 0 255 104.5t89 302.5v680h188v-680q0 -282 -138.5 -434.5t-393.5 -152.5t-394 152.5t-139 434.5zM375 1503q0 50 32.5 80.5t77.5 30.5q50 0 81.5 -29.5t31.5 -81.5q0 -50 -31 -78t-82 -28q-45 0 -77.5 28.5 t-32.5 77.5zM760 1503q0 51 31.5 81t80.5 30q46 0 79.5 -30.5t33.5 -80.5q0 -49 -33 -77.5t-80 -28.5q-49 0 -80.5 28t-31.5 78z" />
<glyph unicode="&#xdd;" horiz-adv-x="1187" d="M37 1249h192l318 -555q20 -34 47 -106q16 49 47 106l317 555h193l-463 -839v-410h-188v410zM485 1421l226 267l149 -97l-2 -37q-94 -78 -152.5 -115t-160.5 -77z" />
<glyph unicode="&#xde;" horiz-adv-x="1179" d="M172 0v1249h188v-207h244q264 0 389 -106t125 -328q0 -220 -123.5 -323t-382.5 -103h-252v-182h-188zM360 336h252q164 0 243 67t79 205t-80.5 205.5t-249.5 67.5h-244v-545z" />
<glyph unicode="&#xdf;" horiz-adv-x="1208" d="M-6 831v134h162q37 160 167.5 253t319.5 93q180 0 294 -92t114 -240q0 -110 -56.5 -186t-150.5 -115q132 -40 202 -128.5t70 -221.5q0 -156 -107 -251t-284 -95q-126 0 -246 30l17 135q116 -22 202 -22q112 0 179 61t67 160q0 118 -89 183t-241 65h-102v139h102 q120 0 191.5 61t71.5 164q0 93 -63.5 147t-166.5 54q-147 0 -233 -83.5t-86 -227.5v-848h-185v817z" />
<glyph unicode="&#xe0;" d="M76 274q0 310 403 310q168 0 258 -2q0 142 -40 190.5t-162 48.5q-127 0 -332 -51l-31 150q247 65 393 65q199 0 278 -93.5t79 -311.5v-580h-185v121q-81 -66 -157 -102.5t-177 -36.5q-166 0 -246.5 69t-80.5 223zM246 293q0 -174 211 -174q74 0 147.5 40.5t132.5 106.5 v185h-235q-135 0 -195.5 -34t-60.5 -124zM297 1354l152 96l223 -287l-60 -59q-103 55 -162 96t-151 117z" />
<glyph unicode="&#xe1;" d="M76 274q0 310 403 310q168 0 258 -2q0 142 -40 190.5t-162 48.5q-127 0 -332 -51l-31 150q247 65 393 65q199 0 278 -93.5t79 -311.5v-580h-185v121q-81 -66 -157 -102.5t-177 -36.5q-166 0 -246.5 69t-80.5 223zM246 293q0 -174 211 -174q74 0 147.5 40.5t132.5 106.5 v185h-235q-135 0 -195.5 -34t-60.5 -124zM375 1135l225 286l150 -96l-2 -37q-91 -75 -150.5 -116.5t-163.5 -96.5z" />
<glyph unicode="&#xe2;" d="M76 274q0 310 403 310q168 0 258 -2q0 142 -40 190.5t-162 48.5q-127 0 -332 -51l-31 150q247 65 393 65q199 0 278 -93.5t79 -311.5v-580h-185v121q-81 -66 -157 -102.5t-177 -36.5q-166 0 -246.5 69t-80.5 223zM213 1163l250 242h125l252 -242l-72 -73l-242 165 q-40 -28 -120.5 -83t-120.5 -82zM246 293q0 -174 211 -174q74 0 147.5 40.5t132.5 106.5v185h-235q-135 0 -195.5 -34t-60.5 -124z" />
<glyph unicode="&#xe3;" d="M76 274q0 310 403 310q168 0 258 -2q0 142 -40 190.5t-162 48.5q-127 0 -332 -51l-31 150q247 65 393 65q199 0 278 -93.5t79 -311.5v-580h-185v121q-81 -66 -157 -102.5t-177 -36.5q-166 0 -246.5 69t-80.5 223zM205 1188q13 67 43.5 112t70.5 63.5t86 17.5t91 -23 l112 -53q57 -27 90.5 -10.5t55.5 79.5l96 -22q-12 -68 -44 -116t-73.5 -67.5t-88 -19.5t-89.5 22l-113 58q-56 27 -88.5 11.5t-54.5 -75.5zM246 293q0 -174 211 -174q74 0 147.5 40.5t132.5 106.5v185h-235q-135 0 -195.5 -34t-60.5 -124z" />
<glyph unicode="&#xe4;" d="M76 274q0 310 403 310q168 0 258 -2q0 142 -40 190.5t-162 48.5q-127 0 -332 -51l-31 150q247 65 393 65q199 0 278 -93.5t79 -311.5v-580h-185v121q-81 -66 -157 -102.5t-177 -36.5q-166 0 -246.5 69t-80.5 223zM221 1251q0 50 33 80.5t78 30.5q50 0 81 -29.5t31 -81.5 q0 -50 -30.5 -78t-81.5 -28q-45 0 -78 28.5t-33 77.5zM246 293q0 -174 211 -174q74 0 147.5 40.5t132.5 106.5v185h-235q-135 0 -195.5 -34t-60.5 -124zM606 1251q0 51 32 81t81 30q46 0 79 -30t33 -81q0 -49 -32.5 -77.5t-79.5 -28.5q-49 0 -81 28.5t-32 77.5z" />
<glyph unicode="&#xe5;" d="M76 274q0 310 403 310q168 0 258 -2q0 142 -40 190.5t-162 48.5q-127 0 -332 -51l-31 150q247 65 393 65q199 0 278 -93.5t79 -311.5v-580h-185v121q-81 -66 -157 -102.5t-177 -36.5q-166 0 -246.5 69t-80.5 223zM246 293q0 -174 211 -174q74 0 147.5 40.5t132.5 106.5 v185h-235q-135 0 -195.5 -34t-60.5 -124zM336 1272q0 90 55 144t144 54q88 0 143 -54t55 -144q0 -83 -56 -136t-145 -53q-86 0 -141 53t-55 136zM442 1272q0 -38 25 -61t65 -23q43 0 69 23t26 61q0 44 -25 70t-67 26t-67.5 -26t-25.5 -70z" />
<glyph unicode="&#xe6;" horiz-adv-x="1726" d="M76 283q0 137 102.5 216t300.5 79q49 0 124.5 -1.5t125.5 -1.5q2 147 -36.5 203t-157.5 56q-139 0 -332 -48l-31 134q237 65 393 65q208 0 281 -139q125 137 352 137q203 2 315.5 -119.5t116.5 -347.5q0 -47 -6 -86h-719q11 -156 89.5 -229.5t203.5 -73.5q98 2 178.5 29 t171.5 90l70 -117q-100 -79 -197.5 -113t-228.5 -34q-245 0 -365 155q-179 -155 -385 -155q-191 0 -278.5 72.5t-87.5 228.5zM248 295q0 -85 56 -126.5t177 -41.5q144 0 291 109q-35 84 -41 196h-2h-227q-135 0 -194.5 -31.5t-59.5 -105.5zM909 575h557q-10 127 -78.5 194 t-187.5 67q-115 0 -192.5 -64t-98.5 -197z" />
<glyph unicode="&#xe7;" horiz-adv-x="1013" d="M86 477q0 229 131 368.5t346 139.5q193 0 352 -94l-63 -125q-128 63 -287 63q-134 0 -215.5 -97t-81.5 -255q0 -154 79.5 -246t211.5 -92q91 0 164 23t162 82l67 -123q-104 -79 -193.5 -109t-219.5 -30l-2 -48q120 0 165.5 -37t45.5 -137q0 -94 -54.5 -142t-154.5 -48 q-92 0 -209 37l22 106q86 -18 146 -18q64 0 94 12.5t29 54.5q0 47 -26 57.5t-112 10.5h-88l33 164q-158 34 -250 163t-92 320z" />
<glyph unicode="&#xe8;" horiz-adv-x="1073" d="M86 475q0 130 35 229t99 160t148 91t187 30q201 0 313.5 -122t116.5 -347q0 -47 -6 -84h-717q11 -157 88.5 -230t204.5 -73q97 0 177.5 27.5t172.5 91.5l68 -119q-100 -79 -197.5 -113t-228.5 -34q-209 0 -335 122.5t-126 370.5zM266 575h555q-10 127 -78.5 194 t-187.5 67q-115 0 -192.5 -64t-96.5 -197zM305 1354l152 96l223 -287l-59 -59q-104 55 -163.5 96.5t-150.5 116.5z" />
<glyph unicode="&#xe9;" horiz-adv-x="1073" d="M86 475q0 130 35 229t99 160t148 91t187 30q201 0 313.5 -122t116.5 -347q0 -47 -6 -84h-717q11 -157 88.5 -230t204.5 -73q97 0 177.5 27.5t172.5 91.5l68 -119q-100 -79 -197.5 -113t-228.5 -34q-209 0 -335 122.5t-126 370.5zM266 575h555q-10 127 -78.5 194 t-187.5 67q-115 0 -192.5 -64t-96.5 -197zM383 1135l225 286l150 -96l-2 -37q-91 -75 -150.5 -116.5t-163.5 -96.5z" />
<glyph unicode="&#xea;" horiz-adv-x="1073" d="M86 475q0 130 35 229t99 160t148 91t187 30q201 0 313.5 -122t116.5 -347q0 -47 -6 -84h-717q11 -157 88.5 -230t204.5 -73q97 0 177.5 27.5t172.5 91.5l68 -119q-100 -79 -197.5 -113t-228.5 -34q-209 0 -335 122.5t-126 370.5zM221 1163l250 242h125l252 -242l-72 -73 l-241 165q-40 -27 -121 -82t-121 -83zM266 575h555q-10 127 -78.5 194t-187.5 67q-115 0 -192.5 -64t-96.5 -197z" />
<glyph unicode="&#xeb;" horiz-adv-x="1073" d="M86 475q0 130 35 229t99 160t148 91t187 30q201 0 313.5 -122t116.5 -347q0 -47 -6 -84h-717q11 -157 88.5 -230t204.5 -73q97 0 177.5 27.5t172.5 91.5l68 -119q-100 -79 -197.5 -113t-228.5 -34q-209 0 -335 122.5t-126 370.5zM229 1251q0 50 33 80.5t78 30.5 q50 0 81.5 -29.5t31.5 -81.5q0 -50 -31 -78t-82 -28q-45 0 -78 28.5t-33 77.5zM266 575h555q-10 127 -78.5 194t-187.5 67q-115 0 -192.5 -64t-96.5 -197zM614 1251q0 51 32 81t81 30q46 0 79.5 -30.5t33.5 -80.5q0 -49 -33 -77.5t-80 -28.5q-49 0 -81 28.5t-32 77.5z" />
<glyph unicode="&#xec;" horiz-adv-x="481" d="M12 1354l152 96l223 -287l-59 -59q-104 55 -163.5 96.5t-150.5 116.5zM150 0v967h184v-967h-184z" />
<glyph unicode="&#xed;" horiz-adv-x="481" d="M90 1135l225 286l150 -96l-2 -37q-92 -76 -151 -117t-162 -96zM150 0v967h184v-967h-184z" />
<glyph unicode="&#xee;" horiz-adv-x="481" d="M-74 1163l252 242h125l252 -242l-72 -73l-241 165q-80 -55 -244 -165zM150 0v967h184v-967h-184z" />
<glyph unicode="&#xef;" horiz-adv-x="481" d="M-66 1251q0 50 33.5 80.5t79.5 30.5q50 0 81.5 -29.5t31.5 -81.5q0 -50 -31 -78t-82 -28q-47 0 -80 28.5t-33 77.5zM150 0v967h184v-967h-184zM322 1251q0 51 31.5 81t80.5 30q46 0 79.5 -30.5t33.5 -80.5q0 -49 -33 -77.5t-80 -28.5q-49 0 -80.5 28t-31.5 78z" />
<glyph unicode="&#xf0;" horiz-adv-x="1142" d="M86 475q0 486 612 486q-69 78 -157 147l-254 -123l-49 109l196 96q-104 69 -153 98v25l170 73q97 -67 155 -112l203 98l53 -108l-153 -74q189 -163 267.5 -324.5t78.5 -390.5q0 -236 -127 -364.5t-359 -128.5q-231 0 -357 128.5t-126 364.5zM266 467q0 -166 78 -251 t225 -85q148 0 225.5 86.5t77.5 257.5q0 205 -77 348q-209 -1 -324.5 -38.5t-160 -112t-44.5 -205.5z" />
<glyph unicode="&#xf1;" horiz-adv-x="1138" d="M143 0v967h185v-142q86 78 169.5 118t184.5 40q165 0 243.5 -91.5t78.5 -287.5v-604h-185v559q0 141 -33.5 196.5t-138.5 55.5q-171 0 -319 -172v-639h-185zM260 1188q13 67 43.5 112t70.5 63.5t86 17.5t91 -23l113 -53q57 -27 90 -10.5t55 79.5l96 -22q-12 -68 -44 -116 t-73.5 -67.5t-88 -19.5t-89.5 22l-112 58q-56 27 -89 11.5t-55 -75.5z" />
<glyph unicode="&#xf2;" horiz-adv-x="1142" d="M86 477q0 229 133.5 368.5t351.5 139.5t352 -139.5t134 -368.5q0 -223 -134 -359t-354 -136q-218 0 -350.5 136t-132.5 359zM266 477q0 -152 83.5 -245t219.5 -93q138 0 223 93t85 245q0 158 -84.5 254t-221.5 96t-221 -96t-84 -254zM342 1354l152 96l223 -287l-60 -59 q-103 55 -162 96t-151 117z" />
<glyph unicode="&#xf3;" horiz-adv-x="1142" d="M86 477q0 229 133.5 368.5t351.5 139.5t352 -139.5t134 -368.5q0 -223 -134 -359t-354 -136q-218 0 -350.5 136t-132.5 359zM266 477q0 -152 83.5 -245t219.5 -93q138 0 223 93t85 245q0 158 -84.5 254t-221.5 96t-221 -96t-84 -254zM420 1135l225 286l150 -96l-2 -37 q-91 -75 -150.5 -116.5t-163.5 -96.5z" />
<glyph unicode="&#xf4;" horiz-adv-x="1142" d="M86 477q0 229 133.5 368.5t351.5 139.5t352 -139.5t134 -368.5q0 -223 -134 -359t-354 -136q-218 0 -350.5 136t-132.5 359zM258 1163l250 242h125l252 -242l-72 -73l-242 165q-40 -28 -120.5 -83t-120.5 -82zM266 477q0 -152 83.5 -245t219.5 -93q138 0 223 93t85 245 q0 158 -84.5 254t-221.5 96t-221 -96t-84 -254z" />
<glyph unicode="&#xf5;" horiz-adv-x="1142" d="M86 477q0 229 133.5 368.5t351.5 139.5t352 -139.5t134 -368.5q0 -223 -134 -359t-354 -136q-218 0 -350.5 136t-132.5 359zM250 1180q13 67 43.5 112t70.5 63.5t86 17.5t91 -23l112 -54q57 -26 90.5 -9.5t55.5 79.5l96 -23q-12 -68 -44 -115.5t-73.5 -67.5t-88 -19.5 t-89.5 22.5l-113 58q-56 27 -88.5 11.5t-54.5 -75.5zM266 477q0 -152 83.5 -245t219.5 -93q138 0 223 93t85 245q0 158 -84.5 254t-221.5 96t-221 -96t-84 -254z" />
<glyph unicode="&#xf6;" horiz-adv-x="1142" d="M86 477q0 229 133.5 368.5t351.5 139.5t352 -139.5t134 -368.5q0 -223 -134 -359t-354 -136q-218 0 -350.5 136t-132.5 359zM266 477q0 -152 83.5 -245t219.5 -93q138 0 223 93t85 245q0 158 -84.5 254t-221.5 96t-221 -96t-84 -254zM266 1251q0 50 33 80.5t78 30.5 q50 0 81 -29.5t31 -81.5q0 -50 -30.5 -78t-81.5 -28q-45 0 -78 28.5t-33 77.5zM651 1251q0 51 32 81t81 30q46 0 79.5 -30.5t33.5 -80.5q0 -49 -33 -77.5t-80 -28.5q-49 0 -81 28.5t-32 77.5z" />
<glyph unicode="&#xf7;" horiz-adv-x="964" d="M74 420v137h813v-137h-813zM393 176q0 38 24 63t62 25q39 0 62.5 -24.5t23.5 -63.5q0 -37 -23.5 -61.5t-62.5 -24.5q-38 0 -62 24.5t-24 61.5zM393 815q0 37 24 61.5t62 24.5q39 0 62.5 -24.5t23.5 -61.5q0 -39 -23.5 -63.5t-62.5 -24.5q-38 0 -62 25t-24 63z" />
<glyph unicode="&#xf8;" horiz-adv-x="1128" d="M76 475q0 230 133 370t350 138q176 3 301 -92l78 90l59 -57l-77 -86q124 -136 124 -363q2 -221 -131.5 -357t-353.5 -136q-193 0 -315 104l-72 -80l-57 55l71 80q-110 128 -110 334zM256 477q0 -123 51 -203l438 492q-77 61 -184 61q-137 0 -221 -96t-84 -254zM358 213 q80 -74 201 -74q138 0 222.5 93t84.5 245q0 136 -65 230z" />
<glyph unicode="&#xf9;" horiz-adv-x="1134" d="M129 365v602h184v-559q0 -136 42.5 -197t148.5 -61q80 0 159.5 51.5t143.5 128.5v637h184v-967h-184v139q-93 -75 -179.5 -116t-183.5 -41q-162 0 -238.5 93.5t-76.5 289.5zM338 1354l151 96l224 -287l-60 -59q-103 55 -162 96t-151 117z" />
<glyph unicode="&#xfa;" horiz-adv-x="1134" d="M129 365v602h184v-559q0 -136 42.5 -197t148.5 -61q80 0 159.5 51.5t143.5 128.5v637h184v-967h-184v139q-93 -75 -179.5 -116t-183.5 -41q-162 0 -238.5 93.5t-76.5 289.5zM416 1135l225 286l150 -96l-3 -37q-92 -76 -151 -117t-162 -96z" />
<glyph unicode="&#xfb;" horiz-adv-x="1134" d="M129 365v602h184v-559q0 -136 42.5 -197t148.5 -61q80 0 159.5 51.5t143.5 128.5v637h184v-967h-184v139q-93 -75 -179.5 -116t-183.5 -41q-162 0 -238.5 93.5t-76.5 289.5zM254 1163l250 242h125l252 -242l-72 -73l-242 165q-40 -28 -120.5 -83t-120.5 -82z" />
<glyph unicode="&#xfc;" horiz-adv-x="1134" d="M129 365v602h184v-559q0 -136 42.5 -197t148.5 -61q80 0 159.5 51.5t143.5 128.5v637h184v-967h-184v139q-93 -75 -179.5 -116t-183.5 -41q-162 0 -238.5 93.5t-76.5 289.5zM262 1251q0 50 33 80.5t78 30.5q50 0 81 -29.5t31 -81.5q0 -50 -30.5 -78t-81.5 -28 q-45 0 -78 28.5t-33 77.5zM647 1251q0 51 32 81t81 30q46 0 79 -30t33 -81q0 -49 -32.5 -77.5t-79.5 -28.5q-49 0 -81 28.5t-32 77.5z" />
<glyph unicode="&#xfd;" horiz-adv-x="1044" d="M6 965h193l252 -598q7 -15 59 -152q31 62 61 126.5t63.5 146.5t55.5 137.5t66 169t67 170.5h203q-4 -10 -33.5 -83.5t-35.5 -88t-33 -80.5t-35.5 -86.5t-32.5 -78t-36 -84t-33.5 -75t-37 -80.5t-34.5 -72t-37 -75q-91 -175 -203.5 -291t-265.5 -176l-66 158 q159 76 252 184zM371 1135l225 286l149 -96l-2 -37q-92 -76 -151 -117t-162 -96z" />
<glyph unicode="&#xfe;" horiz-adv-x="1150" d="M143 -332v1632h185v-448q173 131 354 131q383 0 383 -498q0 -131 -33.5 -230.5t-91.5 -157.5t-129 -86.5t-152 -28.5q-109 0 -179 32.5t-152 102.5v-449h-185zM326 283q54 -51 85 -76.5t84 -48.5t111 -23q57 0 105 19.5t87.5 60t62 110t22.5 162.5q0 342 -260 342 q-138 0 -295 -149z" />
<glyph unicode="&#xff;" horiz-adv-x="1044" d="M6 965h193l252 -598q7 -15 59 -152q31 62 61 126.5t63.5 146.5t55.5 137.5t66 169t67 170.5h203q-4 -10 -33.5 -83.5t-35.5 -88t-33 -80.5t-35.5 -86.5t-32.5 -78t-36 -84t-33.5 -75t-37 -80.5t-34.5 -72t-37 -75q-91 -175 -203.5 -291t-265.5 -176l-66 158 q159 76 252 184zM217 1251q0 50 33 80.5t78 30.5q50 0 81 -29.5t31 -81.5q0 -50 -30.5 -78t-81.5 -28q-45 0 -78 28.5t-33 77.5zM602 1251q0 51 32 81t81 30q46 0 79 -30t33 -81q0 -49 -32.5 -77.5t-79.5 -28.5q-49 0 -81 28.5t-32 77.5z" />
<glyph unicode="&#x152;" horiz-adv-x="1955" d="M96 623q0 311 155.5 479t438.5 168q161 0 273 -68v47h843v-176h-655v-358h571v-176h-571v-363h672v-176h-860v49q-110 -67 -273 -67q-282 0 -438 167t-156 474zM289 623q0 -227 104 -346t297 -119q175 0 273 88v760q-98 88 -273 88q-193 0 -297 -120.5t-104 -350.5z" />
<glyph unicode="&#x153;" horiz-adv-x="1863" d="M76 477q0 229 133.5 368.5t351.5 139.5q125 0 225.5 -48t163.5 -136q121 184 385 184q203 0 315.5 -122t116.5 -347q0 -47 -6 -84h-717v-6q11 -154 88.5 -225.5t202.5 -71.5q97 0 178 27.5t173 91.5l67 -119q-100 -79 -197.5 -113t-228.5 -34q-260 0 -379 178 q-63 -85 -163.5 -131.5t-225.5 -46.5q-218 0 -350.5 136t-132.5 359zM256 477q0 -152 83.5 -245t219.5 -93q138 0 222.5 93t84.5 245q0 158 -84 254t-221 96t-221 -96t-84 -254zM1047 575h557q-10 127 -80 194t-189 67q-115 0 -192 -64t-96 -197z" />
<glyph unicode="&#x178;" horiz-adv-x="1187" d="M37 1249h192l318 -555q20 -34 47 -106q16 49 47 106l317 555h193l-463 -839v-410h-188v410zM289 1503q0 50 32.5 80.5t77.5 30.5q50 0 81.5 -29.5t31.5 -81.5q0 -50 -31 -78t-82 -28q-45 0 -77.5 28.5t-32.5 77.5zM674 1503q0 51 31.5 81t80.5 30q46 0 79.5 -30.5 t33.5 -80.5q0 -49 -33 -77.5t-80 -28.5q-49 0 -80.5 28t-31.5 78z" />
<glyph unicode="&#x2c6;" horiz-adv-x="999" d="M186 1163l250 242h125l252 -242l-72 -73l-241 165q-40 -27 -121 -82t-121 -83z" />
<glyph unicode="&#x2dc;" horiz-adv-x="999" d="M178 1188q13 67 43.5 112t70.5 63.5t86 17.5t91 -23l113 -53q57 -27 90 -10.5t55 79.5l96 -22q-12 -68 -44 -116t-73.5 -67.5t-88 -19.5t-89.5 22l-112 58q-56 27 -89 11.5t-55 -75.5z" />
<glyph unicode="&#x2000;" horiz-adv-x="870" />
<glyph unicode="&#x2001;" horiz-adv-x="1741" />
<glyph unicode="&#x2002;" horiz-adv-x="870" />
<glyph unicode="&#x2003;" horiz-adv-x="1741" />
<glyph unicode="&#x2004;" horiz-adv-x="580" />
<glyph unicode="&#x2005;" horiz-adv-x="435" />
<glyph unicode="&#x2006;" horiz-adv-x="290" />
<glyph unicode="&#x2007;" horiz-adv-x="290" />
<glyph unicode="&#x2008;" horiz-adv-x="217" />
<glyph unicode="&#x2009;" horiz-adv-x="348" />
<glyph unicode="&#x200a;" horiz-adv-x="96" />
<glyph unicode="&#x2010;" horiz-adv-x="806" d="M129 494v163h549v-163h-549z" />
<glyph unicode="&#x2011;" horiz-adv-x="806" d="M129 494v163h549v-163h-549z" />
<glyph unicode="&#x2012;" horiz-adv-x="806" d="M129 494v163h549v-163h-549z" />
<glyph unicode="&#x2013;" horiz-adv-x="1021" d="M129 494v141h764v-141h-764z" />
<glyph unicode="&#x2014;" horiz-adv-x="1841" d="M129 494v141h1583v-141h-1583z" />
<glyph unicode="&#x2018;" horiz-adv-x="524" d="M156 1006q0 95 54.5 188.5t162.5 167.5l49 -55q-59 -50 -86.5 -97.5t-40.5 -107.5q39 -9 62.5 -38.5t23.5 -68.5q0 -50 -31 -81t-82 -31q-50 0 -81 35t-31 88z" />
<glyph unicode="&#x2019;" horiz-adv-x="524" d="M106 938q59 50 86.5 97.5t40.5 107.5q-38 9 -60.5 37.5t-22.5 68.5q0 50 30 81.5t80 31.5t81.5 -35t31.5 -88q0 -95 -54.5 -188.5t-162.5 -167.5z" />
<glyph unicode="&#x201a;" horiz-adv-x="524" d="M106 -168q59 50 86.5 97.5t40.5 107.5q-38 9 -60.5 37.5t-22.5 68.5q0 50 30 81.5t80 31.5t81.5 -35t31.5 -88q0 -95 -54.5 -188.5t-162.5 -167.5z" />
<glyph unicode="&#x201c;" horiz-adv-x="851" d="M156 1006q0 95 54.5 188.5t162.5 167.5l49 -55q-59 -50 -86.5 -97.5t-40.5 -107.5q39 -9 62.5 -38.5t23.5 -68.5q0 -50 -31 -81t-82 -31q-50 0 -81 35t-31 88zM483 1006q0 95 54.5 188.5t162.5 167.5l50 -55q-59 -50 -86.5 -97.5t-40.5 -107.5q39 -9 62.5 -38.5 t23.5 -68.5q0 -50 -31 -81t-82 -31q-50 0 -81.5 35t-31.5 88z" />
<glyph unicode="&#x201d;" horiz-adv-x="851" d="M106 938q59 50 86.5 97.5t40.5 107.5q-38 9 -60.5 37.5t-22.5 68.5q0 50 30 81.5t80 31.5t81.5 -35t31.5 -88q0 -95 -54.5 -188.5t-162.5 -167.5zM434 938q59 50 86.5 97.5t40.5 107.5q-39 9 -62.5 38t-23.5 68q0 50 31 81.5t82 31.5q50 0 81 -35t31 -88 q0 -95 -54.5 -188.5t-162.5 -167.5z" />
<glyph unicode="&#x201e;" horiz-adv-x="851" d="M106 -168q59 50 86.5 97.5t40.5 107.5q-38 9 -60.5 37.5t-22.5 68.5q0 50 30 81.5t80 31.5t81.5 -35t31.5 -88q0 -95 -54.5 -188.5t-162.5 -167.5zM434 -168q59 50 86.5 97.5t40.5 107.5q-39 9 -62.5 38t-23.5 68q0 50 31 81.5t82 31.5q50 0 81 -35t31 -88 q0 -95 -54.5 -188.5t-162.5 -167.5z" />
<glyph unicode="&#x2022;" horiz-adv-x="651" d="M168 571q0 69 44 113.5t114 44.5q71 0 114 -44t43 -114q0 -69 -43 -113t-114 -44q-70 0 -114 44.5t-44 112.5z" />
<glyph unicode="&#x2026;" horiz-adv-x="1472" d="M131 104q0 50 31 81.5t82 31.5t81.5 -31.5t30.5 -81.5q0 -48 -31 -80t-81 -32t-81.5 32t-31.5 80zM614 104q0 50 31 81.5t82 31.5t82 -31.5t31 -81.5q0 -48 -31.5 -80t-81.5 -32t-81.5 32t-31.5 80zM1096 104q0 50 30.5 81.5t81.5 31.5t82 -31.5t31 -81.5 q0 -48 -31.5 -80t-81.5 -32t-81 32t-31 80z" />
<glyph unicode="&#x202f;" horiz-adv-x="348" />
<glyph unicode="&#x2039;" horiz-adv-x="739" d="M102 504l420 422l96 -92l-247 -259q-4 -4 -84 -73q54 -40 86 -72l245 -258l-94 -88z" />
<glyph unicode="&#x203a;" horiz-adv-x="739" d="M121 172l246 258q12 12 84 74q-53 42 -82 71l-248 259l94 92l418 -422l-420 -422z" />
<glyph unicode="&#x205f;" horiz-adv-x="435" />
<glyph unicode="&#x20ac;" horiz-adv-x="1198" d="M84 383v102h139l-2 62q0 41 2 59h-139v103h152q38 206 166.5 309.5t299.5 103.5q212 0 383 -110l-57 -119q-139 82 -303 82q-48 0 -93 -13.5t-88 -43t-76 -83t-50 -126.5h506l-29 -103h-492q0 -9 -1 -29t-1 -30q0 -12 1 -33t1 -29h459l-28 -102h-416q17 -72 49 -124 t74.5 -79t85.5 -39t92 -12q197 0 338 121l67 -111q-89 -84 -189 -120.5t-241 -36.5q-79 0 -149.5 22t-134 67.5t-109.5 125t-65 186.5h-152z" />
<glyph unicode="&#x2122;" horiz-adv-x="1572" d="M47 1147v102h586v-102h-234v-477h-116v477h-236zM702 670l25 579h119l198 -420q4 -8 9 -22.5t6 -15.5q2 4 5.5 17t6.5 21l197 420h121l24 -579h-113l-14 405l-182 -405h-92l-183 405l-14 -405h-113z" />
<glyph unicode="&#x25fc;" horiz-adv-x="962" d="M0 0v963h963v-963h-963z" />
<glyph unicode="&#xfb03;" horiz-adv-x="1802" d="M43 811v156h135v75q0 171 77 252.5t247 81.5q112 0 188 -18l-14 -139q-64 6 -144 6q-95 0 -132.5 -44t-37.5 -139v-75h472v75q0 172 75 253t244 81q73 0 211 -22l-14 -129q-112 10 -166 10q-93 0 -129.5 -48t-36.5 -145v-75h635v-967h-185v811h-450v-811h-184v811h-472 v-811h-184v811h-135zM1452 1247q0 49 32 76t79 27t78.5 -27t31.5 -76q0 -48 -31.5 -75t-78.5 -27t-79 27.5t-32 74.5z" />
<glyph unicode="&#xfb04;" horiz-adv-x="1785" d="M43 811v156h135v75q0 170 77.5 252t246.5 82q96 0 188 -18l-14 -139q-64 6 -144 6q-95 0 -132.5 -44t-37.5 -139v-75h465v75q0 170 75.5 252t242.5 82q85 0 313 -43v35l184 -2v-1366h-184v1204q-177 21 -282 21q-94 0 -129 -43.5t-35 -139.5v-75h291v-156h-291v-811h-185 v811h-465v-811h-184v811h-135z" />
</font>
</defs>
</svg>
