<?xml version="1.0" standalone="no"?>
<!DOCTYPE svg PUBLIC "-//W3C//DTD SVG 1.1//EN" "http://www.w3.org/Graphics/SVG/1.1/DTD/svg11.dtd" >
<svg xmlns="http://www.w3.org/2000/svg">
<metadata></metadata>
<defs>
<font id="quadonmedium" horiz-adv-x="1456" >
<font-face units-per-em="2048" ascent="1638" descent="-410" />
<missing-glyph horiz-adv-x="499" />
<glyph horiz-adv-x="2048" />
<glyph horiz-adv-x="2048" />
<glyph unicode="&#xd;" horiz-adv-x="2048" />
<glyph unicode=" "  horiz-adv-x="499" />
<glyph unicode="&#x09;" horiz-adv-x="499" />
<glyph unicode="&#xa0;" horiz-adv-x="499" />
<glyph unicode="!" horiz-adv-x="473" d="M109 109q0 120 129 120t129 -120q0 -119 -129 -119t-129 119zM119 1231v203h237v-203l-57 -801h-123z" />
<glyph unicode="&#x22;" horiz-adv-x="669" d="M82 870v564h207v-119q0 -172 -101 -445h-106zM381 870v564h207v-119q0 -172 -101 -445h-106z" />
<glyph unicode="#" horiz-adv-x="1376" d="M45 358v181h236l65 370h-240v183h267l59 342h184l-57 -342h402l57 342h186l-59 -342h186v-183h-213l-65 -370h229v-181h-256l-61 -358h-185l62 358h-402l-61 -358h-186l61 358h-209zM467 539h401l64 370h-400z" />
<glyph unicode="$" horiz-adv-x="1329" d="M123 1049v22q0 191 106.5 279t345.5 94v147h166v-149q210 -9 424 -88v-348h-176l-26 213q-108 50 -265 53v-426l234 -51q153 -38 213.5 -112t60.5 -226v-88q0 -197 -109.5 -285.5t-361.5 -91.5v-135h-168v137q-114 6 -210.5 30t-225.5 76v332h184l27 -207 q120 -57 281 -63v495l-226 52q-160 44 -217 114.5t-57 225.5zM354 1061q0 -72 31 -110t109 -60l129 -29v410h-7q-141 0 -201.5 -43.5t-60.5 -145.5v-22zM698 162h4q160 0 220.5 43t60.5 160v53q0 93 -40 133t-157 70l-88 20v-479z" />
<glyph unicode="%" horiz-adv-x="1863" d="M90 967v147q0 184 64 263t233 79h129q166 0 229.5 -79.5t63.5 -262.5v-147q0 -182 -64 -261t-229 -79h-129q-167 0 -232 79t-65 261zM244 971q0 -111 31 -159t122 -48h105q90 0 121.5 48t31.5 159v139q0 113 -31 161t-122 48h-105q-91 0 -122 -48t-31 -161v-139zM358 -16 l541 737l500 735h94l-537 -735l-503 -737h-95zM1055 317v148q0 185 64.5 264.5t232.5 79.5h129q167 -1 230 -81t63 -263v-148q0 -182 -64 -261t-229 -79h-129q-85 0 -142 19.5t-91 62.5t-48.5 105t-15.5 153zM1208 322q0 -111 31.5 -158t122.5 -47h104q90 0 122 47.5 t32 157.5v141q0 111 -31.5 159t-122.5 48h-104q-91 0 -122.5 -48t-31.5 -159v-141z" />
<glyph unicode="&#x26;" horiz-adv-x="1501" d="M70 393v70q0 147 78 231.5t217 124.5q-54 66 -79.5 124t-25.5 132v29q0 188 92.5 269t292.5 81h43q93 0 175.5 -16t209.5 -56v-274h-176l-20 139q-86 37 -199 37h-23q-98 0 -139 -43t-41 -145v-13q0 -66 21.5 -106.5t83.5 -112.5l405 -405q79 166 107 391h315v-158 q-144 -12 -176 -12q-30 -218 -105 -371l138 -137q13 -1 75.5 -5t104.5 -9v-158h-293l-121 123q-57 -84 -134.5 -109.5t-252.5 -25.5h-86q-106 0 -180 10t-135.5 36t-97.5 72t-55 116.5t-19 170.5zM272 424q0 -144 66 -201t207 -57h88q111 0 164.5 20.5t93.5 83.5 q-81 79 -227 227t-193 195q-96 -27 -147.5 -74t-51.5 -141v-53z" />
<glyph unicode="'" horiz-adv-x="370" d="M82 870v564h207v-119q0 -172 -101 -445h-106z" />
<glyph unicode="(" horiz-adv-x="577" d="M78 96v983q0 70 19 126.5t49.5 97.5t83.5 78t105 62.5t130 57.5l47 -96q-72 -38 -113.5 -67t-73.5 -67t-44.5 -84t-12.5 -112v-977q0 -66 12.5 -112t44.5 -84t73.5 -66t113.5 -67l-47 -97q-78 32 -130 57.5t-105 63t-83.5 78t-49.5 98t-19 127.5z" />
<glyph unicode=")" horiz-adv-x="587" d="M76 -231q72 38 113 66.5t73.5 66.5t44.5 84t12 112v977q0 66 -12 112t-44 84t-73.5 67t-113.5 67l47 96q78 -32 130 -57.5t105 -62.5t83.5 -78t49.5 -97.5t19 -126.5v-983q0 -70 -19 -127.5t-49.5 -98t-83.5 -78t-105 -63t-130 -57.5z" />
<glyph unicode="*" horiz-adv-x="800" d="M66 963l84 49l182 73l-182 72l-84 47l63 109l82 -49l156 -121l-29 194v97h125v-97l-27 -192l154 119l82 49l63 -109l-84 -47l-182 -72l182 -73l84 -49l-63 -109l-82 51l-156 121l29 -197v-96h-125v96l29 199l-156 -123l-82 -51z" />
<glyph unicode="+" horiz-adv-x="1208" d="M102 629v176h410v420h184v-420h410v-176h-410v-420h-184v420h-410z" />
<glyph unicode="," horiz-adv-x="409" d="M70 -219q33 57 51 100t22.5 63t8.5 52l-68 29l22 122q6 38 31.5 55.5t65.5 10.5q69 -11 98 -33t29 -71q0 -151 -203 -369z" />
<glyph unicode="-" horiz-adv-x="770" d="M90 535v176h590v-176h-590z" />
<glyph unicode="." horiz-adv-x="421" d="M82 109q0 120 129 120t129 -120q0 -119 -129 -119t-129 119z" />
<glyph unicode="/" horiz-adv-x="884" d="M-29 -143l803 1745h131l-803 -1745h-131z" />
<glyph unicode="0" horiz-adv-x="1323" d="M119 477v471q0 264 119 385t380 121h95q256 0 372.5 -121t116.5 -385v-471q-2 -260 -119 -380t-370 -120h-95q-258 0 -377 119.5t-122 380.5zM342 473q0 -155 70.5 -230t218.5 -75h61q145 0 217 75t72 230v490q0 157 -71.5 233t-217.5 76h-61q-147 0 -218 -76t-71 -233 v-490z" />
<glyph unicode="1" horiz-adv-x="817" d="M74 1186v162l352 94h125v-1268q87 -3 192 -16v-158h-645v158q114 15 230 18v1057z" />
<glyph unicode="2" horiz-adv-x="1224" d="M123 0v158q0 158 18 247t55.5 139t114.5 97q28 18 57.5 34t71.5 35.5t70 31.5t93 40t99 43q97 43 136 81t39 98v61q0 125 -48.5 168t-185.5 43q-180 0 -297 -62l-18 -145h-168v289q153 55 260 75.5t242 20.5q237 0 333.5 -89t96.5 -308v-62q0 -70 -14.5 -117t-55 -85 t-88 -63.5t-137.5 -63.5q-40 -18 -122.5 -50.5t-146 -60t-96.5 -49.5q-67 -43 -84.5 -106t-17.5 -234h598l18 217h150v-383h-973z" />
<glyph unicode="3" horiz-adv-x="1173" d="M86 55v295h150l18 -157q196 -37 336 -37q106 0 159 18.5t74 62.5t21 132v75q0 41 -6.5 70.5t-15 50.5t-33.5 34t-43.5 20.5t-64 11t-77.5 4t-100 0.5h-178v166h178q72 0 104 0.5t78.5 4t64 12.5t42 23.5t32 38.5t13.5 57.5t6 80.5v45q0 126 -53.5 172.5t-200.5 46.5 q-134 0 -318 -45l-18 -174h-150v307q296 80 488 80q258 0 360.5 -82.5t102.5 -286.5v-63q0 -146 -40 -216t-122 -91q81 -20 121.5 -84t40.5 -191v-86q0 -203 -102 -282.5t-361 -79.5q-200 0 -506 67z" />
<glyph unicode="4" horiz-adv-x="1251" d="M29 391v164l723 879h221v-879h198v-143l-198 -21v-225q134 -8 201 -16v-150h-629v150q114 13 207 16v225h-723zM260 555h492v631z" />
<glyph unicode="5" horiz-adv-x="1173" d="M74 55v291h149l21 -160q194 -34 342 -34q118 0 180 22.5t86.5 72.5t24.5 144v144q0 85 -42.5 130.5t-121.5 45.5h-135q-87 0 -146.5 -20.5t-138.5 -76.5l-174 50l31 770h897v-316h-150l-10 146h-555l-25 -480q81 47 156 66.5t168 19.5h131q160 0 242.5 -73t82.5 -236 v-186q0 -146 -44.5 -229.5t-148.5 -122.5t-288 -39q-210 0 -532 71z" />
<glyph unicode="6" horiz-adv-x="1265" d="M119 465v469q0 257 130 388.5t386 131.5q143 0 243 -15t252 -53v-286h-182l-28 135q-132 35 -283 35q-295 0 -295 -324v-196q97 56 182 85t207 37h78q212 0 298.5 -80.5t86.5 -275.5v-143q0 -201 -115 -294t-346 -93h-106q-253 0 -380 115.5t-128 363.5zM342 438 q0 -142 72.5 -205t216.5 -63h100q127 2 190.5 57.5t63.5 175.5v84q0 123 -51.5 174.5t-175.5 51.5h-64q-100 0 -179 -24t-173 -75v-176z" />
<glyph unicode="7" horiz-adv-x="1161" d="M66 1057v377h1042v-170l-569 -1264h-260v45l618 1208h-653l-29 -196h-149z" />
<glyph unicode="8" horiz-adv-x="1355" d="M106 367v36q0 141 70.5 221t222.5 103q-121 28 -177 100t-56 201v76q2 177 109.5 260.5t336.5 83.5h142q225 0 330.5 -83.5t105.5 -260.5v-76q0 -130 -54 -201.5t-175 -97.5q151 -24 219.5 -104t68.5 -222v-36q0 -198 -112 -294t-353 -96h-200q-245 0 -360.5 96 t-117.5 294zM328 381q0 -114 65 -170.5t203 -56.5h168q135 0 199.5 56.5t64.5 170.5v68q0 213 -264 213h-168q-268 0 -268 -213v-68zM365 1016q0 -106 60.5 -152.5t192.5 -46.5h121q132 0 192 46.5t60 152.5v69q0 105 -60.5 154t-189.5 49h-123q-131 0 -192 -49t-61 -154 v-69z" />
<glyph unicode="9" horiz-adv-x="1265" d="M70 920v141q0 194 113.5 293.5t330.5 99.5h141q258 0 373 -115t117 -370v-475q0 -273 -127.5 -391.5t-415.5 -118.5q-115 0 -206.5 15.5t-254.5 55.5v301h199l10 -149q140 -39 250 -39q172 0 248 70.5t76 238.5v193q-74 -37 -118.5 -55.5t-117 -34t-153.5 -15.5h-78 q-213 0 -300 80t-87 275zM279 948q0 -123 51 -173t176 -50h63q105 0 187 22t168 68v184q0 144 -68.5 209t-222.5 64h-101q-253 0 -253 -240v-84z" />
<glyph unicode=":" horiz-adv-x="421" d="M82 109q0 120 129 120t129 -120q0 -119 -129 -119t-129 119zM82 950q0 121 129 121t129 -121q0 -119 -129 -119t-129 119z" />
<glyph unicode=";" horiz-adv-x="421" d="M70 -219q33 57 51 100t22.5 63t8.5 52l-68 29l22 122q6 38 31.5 55.5t65.5 10.5q69 -11 98 -33t29 -71q0 -151 -203 -369zM82 950q0 121 129 121t129 -121q0 -119 -129 -119t-129 119z" />
<glyph unicode="&#x3c;" horiz-adv-x="1107" d="M82 649v115l831 440h88v-131l-698 -358v-8l698 -359v-135h-94z" />
<glyph unicode="=" horiz-adv-x="1130" d="M102 383v178h924v-178h-924zM102 860v178h924v-178h-924z" />
<glyph unicode="&#x3e;" horiz-adv-x="1107" d="M106 213v135l699 359v8l-699 358v131h89l831 -440v-115l-825 -436h-95z" />
<glyph unicode="?" horiz-adv-x="1040" d="M39 1079v279q158 57 257 76.5t241 19.5q236 0 335 -83t99 -290v-53q0 -127 -42 -192.5t-136 -102.5q-57 -21 -157 -55.5t-132 -46.5v-217h-170l-27 329q206 69 320 113q71 27 100 65.5t29 98.5v53q0 125 -48 168t-190 43q-92 0 -157 -13t-138 -46l-16 -146h-168zM289 109 q0 120 129 120t129 -120q0 -119 -129 -119t-129 119z" />
<glyph unicode="@" horiz-adv-x="2117" d="M131 471q0 217 71.5 399t203 313t327 204t434.5 73q380 0 600 -198.5t220 -544.5q0 -290 -135 -459.5t-377 -169.5q-32 0 -51 1t-48.5 4t-48 11.5t-38.5 22t-32 36t-18 52.5q-78 -80 -150 -117t-192 -37h-35q-152 0 -232 95.5t-59 285.5l27 250q15 156 107.5 246 t222.5 90h47q97 0 169 -20.5t159 -65.5l8 86h196l-82 -690q-10 -93 21 -123.5t102 -30.5q154 0 248 140.5t94 382.5q0 312 -191 488.5t-532 176.5q-221 0 -399.5 -67.5t-296.5 -187t-181 -284t-63 -358.5q0 -346 217.5 -539.5t591.5 -193.5q163 0 328.5 40t294.5 105l33 -73 q-128 -72 -304 -116t-356 -44q-272 0 -475 96t-314.5 281.5t-111.5 439.5zM760 483q-11 -146 31.5 -208t154.5 -62h27q86 0 140.5 26t123.5 87l4 16l45 473q-123 72 -256 72h-45q-91 0 -146 -63.5t-67 -192.5z" />
<glyph unicode="A" horiz-adv-x="1630" d="M45 0v158q106 13 182 16l369 1088q-54 3 -162 14v158h529l432 -1260q87 -3 188 -16v-158h-582v158q61 7 148 14l-90 256h-527l-79 -256q12 -1 127 -14v-158h-535zM578 616h434l-215 631h-9z" />
<glyph unicode="B" horiz-adv-x="1388" d="M74 1276v158h714q241 0 348 -90t107 -289v-27q0 -227 -186 -289q102 -25 158.5 -104t56.5 -209v-39q0 -142 -48.5 -227t-146 -122t-258.5 -38h-741v158q99 10 170 14v1088q-16 2 -73 7t-101 9zM471 182h317q259 0 259 236v37q0 105 -63.5 148.5t-195.5 43.5h-317v-465z M471 817h317q127 0 183.5 45.5t56.5 151.5v26q0 112 -51.5 161.5t-181.5 49.5h-324v-434z" />
<glyph unicode="C" horiz-adv-x="1331" d="M123 465v469q0 257 126.5 388.5t377.5 131.5h84q271 0 501 -78v-372h-184l-27 231q-52 18 -119 26.5t-107 9.5t-140 1q-141 0 -215 -82.5t-74 -241.5v-497q0 -287 289 -287h106q220 0 301 184h185v-168q-85 -97 -210 -150t-263 -53h-140q-249 0 -368.5 118t-122.5 370z " />
<glyph unicode="D" horiz-adv-x="1480" d="M74 1276v158h796q252 -2 372 -119.5t120 -366.5v-469q-1 -245 -121.5 -362t-368.5 -117h-794v158q43 5 100.5 10t69.5 6v1086q-13 1 -70.5 6t-103.5 10zM471 182h379q141 0 216 72.5t75 208.5v504q0 138 -74.5 211t-216.5 73h-379v-1069z" />
<glyph unicode="E" horiz-adv-x="1318" d="M74 1276v158h1110v-387h-142l-28 208h-549v-436h416v-190h-416v-451h567l29 209h141v-387h-1124v158q42 4 95.5 8t68.5 6v1090q-16 2 -69.5 6t-98.5 8z" />
<glyph unicode="F" horiz-adv-x="1284" d="M74 1276v158h1128v-387h-141l-29 208h-567v-477h465v-190h-465v-416q17 -1 104.5 -6t120.5 -8v-158h-612v158q54 6 164 14v1090q-59 3 -168 14z" />
<glyph unicode="G" horiz-adv-x="1421" d="M123 469v440q0 257 138.5 401t389.5 144h80q90 0 246.5 -20.5t282.5 -57.5v-379h-183l-28 222q-114 38 -377 38q-152 0 -239 -92t-87 -252v-460q0 -137 81 -208t232 -71h168q120 0 195.5 62t75.5 165v140q-75 3 -430 22v164h632v-342q0 -85 -29.5 -155t-77.5 -116 t-111.5 -77.5t-129.5 -45.5t-133 -14h-182q-259 0 -386.5 120.5t-127.5 371.5z" />
<glyph unicode="H" horiz-adv-x="1622" d="M74 0v158q46 5 174 14v1090q-55 2 -174 14v158h538v-158q-74 -9 -141 -12v-447h686v447q-72 3 -145 12v158h536v-158q-113 -12 -170 -14v-1090q120 -9 170 -14v-158h-536v158q73 9 145 12v461h-686v-461q67 -3 141 -12v-158h-538z" />
<glyph unicode="I" horiz-adv-x="702" d="M74 1276v158h555v-158q-116 -12 -164 -14v-1090q48 -2 164 -14v-158h-551v158q54 6 164 14v1090q-53 2 -168 14z" />
<glyph unicode="J" horiz-adv-x="718" d="M66 -221q41 45 73 84q78 87 105.5 161t27.5 209v1029q-57 2 -170 14v158h555v-158q-111 -12 -163 -14v-1031q0 -166 -37.5 -252t-155.5 -192q-56 -46 -139 -102z" />
<glyph unicode="K" horiz-adv-x="1548" d="M74 1276v158h555v-158q-116 -12 -164 -14v-449h309l322 451q-68 3 -138 12v158h531v-158q-83 -9 -158 -12l-377 -531l381 -561q55 -2 174 -14v-158h-559v158q6 1 135 8l-299 459h-321v-453q48 -2 164 -14v-158h-551v158q54 6 164 14v1090q-53 2 -168 14z" />
<glyph unicode="L" horiz-adv-x="1280" d="M74 1276v158h583v-158q-79 -13 -192 -16v-1082h561l27 238h149v-416h-1124v158q110 11 164 14v1090q-113 8 -168 14z" />
<glyph unicode="M" horiz-adv-x="1953" d="M74 1276v158h463l421 -1100h5l444 1100h473v-158q-143 -14 -176 -16v-1088q52 -2 172 -14v-158h-526v158q75 9 139 12v991l-459 -1161h-149l-422 1161v-989q91 -7 149 -14v-158h-530v158q125 12 170 14v1088q-81 5 -174 16z" />
<glyph unicode="N" horiz-adv-x="1615" d="M74 1276v158h387l713 -1094v924q-69 3 -146 12v158h514v-158q-53 -7 -170 -16v-1260h-235l-691 1073v-903q69 -3 142 -12v-158h-510v158q120 12 170 14v1088q-30 2 -174 16z" />
<glyph unicode="O" d="M119 502v422q0 250 135 390t389 140h180q249 0 382.5 -140.5t133.5 -389.5v-422q0 -247 -134.5 -386t-381.5 -139h-180q-251 0 -386.5 139t-137.5 386zM342 492q0 -157 80 -236.5t233 -79.5h146q154 0 234.5 79.5t80.5 236.5v446q0 317 -315 317h-146q-151 0 -232 -82.5 t-81 -234.5v-446z" />
<glyph unicode="P" horiz-adv-x="1347" d="M74 1276v158h743q228 -1 338.5 -103.5t110.5 -308.5v-119q0 -198 -111 -296.5t-338 -98.5h-346v-334q80 -3 178 -16v-158h-571v158q59 6 170 14v1088q-16 2 -73 7t-101 9zM471 692h330q126 0 192 62.5t66 179.5v74q0 118 -65 180.5t-193 62.5h-330v-559z" />
<glyph unicode="Q" d="M119 502v422q0 250 135 390t389 140h180q249 0 382.5 -140.5t133.5 -389.5v-422q0 -247 -134.5 -386t-381.5 -139h-180q-251 0 -386.5 139t-137.5 386zM342 485q0 -157 79.5 -236t233.5 -79h146q154 0 234.5 79t80.5 236v459q0 159 -80 239.5t-235 80.5h-146 q-151 0 -232 -84t-81 -236v-459zM586 -150q277 59 444 70q20 1 39 1q111 0 171 -45q70 -52 95 -161l-155 -114q-42 106 -91.5 143.5t-146.5 40.5q-17 1 -37 1q-118 0 -319 -26v90z" />
<glyph unicode="R" horiz-adv-x="1429" d="M74 1276v158h737q465 0 465 -404v-102q0 -259 -254 -363q114 -183 203 -393q14 -2 68 -6t96 -8v-158h-402v170q-89 235 -164 358h-352v-360q47 -2 141 -10v-158h-534v158q113 12 170 14v1088q-16 2 -73 7t-101 9zM471 723h338q124 0 190 58.5t66 160.5v74 q0 112 -65.5 173.5t-190.5 61.5h-338v-528z" />
<glyph unicode="S" horiz-adv-x="1329" d="M123 1053v24q0 201 115 289t376 88h52q251 0 499 -90v-354h-176l-26 217q-114 53 -293 53h-54q-142 0 -202 -43t-60 -147v-25q0 -73 31.5 -111.5t108.5 -60.5l438 -98q153 -38 213.5 -113.5t60.5 -228.5v-91q0 -204 -113.5 -293t-377.5 -89h-68q-146 0 -257 24.5 t-259 85.5v338h184l27 -211q131 -63 332 -63h28q161 0 221 43t60 161v56q0 93 -40 133.5t-157 70.5l-389 91q-160 44 -217 115.5t-57 228.5z" />
<glyph unicode="T" horiz-adv-x="1409" d="M66 1032v402h1277v-402h-155l-14 217h-357v-1077q71 -3 176 -14v-158h-575v158q24 3 176 14v1077h-358l-17 -217h-153z" />
<glyph unicode="U" horiz-adv-x="1562" d="M70 1276v158h559v-158q-79 -11 -174 -14v-809q0 -138 75 -214.5t213 -76.5h107q139 0 214 77t75 214v811q-73 3 -156 12v158h510v-158q-46 -5 -147 -14v-785q0 -254 -120.5 -377t-369.5 -123h-125q-252 0 -375 123.5t-123 376.5v785q-104 8 -163 14z" />
<glyph unicode="V" horiz-adv-x="1552" d="M39 1276v158h567v-158q-78 -7 -178 -14l336 -1039h29l327 1039q-142 10 -178 14v158h571v-158q-107 -12 -153 -14l-426 -1262h-326l-422 1262q-98 8 -147 14z" />
<glyph unicode="W" horiz-adv-x="2080" d="M31 1276v158h547v-158q-77 -8 -172 -12l245 -1010h17l290 1180h185l293 -1174h18l254 1004q-97 4 -172 12v158h512v-158q-49 -6 -139 -14l-336 -1262h-277l-243 1032h-4l-248 -1032h-303l-330 1264q-66 3 -137 12z" />
<glyph unicode="X" horiz-adv-x="1447" d="M33 1276v158h559v-158q-46 -4 -137 -8l301 -443h4l274 439q-74 3 -153 12v158h534v-158q-41 -5 -151 -14l-377 -543l389 -551q90 -4 139 -10v-158h-538v158q27 2 76 4t53 2l-299 450h-5l-266 -446q99 -4 148 -10v-158h-535v158q44 5 150 14l370 545l-399 549 q-87 4 -137 10z" />
<glyph unicode="Y" horiz-adv-x="1454" d="M39 1276v158h526v-158q-94 -8 -137 -8l301 -590h8l301 588q-94 4 -145 10v158h522v-158q-51 -7 -160 -16l-424 -752v-336q53 -2 164 -14v-158h-549v158q57 6 164 14v328l-422 762q-98 8 -149 14z" />
<glyph unicode="Z" horiz-adv-x="1286" d="M94 0v135q0 33 25 64l813 1065h-653l-31 -234h-154v404h1102v-156l-811 -1104h631l26 246h156v-420h-1104z" />
<glyph unicode="[" horiz-adv-x="661" d="M119 -283v1743h477v-145h-285v-1456h285v-142h-477z" />
<glyph unicode="\" horiz-adv-x="884" d="M-20 1602h131l802 -1745h-131z" />
<glyph unicode="]" horiz-adv-x="661" d="M66 -141h284v1456h-284v145h477v-1743h-477v142z" />
<glyph unicode="^" horiz-adv-x="817" d="M45 961v75l315 402h101l311 -402v-75h-119l-237 296h-8l-238 -296h-125z" />
<glyph unicode="_" horiz-adv-x="1167" d="M-4 -199h1175v-112h-1175v112z" />
<glyph unicode="`" horiz-adv-x="1024" d="M324 1413v31l157 78l207 -273l-86 -55z" />
<glyph unicode="a" horiz-adv-x="1245" d="M113 270v43q0 68 15.5 117.5t39 79.5t65.5 50t81.5 29t99.5 17q89 10 230 23.5t194 19.5v53q0 133 -51 181.5t-173 48.5q-150 0 -260 -37l-12 -129h-160v262q97 27 225.5 43t221.5 16h78q344 0 344 -372v-551q35 -2 145 -12v-150h-358v145q-108 -85 -194.5 -124 t-203.5 -39h-37q-82 0 -132 10t-88 40.5t-54 87t-16 148.5zM334 293q0 -88 34.5 -121t127.5 -33h32q80 0 153 38t157 112v246q-203 -20 -334 -39q-98 -12 -134 -45.5t-36 -118.5v-39z" />
<glyph unicode="b" horiz-adv-x="1261" d="M76 1284v150h350v-469q123 71 200.5 96.5t198.5 25.5h37q138 0 217.5 -85.5t79.5 -253.5v-392q0 -372 -338 -372h-30q-191 0 -578 26v1260q-90 8 -137 14zM426 160q142 -17 297 -17h33q98 0 144 59t46 193v256q0 142 -38.5 205.5t-131.5 63.5h-39q-89 0 -153 -19.5 t-158 -77.5v-663z" />
<glyph unicode="c" horiz-adv-x="1107" d="M102 393v285q0 197 112 303t312 106h84q196 0 394 -73v-299h-160l-21 172q-66 22 -121 30.5t-145 8.5q-121 0 -181.5 -62.5t-60.5 -197.5v-281q0 -129 60 -184.5t178 -55.5h68q166 0 221 115l6 25h170v-154q-70 -70 -175 -112t-216 -42h-113q-214 0 -313 102t-99 314z " />
<glyph unicode="d" horiz-adv-x="1243" d="M102 356v379q0 169 81.5 258.5t219.5 89.5h35q125 0 195.5 -21.5t202.5 -94.5v317q-25 5 -160 16v134h373v-1270q39 -2 145 -12v-150h-358v160q-115 -91 -203 -134.5t-203 -43.5h-37q-138 0 -214.5 90.5t-76.5 281.5zM315 416q0 -136 41 -194t138 -58h32q82 0 150 29 t160 96v532q-105 59 -160.5 73.5t-149.5 14.5h-37q-93 0 -133.5 -57t-40.5 -170v-266z" />
<glyph unicode="e" horiz-adv-x="1165" d="M102 430v223q0 216 117 325t344 109h66q221 0 327.5 -101.5t106.5 -311.5v-240h-754v-74q0 -114 64 -170.5t180 -56.5h86q171 0 219 107l8 32h168v-141q-67 -75 -174 -114.5t-227 -39.5h-70q-243 0 -352 108t-109 345zM309 586h563v129q0 108 -65.5 164.5t-181.5 56.5 h-62q-120 0 -187 -60.5t-67 -175.5v-114z" />
<glyph unicode="f" horiz-adv-x="806" d="M74 905v137q16 2 153 13v121q0 237 222 282q79 16 249 39l21 -145q-18 -5 -79.5 -18t-107.5 -27q-54 -16 -73 -52.5t-19 -107.5v-84h316v-158h-316v-739q122 -8 183 -16v-150h-541v150q78 9 145 12v743h-153z" />
<glyph unicode="g" horiz-adv-x="1280" d="M80 -100q0 139 147 243q-50 19 -70 49.5t-20 88.5v36q0 61 31.5 100.5t101.5 82.5q-92 71 -92 227v53q0 171 102 239t338 68h50q138 0 233 -24h313v-133q-35 -4 -82 -9.5t-73 -7.5q35 -46 35 -137v-71q0 -165 -97 -233.5t-305 -68.5h-106q-146 0 -219 43q-49 -31 -59 -44 q-11 -15 -11 -40v-22q0 -42 36.5 -56t133.5 -14h420q158 0 223.5 -57t65.5 -195v-49q0 -173 -122 -248t-352 -75h-227q-123 0 -199 10.5t-120 37t-60 65t-16 100.5v41zM260 -43v-31q0 -77 38 -104t157 -27h270q138 0 202 34t64 118v30q0 78 -29.5 105t-117.5 27h-367 q-88 0 -119 2q-98 -70 -98 -154zM385 719q0 -95 58.5 -127.5t187.5 -32.5h31q121 0 177 32t56 128v69q0 95 -53 130.5t-168 35.5h-43q-127 0 -186.5 -35.5t-59.5 -130.5v-69z" />
<glyph unicode="h" horiz-adv-x="1380" d="M82 0v150q81 9 145 12v1108q-90 8 -137 14v150h350v-549q126 96 232 149t219 53h22q136 0 198.5 -65.5t62.5 -218.5v-639l157 -14v-150h-370v692q0 135 -27 175t-123 40h-25q-80 0 -163 -38.5t-183 -110.5v-596q66 -3 146 -12v-150h-504z" />
<glyph unicode="i" horiz-adv-x="634" d="M82 0v150q81 9 145 12v735q-21 2 -66.5 7t-70.5 7v152h350v-901q66 -3 146 -12v-150h-504zM205 1350q0 53 35.5 84.5t89.5 31.5q55 0 91 -31.5t36 -84.5q0 -50 -36 -81.5t-91 -31.5q-53 0 -89 31.5t-36 81.5z" />
<glyph unicode="j" horiz-adv-x="573" d="M12 -217q49 53 74 84q80 89 106.5 147t26.5 160v723q-94 8 -141 14v152h354v-889q0 -90 -16.5 -148t-55 -108.5t-120.5 -124.5q-64 -53 -140 -104zM190 1350q0 52 36 84t89 32q55 0 92 -31.5t37 -84.5q0 -50 -37 -81.5t-92 -31.5q-52 0 -88.5 31.5t-36.5 81.5z" />
<glyph unicode="k" horiz-adv-x="1316" d="M82 0v150q81 9 145 12v1108q-90 8 -137 14v150h350v-783h267l180 252q-14 1 -55.5 4t-67.5 4v152h491v-152q-78 -9 -139 -12l-250 -330l267 -407q26 -2 131 -15v-147h-353v150l-204 323h-267v-311q66 -3 146 -12v-150h-504z" />
<glyph unicode="l" horiz-adv-x="653" d="M82 0v150q81 9 145 12v1108q-90 8 -137 14v150h350v-1272q66 -3 146 -12v-150h-504z" />
<glyph unicode="m" horiz-adv-x="2066" d="M82 0v150q81 9 145 12v735q-21 2 -66.5 7t-70.5 7v152h350v-164q114 91 213 139.5t209 48.5h25q116 0 172.5 -45t73.5 -159q122 99 224.5 151.5t219.5 52.5h25q134 0 196 -65.5t62 -218.5v-639l157 -14v-150h-370v692q0 135 -27 175t-123 40h-24q-79 0 -155.5 -36.5 t-172.5 -110.5v-596l158 -14v-150h-371v692q0 135 -27 175t-123 40h-24q-76 0 -150 -35.5t-168 -107.5v-602q66 -3 146 -12v-150h-504z" />
<glyph unicode="n" horiz-adv-x="1380" d="M82 0v150q81 9 145 12v735q-21 2 -66.5 7t-70.5 7v152h350v-178q126 96 232 149t219 53h22q136 0 198.5 -65.5t62.5 -218.5v-639l157 -14v-150h-370v692q0 135 -27 175t-123 40h-25q-80 0 -163 -38.5t-183 -110.5v-596q66 -3 146 -12v-150h-504z" />
<glyph unicode="o" horiz-adv-x="1218" d="M102 428v201q0 234 111.5 346t351.5 112h97q236 0 345 -112t109 -346v-201q0 -230 -109.5 -340.5t-342.5 -110.5h-99q-238 0 -350.5 110.5t-112.5 340.5zM315 367q0 -114 62 -172t182 -58h100q120 0 182 58t62 172v325q0 117 -62 176.5t-182 59.5h-100q-120 0 -182 -59.5 t-62 -176.5v-325z" />
<glyph unicode="p" horiz-adv-x="1275" d="M82 -209q115 9 145 10v1096q-21 2 -66.5 7t-70.5 7v152h350v-141q121 83 212.5 124t205.5 41h35q281 0 281 -372v-391q0 -167 -79.5 -253.5t-217.5 -86.5h-35q-121 0 -198 23t-204 87v-293q123 -5 183 -10v-151h-541v151zM440 250q94 -60 159 -80t155 -20h37 q95 0 132.5 59.5t37.5 202.5v243q0 139 -35.5 195.5t-130.5 56.5h-33q-84 0 -158.5 -30t-163.5 -95v-532z" />
<glyph unicode="q" horiz-adv-x="1230" d="M102 324v391q0 190 88 281t248 91h35q155 0 563 -24v-1262q31 -1 146 -10v-151h-529v151q40 2 94 5.5t76 4.5v293q-126 -65 -197.5 -87.5t-191.5 -22.5h-35q-138 0 -217.5 86.5t-79.5 253.5zM315 418q0 -143 38 -205.5t134 -62.5h35q88 0 146 19.5t155 80.5v649 q-134 14 -284 14h-33q-99 0 -145 -57.5t-46 -191.5v-246z" />
<glyph unicode="r" horiz-adv-x="915" d="M82 0v150q81 9 145 12v735q-21 2 -66.5 7t-70.5 7v152h350v-199q84 108 160.5 158.5t179.5 50.5h90v-196q-89 -3 -155 -9q-82 -2 -146 -32.5t-129 -106.5v-567q51 -2 158 -12v-150h-516z" />
<glyph unicode="s" horiz-adv-x="1103" d="M104 96v234h166l11 -115q30 -48 101 -67t138 -19h68q108 0 159.5 38t51.5 126v29q0 72 -61.5 101t-276.5 69q-109 20 -177 42.5t-109 55.5t-56 73.5t-15 102.5v45q0 140 101 208t305 68h37q94 0 216 -19t210 -58v-246h-174l-17 137q-92 41 -245 41q-123 0 -181.5 -32 t-58.5 -103v-14q0 -70 47.5 -93t226.5 -56q51 -10 80 -15q198 -39 273 -96.5t75 -178.5v-53q0 -169 -97.5 -246.5t-297.5 -77.5h-80q-70 0 -136.5 6.5t-153 35t-130.5 77.5z" />
<glyph unicode="t" horiz-adv-x="829" d="M55 903v160h107q27 0 37 10t10 35v248q104 17 194 20v-313h314v-160h-314v-541q0 -124 25.5 -164t106.5 -40h18q121 0 195 6v-123q-141 -64 -299 -64h-23q-121 0 -178.5 68.5t-57.5 216.5v641h-135z" />
<glyph unicode="u" horiz-adv-x="1378" d="M74 911v152h370v-668q0 -135 27 -175t123 -40h24q143 0 347 150v567l-158 14v152h371v-899q37 -2 149 -12v-150h-362v186q-64 -43 -106 -69t-103.5 -57.5t-121.5 -46.5t-120 -15h-22q-147 0 -204 60.5t-57 224.5v612z" />
<glyph unicode="v" horiz-adv-x="1302" d="M29 911v152h501v-152q-31 -1 -78 -4t-63 -4l260 -719h2l287 715q-61 3 -139 12v152h475v-152q-54 -7 -160 -16l-362 -895h-226l-356 897q-105 10 -141 14z" />
<glyph unicode="w" horiz-adv-x="1802" d="M33 911v152h463v-152q-20 -2 -67 -5t-71 -5l187 -698h4l264 860h168l272 -860h4l191 696q-61 3 -139 12v152h463v-152q-82 -9 -140 -12l-256 -899h-254l-227 727l-233 -727h-242l-256 899q-23 1 -68 6t-63 6z" />
<glyph unicode="x" horiz-adv-x="1224" d="M33 0v150q60 9 123 12l290 373l-266 362q-37 2 -147 14v152h506v-152q-11 0 -55.5 -3t-67.5 -3l211 -303h2l205 299q-19 2 -60.5 5t-58.5 5v152h479v-152q-93 -9 -156 -12l-272 -364l281 -369q94 -8 147 -16v-150h-508v150q70 6 127 6l-233 317h-2l-216 -313 q27 -1 148 -10v-150h-477z" />
<glyph unicode="y" horiz-adv-x="1349" d="M29 911v152h522v-152q-90 -9 -170 -12l281 -700h4l305 700q-55 3 -135 12v152h485v-152q-56 -7 -162 -16l-463 -1063q31 0 74 -3t51 -3v-152h-536v152q41 2 204 8l64 146l-395 919q-23 1 -66.5 5.5t-62.5 6.5z" />
<glyph unicode="z" horiz-adv-x="1136" d="M74 0v129q0 46 39 74l678 704h-539l-16 -184h-121v340h929v-154l-702 -749h553l37 194h119l-7 -354h-970z" />
<glyph unicode="{" horiz-adv-x="743" d="M57 524v158l174 18v379q0 70 19.5 126.5t50.5 97.5t84 78t105.5 62.5t130.5 57.5l47 -96q-72 -38 -113.5 -67t-73.5 -67t-44.5 -84t-12.5 -112v-977q0 -66 12.5 -112t44.5 -84t73.5 -66t113.5 -67l-47 -97q-78 32 -130 57.5t-106 63t-84.5 78t-50 98t-19.5 127.5v408z " />
<glyph unicode="|" horiz-adv-x="489" d="M197 -264v1861h98v-1861h-98z" />
<glyph unicode="}" horiz-adv-x="743" d="M76 -231q72 38 113 66.5t73.5 66.5t44.5 84t12 112v977q0 66 -12 112t-44 84t-73.5 67t-113.5 67l47 96q78 -32 130 -57.5t105.5 -62.5t84 -78t50 -97.5t19.5 -126.5v-379l174 -18v-158l-174 -20v-408q0 -70 -19.5 -127.5t-50 -98t-84 -78t-105.5 -63t-130 -57.5z" />
<glyph unicode="&#xa1;" horiz-adv-x="473" d="M109 1171q0 119 129 119t129 -119q0 -120 -129 -120t-129 120zM119 49l57 801h123l57 -801v-203h-237v203z" />
<glyph unicode="&#xa2;" horiz-adv-x="1107" d="M102 393v285q0 189 102.5 294.5t287.5 114.5v132h165v-132q168 -8 347 -73v-299h-160l-21 172q-111 37 -223 39v-781h21q166 0 221 115l6 25h170v-154q-66 -66 -165 -108t-204 -46v-120h-164v120q-198 7 -290.5 109.5t-92.5 306.5zM315 385q0 -125 57.5 -181t168.5 -59 v781q-113 -5 -169.5 -67t-56.5 -193v-281z" />
<glyph unicode="&#xa3;" horiz-adv-x="1249" d="M57 582v127h193l-39 243q-56 502 418 502h82q228 0 458 -78l-24 -348h-166l-21 203q-48 21 -111.5 31.5t-102 12t-103.5 1.5q-126 0 -181.5 -80.5t-29.5 -234.5l43 -252h430l-20 -127h-394l7 -45q10 -58 -0.5 -109t-40 -95.5t-63 -79t-83.5 -75.5h701l28 238h150v-416 h-1116v158q48 41 80 75t62.5 81t41.5 101t2 115l-8 52h-193z" />
<glyph unicode="&#xa5;" horiz-adv-x="1454" d="M39 1276v158h526v-158q-94 -8 -137 -8l301 -590h8l301 588q-94 4 -145 10v158h522v-158q-51 -7 -160 -16l-331 -590h278v-86h-328l-43 -76v-64h371v-86h-371v-186q53 -2 164 -14v-158h-549v158q57 6 164 14v186h-364v86h364v56l-47 84h-317v86h270l-328 592 q-98 8 -149 14z" />
<glyph unicode="&#xa7;" horiz-adv-x="1382" d="M125 719v61q0 66 47 116.5t131 80.5q-82 47 -82 168v16q0 108 36 170t127 92.5t255 30.5h43q245 0 455 -88v-260h-150l-14 139q-43 28 -128.5 45t-172.5 17h-29q-94 0 -145.5 -18.5t-68.5 -49t-17 -82.5v-12q0 -60 27 -84t108 -39l442 -74q161 -27 218 -72.5t57 -160.5 v-60q0 -75 -34.5 -123t-111.5 -75q35 -27 48.5 -65.5t13.5 -100.5v-19q0 -107 -40 -169t-136.5 -92.5t-266.5 -30.5h-43q-241 0 -456 90v260h155l17 -144q108 -57 280 -57h43q143 0 199.5 36.5t56.5 113.5v12q0 61 -22.5 84.5t-100.5 38.5l-467 71q-160 27 -217 73.5 t-57 160.5zM293 739q0 -55 31 -79.5t122 -41.5l476 -73q16 -1 77 -15q59 21 78 50.5t19 74.5v41q0 55 -31.5 79.5t-122.5 39.5l-469 78q-39 6 -65 14q-112 -46 -115 -127v-41z" />
<glyph unicode="&#xa8;" horiz-adv-x="1024" d="M213 1350q0 43 30.5 70.5t75.5 27.5t76 -27.5t31 -70.5q0 -42 -31 -68.5t-76 -26.5t-75.5 26.5t-30.5 68.5zM598 1350q0 43 30 70.5t74 27.5q47 0 78 -27t31 -71q0 -42 -31 -68.5t-78 -26.5q-44 0 -74 26.5t-30 68.5z" />
<glyph unicode="&#xa9;" horiz-adv-x="1724" d="M115 717q0 352 197.5 549.5t549.5 197.5t550 -197.5t198 -549.5t-198 -550t-550 -198t-549.5 198t-197.5 550zM197 717q0 -317 176 -494.5t489 -177.5q312 0 489 178t177 494t-177 494t-489 178q-313 0 -489 -177.5t-176 -494.5zM481 612v179q0 344 332 344h68 q129 0 305 -56v-221h-123l-19 125q-62 23 -102.5 28t-114.5 5q-99 0 -147.5 -53t-48.5 -168v-185q0 -198 196 -198h45q85 0 125.5 23.5t81.5 90.5h121v-108q-64 -69 -140.5 -100t-178.5 -31h-68q-159 0 -245 83.5t-87 241.5z" />
<glyph unicode="&#xaa;" horiz-adv-x="1015" d="M94 793v41q0 121 55.5 172.5t180.5 62.5q232 22 338 25v53q0 109 -39.5 146.5t-139.5 37.5q-122 0 -210 -28l-9 -109h-120v207q72 22 173.5 35.5t174.5 13.5h61q270 0 270 -293v-440q19 -1 58 -4t59 -4v-115h-278v111q-90 -64 -157.5 -94.5t-158.5 -30.5h-28 q-66 0 -104.5 6.5t-69.5 28.5t-43.5 64.5t-12.5 113.5zM256 821q0 -75 26 -98t109 -23h27q67 0 123 22t127 73v221q-245 -22 -281 -27q-70 -7 -100.5 -38.5t-30.5 -96.5v-33z" />
<glyph unicode="&#xab;" horiz-adv-x="1052" d="M104 535v16l340 403h129v-69l-262 -334v-16l262 -334v-70h-129zM492 535v16l339 403h130v-69l-263 -334v-16l263 -334v-70h-130z" />
<glyph unicode="&#xad;" horiz-adv-x="770" d="M90 535v176h590v-176h-590z" />
<glyph unicode="&#xae;" horiz-adv-x="860" d="M45 1079q0 181 101.5 283t283.5 102t283.5 -102t101.5 -283q0 -183 -101.5 -285t-283.5 -102t-283.5 102t-101.5 285zM104 1079q0 -161 85.5 -246t240.5 -85q156 0 242 85t86 246q0 160 -86.5 246t-241.5 86t-240.5 -86t-85.5 -246zM254 891v57l47 4v275q-19 0 -47 4v55 h213q61 0 95 -30.5t34 -86.5v-20q0 -88 -64 -107q35 -57 46 -90q5 0 53 -6v-55h-123v29q-22 69 -55 112h-76v-84h41v-57h-164zM377 1094h82q59 0 59 55v16q0 58 -61 58h-80v-129z" />
<glyph unicode="&#xaf;" horiz-adv-x="1024" d="M252 1243v127h520v-127h-520z" />
<glyph unicode="&#xb0;" horiz-adv-x="841" d="M102 1096v90q0 135 65 202.5t208 67.5h92q142 -1 206 -68.5t64 -201.5v-90q-2 -133 -66.5 -200t-203.5 -67h-92q-142 0 -207.5 67.5t-65.5 199.5zM242 1098q0 -75 32.5 -110.5t114.5 -35.5h62q79 0 111 35.5t34 110.5v86q0 79 -32.5 117t-112.5 38h-62q-81 0 -114 -38 t-33 -117v-86z" />
<glyph unicode="&#xb2;" horiz-adv-x="821" d="M90 602v109q0 135 38 202.5t132 106.5q61 29 174 63q85 29 117.5 53.5t32.5 65.5v27q0 60 -30 81t-116 21q-135 0 -198 -26l-13 -97h-114v191q98 31 164.5 41t164.5 10q158 0 222.5 -46t64.5 -169v-29q0 -81 -41 -135t-151 -90q-115 -32 -168 -51q-89 -30 -116.5 -67 t-27.5 -140h389l13 131h102v-252h-639z" />
<glyph unicode="&#xb3;" horiz-adv-x="772" d="M53 635v199h107l12 -103q115 -20 207 -20t125 25.5t33 94.5v23q0 66 -30.5 89.5t-100.5 23.5h-189v108h191q68 0 98.5 24.5t30.5 90.5v20q0 72 -33 97.5t-125 25.5q-103 0 -201 -24l-12 -99h-103v195q169 45 314 45q175 0 240 -47t65 -176v-25q0 -162 -115 -196 q63 -10 89 -48.5t26 -117.5v-25q0 -124 -67 -172.5t-238 -48.5q-141 0 -324 41z" />
<glyph unicode="&#xb4;" horiz-adv-x="1024" d="M348 1249l207 273l158 -78v-31l-279 -219z" />
<glyph unicode="&#xb6;" horiz-adv-x="1167" d="M57 993v49q0 118 27.5 195.5t85 120.5t132.5 59.5t185 16.5h623v-158q-105 -15 -149 -19v-1441h-156v1468h-135v-1468h-158v794h-25q-107 0 -182 17.5t-132.5 59.5t-86 118t-29.5 188z" />
<glyph unicode="&#xb7;" horiz-adv-x="421" d="M82 582q0 120 129 120t129 -120q0 -119 -129 -119t-129 119z" />
<glyph unicode="&#xb8;" horiz-adv-x="1024" d="M322 -279h206q33 0 51.5 16.5t18.5 43.5v10q0 30 -16.5 44.5t-55.5 14.5h-157l30 150h78l-8 -76h82q79 0 114 -29.5t35 -97.5v-22q0 -75 -39 -106.5t-126 -33.5q-91 0 -213 23v63z" />
<glyph unicode="&#xb9;" horiz-adv-x="665" d="M84 1272v98l272 82h95v-733q38 -1 155 -10v-107h-502v107q101 9 187 12v598z" />
<glyph unicode="&#xba;" horiz-adv-x="950" d="M78 920v184q0 181 86 264.5t274 83.5h80q185 0 269.5 -83.5t84.5 -264.5v-184q-1 -180 -86 -261t-268 -81h-80q-187 0 -273 81t-87 261zM240 887q0 -97 47 -143t147 -46h80q100 0 148.5 46.5t48.5 142.5v252q0 99 -48.5 146.5t-148.5 47.5h-80q-100 0 -147 -47t-47 -147 v-252z" />
<glyph unicode="&#xbb;" horiz-adv-x="1052" d="M141 131v70l262 334v16l-262 334v69h129l340 -403v-16l-340 -404h-129zM528 131v70l263 334v16l-263 334v69h129l340 -403v-16l-340 -404h-129z" />
<glyph unicode="&#xbc;" horiz-adv-x="1669" d="M84 1272v98l272 82h95v-733q57 -2 167 -10v-107h-526v107q100 9 199 12v598zM262 -16l541 737l500 735h94l-537 -735l-504 -737h-94zM807 229v113l459 500h159v-500h154v-100l-154 -11v-118q28 -1 83.5 -5.5t68.5 -5.5v-102h-479v102q167 11 168 11v116h-459zM940 342 h326v379z" />
<glyph unicode="&#xbd;" horiz-adv-x="1753" d="M84 1272v98l272 82h95v-733q57 -2 167 -10v-107h-526v107q100 9 199 12v598zM254 -16l541 737l499 735h95l-537 -735l-504 -737h-94zM1020 0v109q0 139 32.5 206.5t121.5 102.5q62 27 190 61q84 29 116.5 54t32.5 67v27q0 60 -29.5 81t-115.5 21q-133 0 -199 -27l-12 -96 h-115v191q98 31 165 41t165 10q158 0 222.5 -46t64.5 -169v-53q0 -138 -193 -201q-123 -34 -168 -53q-86 -29 -110.5 -67t-24.5 -144h381l12 137h103v-252h-639z" />
<glyph unicode="&#xbe;" horiz-adv-x="1744" d="M53 635v199h107l12 -103q115 -20 207 -20t125 25.5t33 94.5v23q0 66 -30.5 90.5t-100.5 24.5h-189v104h191q68 0 98.5 25.5t30.5 91.5v20q0 72 -33 97.5t-125 25.5q-103 0 -201 -24l-12 -99h-103v195q169 45 314 45q175 0 240 -47t65 -176v-25q0 -162 -115 -196 q63 -10 89 -48.5t26 -117.5v-25q0 -124 -67 -172.5t-238 -48.5q-141 0 -324 41zM324 -16l540 737l500 735h94l-536 -735l-504 -737h-94zM883 229v113l458 500h160v-500h154v-100l-154 -11v-118q28 -1 83.5 -5.5t68.5 -5.5v-102h-479v102q21 1 55.5 4t61 4.5t50.5 2.5v116 h-458zM1016 342h325v379z" />
<glyph unicode="&#xbf;" horiz-adv-x="1040" d="M70 199v53q0 127 42 192.5t136 102.5q57 21 157 55.5t132 46.5v217h170l26 -329q-199 -66 -319 -113q-71 -27 -100 -65.5t-29 -98.5v-53q0 -125 47.5 -168t189.5 -43q92 0 157 13t138 46l17 146h167v-279q-158 -57 -257 -76.5t-240 -19.5q-236 0 -335 83t-99 290z M494 1171q0 119 129 119t129 -119q0 -120 -129 -120t-129 120z" />
<glyph unicode="&#xc0;" horiz-adv-x="1630" d="M45 0v158q106 13 182 16l369 1088q-54 3 -162 14v158h529l432 -1260q87 -3 188 -16v-158h-582v158q61 7 148 14l-90 256h-527l-79 -256q12 -1 127 -14v-158h-535zM551 1747v31l158 77l206 -272l-86 -55zM578 616h434l-215 631h-9z" />
<glyph unicode="&#xc1;" horiz-adv-x="1630" d="M45 0v158q106 13 182 16l369 1088q-54 3 -162 14v158h529l432 -1260q87 -3 188 -16v-158h-582v158q61 7 148 14l-90 256h-527l-79 -256q12 -1 127 -14v-158h-535zM578 616h434l-215 631h-9zM643 1583l213 279l164 -82l-2 -31l-283 -223z" />
<glyph unicode="&#xc2;" horiz-adv-x="1630" d="M45 0v158q106 13 182 16l369 1088q-54 3 -162 14v158h529l432 -1260q87 -3 188 -16v-158h-582v158q61 7 148 14l-90 256h-527l-79 -256q12 -1 127 -14v-158h-535zM487 1593l236 246h137l238 -246l-68 -59l-239 180l-236 -180zM578 616h434l-215 631h-9z" />
<glyph unicode="&#xc3;" horiz-adv-x="1630" d="M45 0v158q106 13 182 16l369 1088q-54 3 -162 14v158h529l432 -1260q87 -3 188 -16v-158h-582v158q61 7 148 14l-90 256h-527l-79 -256q12 -1 127 -14v-158h-535zM430 1612l133 143q58 64 115 64q30 0 58.5 -18.5t76.5 -61t86 -70.5l186 139l66 -57l-145 -156 q-43 -49 -103 -49q-26 0 -52.5 18.5t-74.5 59.5t-94 72l-186 -144zM578 616h434l-215 631h-9z" />
<glyph unicode="&#xc4;" horiz-adv-x="1630" d="M45 0v158q106 13 182 16l369 1088q-54 3 -162 14v158h529l432 -1260q87 -3 188 -16v-158h-582v158q61 7 148 14l-90 256h-527l-79 -256q12 -1 127 -14v-158h-535zM475 1686q0 48 33 77t82 29q51 0 84 -29t33 -77q0 -45 -33.5 -74t-83.5 -29q-48 0 -81.5 29t-33.5 74z M578 616h434l-215 631h-9zM879 1686q0 48 32.5 77t81.5 29q51 0 84 -29t33 -77q0 -45 -33.5 -74t-83.5 -29q-48 0 -81 29t-33 74z" />
<glyph unicode="&#xc5;" horiz-adv-x="1630" d="M45 0v158q106 13 182 16l369 1088q-54 3 -162 14v158h529l432 -1260q87 -3 188 -16v-158h-582v158q61 7 148 14l-90 256h-527l-79 -256q12 -1 127 -14v-158h-535zM578 616h434l-215 631h-9zM610 1669v43q0 72 41 113t113 41h55q73 0 114.5 -41t41.5 -113v-43 q0 -74 -41.5 -113.5t-114.5 -39.5h-55q-72 0 -113 39.5t-41 113.5zM698 1671q0 -36 20.5 -55t53.5 -19h39q32 0 52.5 19t21.5 55v39q0 36 -20.5 56t-53.5 20h-39q-33 0 -53.5 -20t-20.5 -56v-39z" />
<glyph unicode="&#xc6;" horiz-adv-x="2201" d="M45 0v158q106 13 182 16l615 1083q-38 2 -183 19v158h1407v-387h-141l-29 208h-548v-442h415v-178h-415v-457h567l29 209h141v-387h-1124v158q42 4 95 8t68 6v285h-510l-161 -289q57 0 135 -10v-158h-543zM672 578h452v677h-75z" />
<glyph unicode="&#xc7;" horiz-adv-x="1331" d="M123 465v469q0 257 126.5 388.5t377.5 131.5h84q271 0 501 -78v-372h-184l-27 231q-52 18 -119 26.5t-107 9.5t-140 1q-141 0 -215 -82.5t-74 -241.5v-497q0 -287 289 -287h106q220 0 301 184h185v-168q-85 -97 -210 -150t-263 -53h-113l-6 -53h82q79 0 114 -29.5 t35 -97.5v-22q0 -75 -39.5 -106.5t-126.5 -33.5q-91 0 -213 23v63h207q33 0 51.5 16.5t18.5 43.5v10q0 30 -16.5 44.5t-55.5 14.5h-157l26 130q-221 10 -328 128.5t-110 356.5z" />
<glyph unicode="&#xc8;" horiz-adv-x="1318" d="M74 1276v158h1110v-387h-142l-28 208h-549v-436h416v-190h-416v-451h567l29 209h141v-387h-1124v158q42 4 95.5 8t68.5 6v1090q-16 2 -69.5 6t-98.5 8zM414 1747v31l157 77l207 -272l-86 -55z" />
<glyph unicode="&#xc9;" horiz-adv-x="1318" d="M74 1276v158h1110v-387h-142l-28 208h-549v-436h416v-190h-416v-451h567l29 209h141v-387h-1124v158q42 4 95.5 8t68.5 6v1090q-16 2 -69.5 6t-98.5 8zM506 1583l213 279l164 -82l-2 -31l-283 -223z" />
<glyph unicode="&#xca;" horiz-adv-x="1318" d="M74 1276v158h1110v-387h-142l-28 208h-549v-436h416v-190h-416v-451h567l29 209h141v-387h-1124v158q42 4 95.5 8t68.5 6v1090q-16 2 -69.5 6t-98.5 8zM348 1593l236 246h137l237 -246l-67 -59l-240 180l-235 -180z" />
<glyph unicode="&#xcb;" horiz-adv-x="1318" d="M74 1276v158h1110v-387h-142l-28 208h-549v-436h416v-190h-416v-451h567l29 209h141v-387h-1124v158q42 4 95.5 8t68.5 6v1090q-16 2 -69.5 6t-98.5 8zM336 1686q0 48 33 77t82 29q51 0 83.5 -28.5t32.5 -77.5q0 -45 -33 -74t-83 -29q-48 0 -81.5 29t-33.5 74zM739 1686 q0 48 33 77t82 29q51 0 84 -29t33 -77q0 -45 -33.5 -74t-83.5 -29q-48 0 -81.5 29t-33.5 74z" />
<glyph unicode="&#xcc;" horiz-adv-x="702" d="M74 1276v158h555v-158q-116 -12 -164 -14v-1090q48 -2 164 -14v-158h-551v158q54 6 164 14v1090q-53 2 -168 14zM111 1747v31l157 77l207 -272l-86 -55z" />
<glyph unicode="&#xcd;" horiz-adv-x="702" d="M74 1276v158h555v-158q-116 -12 -164 -14v-1090q48 -2 164 -14v-158h-551v158q54 6 164 14v1090q-53 2 -168 14zM203 1583l213 279l164 -82l-2 -31l-283 -223z" />
<glyph unicode="&#xce;" horiz-adv-x="702" d="M47 1593l236 246h137l237 -246l-67 -59l-240 180l-235 -180zM74 1276v158h555v-158q-116 -12 -164 -14v-1090q48 -2 164 -14v-158h-551v158q54 6 164 14v1090q-53 2 -168 14z" />
<glyph unicode="&#xcf;" horiz-adv-x="702" d="M35 1686q0 48 33 77t82 29q51 0 83.5 -28.5t32.5 -77.5q0 -45 -33 -74t-83 -29q-48 0 -81.5 29t-33.5 74zM74 1276v158h555v-158q-116 -12 -164 -14v-1090q48 -2 164 -14v-158h-551v158q54 6 164 14v1090q-53 2 -168 14zM438 1686q0 48 33 77t82 29q51 0 84 -29t33 -77 q0 -45 -33.5 -74t-83.5 -29q-48 0 -81.5 29t-33.5 74z" />
<glyph unicode="&#xd0;" horiz-adv-x="1480" d="M74 1276v158h796q252 -2 372 -119.5t120 -366.5v-469q-1 -245 -121.5 -362t-368.5 -117h-794v158q43 5 100.5 10t69.5 6v463h-172v131h172v492q-13 1 -70.5 6t-103.5 10zM471 182h379q141 0 216 72.5t75 208.5v504q0 138 -74.5 211t-216.5 73h-379v-483h162v-131h-162 v-455z" />
<glyph unicode="&#xd1;" horiz-adv-x="1615" d="M74 1276v158h387l713 -1094v924q-69 3 -146 12v158h514v-158q-53 -7 -170 -16v-1260h-235l-691 1073v-903q69 -3 142 -12v-158h-510v158q120 12 170 14v1088q-30 2 -174 16zM442 1612l133 143q58 64 115 64q30 0 58.5 -18.5t76.5 -61t86 -70.5l187 139l65 -57l-145 -156 q-43 -49 -103 -49q-26 0 -52.5 18.5t-74.5 59.5t-94 72l-186 -144z" />
<glyph unicode="&#xd2;" d="M119 502v422q0 250 135 390t389 140h180q249 0 382.5 -140.5t133.5 -389.5v-422q0 -247 -134.5 -386t-381.5 -139h-180q-251 0 -386.5 139t-137.5 386zM342 492q0 -157 80 -236.5t233 -79.5h146q154 0 234.5 79.5t80.5 236.5v446q0 317 -315 317h-146q-151 0 -232 -82.5 t-81 -234.5v-446zM487 1747v31l158 77l207 -272l-86 -55z" />
<glyph unicode="&#xd3;" d="M119 502v422q0 250 135 390t389 140h180q249 0 382.5 -140.5t133.5 -389.5v-422q0 -247 -134.5 -386t-381.5 -139h-180q-251 0 -386.5 139t-137.5 386zM342 492q0 -157 80 -236.5t233 -79.5h146q154 0 234.5 79.5t80.5 236.5v446q0 317 -315 317h-146q-151 0 -232 -82.5 t-81 -234.5v-446zM580 1583l213 279l163 -82l-2 -31l-282 -223z" />
<glyph unicode="&#xd4;" d="M119 502v422q0 250 135 390t389 140h180q249 0 382.5 -140.5t133.5 -389.5v-422q0 -247 -134.5 -386t-381.5 -139h-180q-251 0 -386.5 139t-137.5 386zM342 492q0 -157 80 -236.5t233 -79.5h146q154 0 234.5 79.5t80.5 236.5v446q0 317 -315 317h-146q-151 0 -232 -82.5 t-81 -234.5v-446zM424 1593l235 246h138l237 -246l-67 -59l-240 180l-235 -180z" />
<glyph unicode="&#xd5;" d="M119 502v422q0 250 135 390t389 140h180q249 0 382.5 -140.5t133.5 -389.5v-422q0 -247 -134.5 -386t-381.5 -139h-180q-251 0 -386.5 139t-137.5 386zM342 492q0 -157 80 -236.5t233 -79.5h146q154 0 234.5 79.5t80.5 236.5v446q0 317 -315 317h-146q-151 0 -232 -82.5 t-81 -234.5v-446zM367 1612l133 143q58 64 114 64q31 0 59.5 -18.5t76.5 -61.5t86 -70l186 139l65 -57l-145 -156q-43 -49 -102 -49q-26 0 -53 18.5t-75 59.5t-94 72l-186 -144z" />
<glyph unicode="&#xd6;" d="M119 502v422q0 250 135 390t389 140h180q249 0 382.5 -140.5t133.5 -389.5v-422q0 -247 -134.5 -386t-381.5 -139h-180q-251 0 -386.5 139t-137.5 386zM342 492q0 -157 80 -236.5t233 -79.5h146q154 0 234.5 79.5t80.5 236.5v446q0 317 -315 317h-146q-151 0 -232 -82.5 t-81 -234.5v-446zM412 1686q0 48 32.5 77t81.5 29q51 0 84 -29t33 -77q0 -45 -33.5 -74t-83.5 -29q-48 0 -81 29t-33 74zM815 1686q0 48 33 77t82 29q51 0 84 -29t33 -77q0 -45 -33.5 -74t-83.5 -29q-48 0 -81.5 29t-33.5 74z" />
<glyph unicode="&#xd7;" horiz-adv-x="1191" d="M135 1053l121 121l344 -349l342 349l115 -115l-346 -344l346 -342l-121 -121l-342 348l-342 -348l-115 115l346 344z" />
<glyph unicode="&#xd8;" d="M119 502v422q0 250 135 390t389 140h180q214 0 342 -104l105 143h90l-141 -195q120 -135 120 -374v-422q0 -247 -134.5 -386t-381.5 -139h-180q-193 0 -321 86l-93 -126h-90l125 172q-142 136 -145 393zM342 492q0 -129 53 -203l643 885q-78 81 -237 81h-146 q-151 0 -232 -82.5t-81 -234.5v-446zM446 236q75 -60 209 -60h146q154 0 234.5 79.5t80.5 236.5v446q0 104 -35 172z" />
<glyph unicode="&#xd9;" horiz-adv-x="1562" d="M70 1276v158h559v-158q-79 -11 -174 -14v-809q0 -138 75 -214.5t213 -76.5h107q139 0 214 77t75 214v811q-73 3 -156 12v158h510v-158q-46 -5 -147 -14v-785q0 -254 -120.5 -377t-369.5 -123h-125q-252 0 -375 123.5t-123 376.5v785q-104 8 -163 14zM551 1747v31l158 77 l206 -272l-86 -55z" />
<glyph unicode="&#xda;" horiz-adv-x="1562" d="M70 1276v158h559v-158q-79 -11 -174 -14v-809q0 -138 75 -214.5t213 -76.5h107q139 0 214 77t75 214v811q-73 3 -156 12v158h510v-158q-46 -5 -147 -14v-785q0 -254 -120.5 -377t-369.5 -123h-125q-252 0 -375 123.5t-123 376.5v785q-104 8 -163 14zM643 1583l213 279 l164 -82l-2 -31l-283 -223z" />
<glyph unicode="&#xdb;" horiz-adv-x="1562" d="M70 1276v158h559v-158q-79 -11 -174 -14v-809q0 -138 75 -214.5t213 -76.5h107q139 0 214 77t75 214v811q-73 3 -156 12v158h510v-158q-46 -5 -147 -14v-785q0 -254 -120.5 -377t-369.5 -123h-125q-252 0 -375 123.5t-123 376.5v785q-104 8 -163 14zM487 1593l236 246 h137l238 -246l-68 -59l-239 180l-236 -180z" />
<glyph unicode="&#xdc;" horiz-adv-x="1562" d="M70 1276v158h559v-158q-79 -11 -174 -14v-809q0 -138 75 -214.5t213 -76.5h107q139 0 214 77t75 214v811q-73 3 -156 12v158h510v-158q-46 -5 -147 -14v-785q0 -254 -120.5 -377t-369.5 -123h-125q-252 0 -375 123.5t-123 376.5v785q-104 8 -163 14zM475 1686q0 48 33 77 t82 29q51 0 84 -29t33 -77q0 -45 -33.5 -74t-83.5 -29q-48 0 -81.5 29t-33.5 74zM879 1686q0 48 32.5 77t81.5 29q51 0 84 -29t33 -77q0 -45 -33.5 -74t-83.5 -29q-48 0 -81 29t-33 74z" />
<glyph unicode="&#xdd;" horiz-adv-x="1454" d="M39 1276v158h526v-158q-94 -8 -137 -8l301 -590h8l301 588q-94 4 -145 10v158h522v-158q-51 -7 -160 -16l-424 -752v-336q53 -2 164 -14v-158h-549v158q57 6 164 14v328l-422 762q-98 8 -149 14zM584 1583l213 279l164 -82l-3 -31l-282 -223z" />
<glyph unicode="&#xde;" horiz-adv-x="1312" d="M74 1276v158h391v-281h326q230 0 335 -91.5t105 -295.5v-125q-1 -197 -106.5 -284t-333.5 -87h-326v-270h-387v158q79 11 164 14v1088q-113 9 -168 16zM465 451h326q122 0 176.5 53.5t54.5 165.5v80q0 115 -53.5 169t-177.5 54h-326v-522z" />
<glyph unicode="&#xdf;" horiz-adv-x="1394" d="M82 0v150q81 9 145 12v735l-137 14v152h137v33q0 403 504 403h100q383 0 383 -344v-74q0 -257 -182 -301q118 -15 181 -81t63 -210v-133q0 -194 -82.5 -281t-265.5 -87q-167 0 -363 45v137h303q195 0 195 195v135q0 107 -51.5 150.5t-153.5 43.5h-153q-38 0 -61 17.5 t-23 48.5v96l194 10q111 4 156 54t45 161v45q0 106 -58.5 157.5t-179.5 51.5h-76q-128 0 -195 -75t-67 -213v-1047h-358z" />
<glyph unicode="&#xe0;" horiz-adv-x="1245" d="M113 270v43q0 68 15.5 117.5t39 79.5t65.5 50t81.5 29t99.5 17q89 10 230 23.5t194 19.5v53q0 133 -51 181.5t-173 48.5q-150 0 -260 -37l-12 -129h-160v262q97 27 225.5 43t221.5 16h78q344 0 344 -372v-551q35 -2 145 -12v-150h-358v145q-108 -85 -194.5 -124 t-203.5 -39h-37q-82 0 -132 10t-88 40.5t-54 87t-16 148.5zM334 293q0 -88 34.5 -121t127.5 -33h32q80 0 153 38t157 112v246q-203 -20 -334 -39q-98 -12 -134 -45.5t-36 -118.5v-39zM420 1413v31l158 78l206 -273l-86 -55z" />
<glyph unicode="&#xe1;" horiz-adv-x="1245" d="M113 270v43q0 68 15.5 117.5t39 79.5t65.5 50t81.5 29t99.5 17q89 10 230 23.5t194 19.5v53q0 133 -51 181.5t-173 48.5q-150 0 -260 -37l-12 -129h-160v262q97 27 225.5 43t221.5 16h78q344 0 344 -372v-551q35 -2 145 -12v-150h-358v145q-108 -85 -194.5 -124 t-203.5 -39h-37q-82 0 -132 10t-88 40.5t-54 87t-16 148.5zM334 293q0 -88 34.5 -121t127.5 -33h32q80 0 153 38t157 112v246q-203 -20 -334 -39q-98 -12 -134 -45.5t-36 -118.5v-39zM457 1249l207 273l157 -78v-31l-278 -219z" />
<glyph unicode="&#xe2;" horiz-adv-x="1245" d="M113 270v43q0 68 15.5 117.5t39 79.5t65.5 50t81.5 29t99.5 17q89 10 230 23.5t194 19.5v53q0 133 -51 181.5t-173 48.5q-150 0 -260 -37l-12 -129h-160v262q97 27 225.5 43t221.5 16h78q344 0 344 -372v-551q35 -2 145 -12v-150h-358v145q-108 -85 -194.5 -124 t-203.5 -39h-37q-82 0 -132 10t-88 40.5t-54 87t-16 148.5zM324 1260l233 239h129l232 -239l-64 -58l-233 176l-232 -176zM334 293q0 -88 34.5 -121t127.5 -33h32q80 0 153 38t157 112v246q-203 -20 -334 -39q-98 -12 -134 -45.5t-36 -118.5v-39z" />
<glyph unicode="&#xe3;" horiz-adv-x="1245" d="M113 270v43q0 68 15.5 117.5t39 79.5t65.5 50t81.5 29t99.5 17q89 10 230 23.5t194 19.5v53q0 133 -51 181.5t-173 48.5q-150 0 -260 -37l-12 -129h-160v262q97 27 225.5 43t221.5 16h78q344 0 344 -372v-551q35 -2 145 -12v-150h-358v145q-108 -85 -194.5 -124 t-203.5 -39h-37q-82 0 -132 10t-88 40.5t-54 87t-16 148.5zM270 1300l142 152q44 51 100 51q30 0 65 -23t81.5 -64t70.5 -58l184 137l62 -55l-141 -152q-46 -49 -101 -49q-25 0 -58 22.5t-80 63t-77 61.5l-184 -141zM334 293q0 -88 34.5 -121t127.5 -33h32q80 0 153 38 t157 112v246q-203 -20 -334 -39q-98 -12 -134 -45.5t-36 -118.5v-39z" />
<glyph unicode="&#xe4;" horiz-adv-x="1245" d="M113 270v43q0 68 15.5 117.5t39 79.5t65.5 50t81.5 29t99.5 17q89 10 230 23.5t194 19.5v53q0 133 -51 181.5t-173 48.5q-150 0 -260 -37l-12 -129h-160v262q97 27 225.5 43t221.5 16h78q344 0 344 -372v-551q35 -2 145 -12v-150h-358v145q-108 -85 -194.5 -124 t-203.5 -39h-37q-82 0 -132 10t-88 40.5t-54 87t-16 148.5zM326 1350q0 43 30.5 70.5t75.5 27.5t76 -27.5t31 -70.5q0 -42 -31 -68.5t-76 -26.5t-75.5 26.5t-30.5 68.5zM334 293q0 -88 34.5 -121t127.5 -33h32q80 0 153 38t157 112v246q-203 -20 -334 -39 q-98 -12 -134 -45.5t-36 -118.5v-39zM711 1350q0 43 30 70.5t74 27.5q47 0 78 -27t31 -71q0 -42 -31 -68.5t-78 -26.5q-44 0 -74 26.5t-30 68.5z" />
<glyph unicode="&#xe5;" horiz-adv-x="1245" d="M113 270v43q0 68 15.5 117.5t39 79.5t65.5 50t81.5 29t99.5 17q89 10 230 23.5t194 19.5v53q0 133 -51 181.5t-173 48.5q-150 0 -260 -37l-12 -129h-160v262q97 27 225.5 43t221.5 16h78q344 0 344 -372v-551q35 -2 145 -12v-150h-358v145q-108 -85 -194.5 -124 t-203.5 -39h-37q-82 0 -132 10t-88 40.5t-54 87t-16 148.5zM334 293q0 -88 34.5 -121t127.5 -33h32q80 0 153 38t157 112v246q-203 -20 -334 -39q-98 -12 -134 -45.5t-36 -118.5v-39zM449 1343v41q0 69 39 106.5t108 37.5h51q70 0 109 -38t39 -106v-41q0 -69 -39.5 -107 t-108.5 -38h-51q-68 0 -107.5 37.5t-39.5 107.5zM532 1346q0 -35 19.5 -53.5t52.5 -18.5h35q32 0 52.5 19t21.5 53v36q0 35 -20.5 54.5t-53.5 19.5h-35q-33 0 -52.5 -19.5t-19.5 -54.5v-36z" />
<glyph unicode="&#xe6;" horiz-adv-x="1902" d="M113 258v55q0 68 15 118t39.5 81t65 51t82 29t99.5 14q207 19 424 23v73q0 133 -51 181.5t-173 48.5q-150 0 -260 -37l-12 -129h-160v262q97 27 225.5 43t221.5 16h65q206 0 262 -141q99 141 342 141h66q228 0 331 -93t103 -296v-260h-754v-86q0 -223 244 -223h86 q169 0 219 111l9 32h167v-141q-67 -76 -168.5 -115t-218.5 -39h-112q-319 0 -400 201q-127 -100 -219.5 -147t-210.5 -47h-37q-67 0 -109 5t-80 20.5t-58 46t-31.5 79.5t-11.5 123zM326 293q0 -91 34.5 -122.5t135.5 -31.5h32q85 0 153.5 30t166.5 101q-10 55 -10 107v133 q-248 -16 -361 -33q-39 -6 -60 -11.5t-41.5 -15t-29.5 -25t-14.5 -39.5t-5.5 -60v-33zM1044 582h558v137q0 111 -60 170t-174 59h-65q-120 0 -189.5 -63.5t-69.5 -177.5v-125z" />
<glyph unicode="&#xe7;" horiz-adv-x="1107" d="M102 393v285q0 197 112 303t312 106h84q196 0 394 -73v-299h-160l-21 172q-66 22 -121 30.5t-145 8.5q-121 0 -181.5 -62.5t-60.5 -197.5v-281q0 -129 60 -184.5t178 -55.5h68q166 0 221 115l6 25h170v-154q-70 -70 -175 -112t-216 -42h-99l-6 -53h82q79 0 114.5 -29.5 t35.5 -97.5v-22q0 -75 -39.5 -106.5t-126.5 -33.5q-91 0 -213 23v63h207q33 0 51 16.5t18 43.5v10q0 30 -16 44.5t-55 14.5h-158l27 130q-179 15 -263 116.5t-84 296.5z" />
<glyph unicode="&#xe8;" horiz-adv-x="1165" d="M102 430v223q0 216 117 325t344 109h66q221 0 327.5 -101.5t106.5 -311.5v-240h-754v-74q0 -114 64 -170.5t180 -56.5h86q171 0 219 107l8 32h168v-141q-67 -75 -174 -114.5t-227 -39.5h-70q-243 0 -352 108t-109 345zM309 586h563v129q0 108 -65.5 164.5t-181.5 56.5 h-62q-120 0 -187 -60.5t-67 -175.5v-114zM332 1413v31l157 78l207 -273l-86 -55z" />
<glyph unicode="&#xe9;" horiz-adv-x="1165" d="M102 430v223q0 216 117 325t344 109h66q221 0 327.5 -101.5t106.5 -311.5v-240h-754v-74q0 -114 64 -170.5t180 -56.5h86q171 0 219 107l8 32h168v-141q-67 -75 -174 -114.5t-227 -39.5h-70q-243 0 -352 108t-109 345zM309 586h563v129q0 108 -65.5 164.5t-181.5 56.5 h-62q-120 0 -187 -60.5t-67 -175.5v-114zM430 1249l207 273l158 -78v-31l-279 -219z" />
<glyph unicode="&#xea;" horiz-adv-x="1165" d="M102 430v223q0 216 117 325t344 109h66q221 0 327.5 -101.5t106.5 -311.5v-240h-754v-74q0 -114 64 -170.5t180 -56.5h86q171 0 219 107l8 32h168v-141q-67 -75 -174 -114.5t-227 -39.5h-70q-243 0 -352 108t-109 345zM297 1260l233 239h129l232 -239l-64 -58l-233 176 l-232 -176zM309 586h563v129q0 108 -65.5 164.5t-181.5 56.5h-62q-120 0 -187 -60.5t-67 -175.5v-114z" />
<glyph unicode="&#xeb;" horiz-adv-x="1165" d="M102 430v223q0 216 117 325t344 109h66q221 0 327.5 -101.5t106.5 -311.5v-240h-754v-74q0 -114 64 -170.5t180 -56.5h86q171 0 219 107l8 32h168v-141q-67 -75 -174 -114.5t-227 -39.5h-70q-243 0 -352 108t-109 345zM297 1350q0 43 30.5 70.5t75.5 27.5t76 -27.5 t31 -70.5q0 -42 -31 -68.5t-76 -26.5t-75.5 26.5t-30.5 68.5zM309 586h563v129q0 108 -65.5 164.5t-181.5 56.5h-62q-120 0 -187 -60.5t-67 -175.5v-114zM682 1350q0 43 30 70.5t74 27.5q47 0 78 -27t31 -71q0 -42 -31 -68.5t-78 -26.5q-44 0 -74 26.5t-30 68.5z" />
<glyph unicode="&#xec;" horiz-adv-x="634" d="M76 1413v31l157 78l207 -273l-86 -55zM82 0v150q81 9 145 12v735q-21 2 -66.5 7t-70.5 7v152h350v-901q66 -3 146 -12v-150h-504z" />
<glyph unicode="&#xed;" horiz-adv-x="634" d="M82 0v150q81 9 145 12v735q-21 2 -66.5 7t-70.5 7v152h350v-901q66 -3 146 -12v-150h-504zM160 1249l207 273l157 -78v-31l-278 -219z" />
<glyph unicode="&#xee;" horiz-adv-x="634" d="M29 1260l233 239h129l232 -239l-64 -58l-233 176l-232 -176zM82 0v150q81 9 145 12v735q-21 2 -66.5 7t-70.5 7v152h350v-901q66 -3 146 -12v-150h-504z" />
<glyph unicode="&#xef;" horiz-adv-x="634" d="M29 1350q0 43 30.5 70.5t75.5 27.5t76 -27.5t31 -70.5q0 -42 -31 -68.5t-76 -26.5t-75.5 26.5t-30.5 68.5zM82 0v150q81 9 145 12v735q-21 2 -66.5 7t-70.5 7v152h350v-901q66 -3 146 -12v-150h-504zM414 1350q0 43 30 70.5t74 27.5q47 0 78 -27t31 -71q0 -42 -31 -68.5 t-78 -26.5q-44 0 -74 26.5t-30 68.5z" />
<glyph unicode="&#xf0;" horiz-adv-x="1241" d="M102 412v237q0 194 88.5 280.5t272.5 86.5h35q81 0 153 -17t116.5 -37t133.5 -65v45q0 84 -14 144t-56 108q-215 -68 -366 -109l-37 111l322 104q-67 53 -207 99l45 80q187 -35 317 -131l199 65l37 -113l-148 -57q123 -145 123 -375v-411q-3 -267 -103 -370t-351 -103 h-70q-262 0 -376 103t-114 325zM317 395q0 -133 64.5 -189t204.5 -56h71q129 0 186.5 55.5t57.5 197.5v355q-96 48 -162.5 69t-152.5 21h-35q-129 0 -181.5 -54.5t-52.5 -189.5v-209z" />
<glyph unicode="&#xf1;" horiz-adv-x="1380" d="M82 0v150q81 9 145 12v735q-21 2 -66.5 7t-70.5 7v152h350v-178q126 96 232 149t219 53h22q136 0 198.5 -65.5t62.5 -218.5v-639l157 -14v-150h-370v692q0 135 -27 175t-123 40h-25q-80 0 -163 -38.5t-183 -110.5v-596q66 -3 146 -12v-150h-504zM346 1300l141 152 q44 51 101 51q30 0 65 -23t81.5 -64t70.5 -58l184 137l62 -55l-142 -152q-46 -49 -100 -49q-25 0 -58 22.5t-80 63t-77 61.5l-184 -141z" />
<glyph unicode="&#xf2;" horiz-adv-x="1218" d="M102 428v201q0 234 111.5 346t351.5 112h97q236 0 345 -112t109 -346v-201q0 -230 -109.5 -340.5t-342.5 -110.5h-99q-238 0 -350.5 110.5t-112.5 340.5zM315 367q0 -114 62 -172t182 -58h100q120 0 182 58t62 172v325q0 117 -62 176.5t-182 59.5h-100q-120 0 -182 -59.5 t-62 -176.5v-325zM346 1413v31l158 78l207 -273l-86 -55z" />
<glyph unicode="&#xf3;" horiz-adv-x="1218" d="M102 428v201q0 234 111.5 346t351.5 112h97q236 0 345 -112t109 -346v-201q0 -230 -109.5 -340.5t-342.5 -110.5h-99q-238 0 -350.5 110.5t-112.5 340.5zM315 367q0 -114 62 -172t182 -58h100q120 0 182 58t62 172v325q0 117 -62 176.5t-182 59.5h-100q-120 0 -182 -59.5 t-62 -176.5v-325zM457 1249l207 273l157 -78v-31l-278 -219z" />
<glyph unicode="&#xf4;" horiz-adv-x="1218" d="M102 428v201q0 234 111.5 346t351.5 112h97q236 0 345 -112t109 -346v-201q0 -230 -109.5 -340.5t-342.5 -110.5h-99q-238 0 -350.5 110.5t-112.5 340.5zM311 1260l234 239h129l231 -239l-63 -58l-234 176l-231 -176zM315 367q0 -114 62 -172t182 -58h100q120 0 182 58 t62 172v325q0 117 -62 176.5t-182 59.5h-100q-120 0 -182 -59.5t-62 -176.5v-325z" />
<glyph unicode="&#xf5;" horiz-adv-x="1218" d="M102 428v201q0 234 111.5 346t351.5 112h97q236 0 345 -112t109 -346v-201q0 -230 -109.5 -340.5t-342.5 -110.5h-99q-238 0 -350.5 110.5t-112.5 340.5zM256 1300l141 152q44 51 101 51q30 0 65 -23t81.5 -64t70.5 -58l184 137l62 -55l-142 -152q-46 -49 -100 -49 q-25 0 -58 22.5t-80 63t-77 61.5l-185 -141zM315 367q0 -114 62 -172t182 -58h100q120 0 182 58t62 172v325q0 117 -62 176.5t-182 59.5h-100q-120 0 -182 -59.5t-62 -176.5v-325z" />
<glyph unicode="&#xf6;" horiz-adv-x="1218" d="M102 428v201q0 234 111.5 346t351.5 112h97q236 0 345 -112t109 -346v-201q0 -230 -109.5 -340.5t-342.5 -110.5h-99q-238 0 -350.5 110.5t-112.5 340.5zM311 1350q0 43 31 70.5t76 27.5t75.5 -27.5t30.5 -70.5q0 -42 -30.5 -68.5t-75.5 -26.5t-76 26.5t-31 68.5z M315 367q0 -114 62 -172t182 -58h100q120 0 182 58t62 172v325q0 117 -62 176.5t-182 59.5h-100q-120 0 -182 -59.5t-62 -176.5v-325zM696 1350q0 43 30.5 70.5t74.5 27.5q46 0 77 -27t31 -71q0 -42 -31 -68.5t-77 -26.5q-44 0 -74.5 26.5t-30.5 68.5z" />
<glyph unicode="&#xf7;" horiz-adv-x="1208" d="M102 637v160h1004v-160h-1004zM485 299q0 117 125 117t125 -117q0 -115 -125 -115t-125 115zM485 1151q0 117 125 117t125 -117q0 -115 -125 -115t-125 115z" />
<glyph unicode="&#xf8;" horiz-adv-x="1234" d="M111 428v201q0 234 111 346t351 112h97q184 0 291 -67l83 108h91l-119 -153q108 -111 108 -346v-201q0 -230 -109.5 -340.5t-342.5 -110.5h-99q-178 0 -288 64l-80 -104h-90l114 145q-118 109 -118 346zM324 367q0 -73 28 -127l494 632q-62 56 -178 56h-101 q-243 0 -243 -236v-325zM397 184q62 -47 170 -47h101q243 0 243 230v325q0 69 -22 121z" />
<glyph unicode="&#xf9;" horiz-adv-x="1378" d="M74 911v152h370v-668q0 -135 27 -175t123 -40h24q143 0 347 150v567l-158 14v152h371v-899q37 -2 149 -12v-150h-362v186q-64 -43 -106 -69t-103.5 -57.5t-121.5 -46.5t-120 -15h-22q-147 0 -204 60.5t-57 224.5v612zM406 1413v31l157 78l207 -273l-86 -55z" />
<glyph unicode="&#xfa;" horiz-adv-x="1378" d="M74 911v152h370v-668q0 -135 27 -175t123 -40h24q143 0 347 150v567l-158 14v152h371v-899q37 -2 149 -12v-150h-362v186q-64 -43 -106 -69t-103.5 -57.5t-121.5 -46.5t-120 -15h-22q-147 0 -204 60.5t-57 224.5v612zM514 1249l207 273l158 -78v-31l-279 -219z" />
<glyph unicode="&#xfb;" horiz-adv-x="1378" d="M74 911v152h370v-668q0 -135 27 -175t123 -40h24q143 0 347 150v567l-158 14v152h371v-899q37 -2 149 -12v-150h-362v186q-64 -43 -106 -69t-103.5 -57.5t-121.5 -46.5t-120 -15h-22q-147 0 -204 60.5t-57 224.5v612zM383 1260l233 239h129l232 -239l-64 -58l-233 176 l-231 -176z" />
<glyph unicode="&#xfc;" horiz-adv-x="1378" d="M74 911v152h370v-668q0 -135 27 -175t123 -40h24q143 0 347 150v567l-158 14v152h371v-899q37 -2 149 -12v-150h-362v186q-64 -43 -106 -69t-103.5 -57.5t-121.5 -46.5t-120 -15h-22q-147 0 -204 60.5t-57 224.5v612zM383 1350q0 43 30.5 70.5t75.5 27.5t76 -27.5 t31 -70.5q0 -42 -31 -68.5t-76 -26.5t-75.5 26.5t-30.5 68.5zM768 1350q0 43 30 70.5t74 27.5q47 0 78 -27t31 -71q0 -42 -31 -68.5t-78 -26.5q-44 0 -74 26.5t-30 68.5z" />
<glyph unicode="&#xfd;" horiz-adv-x="1349" d="M29 911v152h522v-152q-90 -9 -170 -12l281 -700h4l305 700q-55 3 -135 12v152h485v-152q-56 -7 -162 -16l-463 -1063q31 0 74 -3t51 -3v-152h-536v152q41 2 204 8l64 146l-395 919q-23 1 -66.5 5.5t-62.5 6.5zM520 1249l207 273l158 -78v-31l-279 -219z" />
<glyph unicode="&#xfe;" horiz-adv-x="1275" d="M82 -209q115 9 145 10v1469q-90 8 -137 14v150h350v-525q114 89 208 133.5t210 44.5h35q281 0 281 -372v-391q0 -167 -79.5 -253.5t-217.5 -86.5h-35q-123 0 -201 25t-201 97v-305q33 -1 146 -10v-151h-504v151zM440 250q94 -60 159 -80t155 -20h37q95 0 132.5 59.5 t37.5 202.5v243q0 139 -35.5 195.5t-130.5 56.5h-33q-84 0 -158.5 -30t-163.5 -95v-532z" />
<glyph unicode="&#xff;" horiz-adv-x="1349" d="M29 911v152h522v-152q-90 -9 -170 -12l281 -700h4l305 700q-55 3 -135 12v152h485v-152q-56 -7 -162 -16l-463 -1063q31 0 74 -3t51 -3v-152h-536v152q41 2 204 8l64 146l-395 919q-23 1 -66.5 5.5t-62.5 6.5zM375 1350q0 43 30.5 70.5t75.5 27.5t76 -27.5t31 -70.5 q0 -42 -31 -68.5t-76 -26.5t-75.5 26.5t-30.5 68.5zM760 1350q0 43 30 70.5t74 27.5q47 0 78 -27t31 -71q0 -42 -31 -68.5t-78 -26.5q-44 0 -74 26.5t-30 68.5z" />
<glyph unicode="&#x152;" horiz-adv-x="2033" d="M119 465v496q0 473 536 473h1246v-387h-144l-26 208h-549v-436h415v-190h-415v-451h567l27 209h143v-387h-1264q-533 0 -536 465zM342 461q0 -282 326 -279h290v1069h-290q-167 0 -246.5 -70t-79.5 -210v-510z" />
<glyph unicode="&#x153;" horiz-adv-x="1968" d="M102 428v201q0 234 111.5 346t351.5 112h97q244 0 352 -120q117 120 356 120h66q221 0 327.5 -101.5t106.5 -311.5v-240h-754v-74q0 -114 64 -170.5t180 -56.5h86q171 0 219 107l8 32h168v-141q-67 -75 -174 -114.5t-227 -39.5h-70q-249 0 -358 115q-109 -115 -348 -115 h-99q-238 0 -350.5 110.5t-112.5 340.5zM315 367q0 -114 62 -172t182 -58h100q120 0 182 58t62 172v325q0 117 -62 176.5t-182 59.5h-100q-120 0 -182 -59.5t-62 -176.5v-325zM1116 586h563v129q0 108 -65.5 164.5t-181.5 56.5h-62q-120 0 -187 -60.5t-67 -175.5v-114z" />
<glyph unicode="&#x178;" horiz-adv-x="1454" d="M39 1276v158h526v-158q-94 -8 -137 -8l301 -590h8l301 588q-94 4 -145 10v158h522v-158q-51 -7 -160 -16l-424 -752v-336q53 -2 164 -14v-158h-549v158q57 6 164 14v328l-422 762q-98 8 -149 14zM416 1686q0 48 32.5 77t81.5 29q51 0 84 -29t33 -77q0 -45 -33.5 -74 t-83.5 -29q-48 0 -81 29t-33 74zM819 1686q0 48 33 77t82 29q51 0 84 -29t33 -77q0 -45 -33.5 -74t-83.5 -29q-48 0 -81.5 29t-33.5 74z" />
<glyph unicode="&#x2c6;" horiz-adv-x="1024" d="M213 1260l233 239h129l232 -239l-64 -58l-233 176l-231 -176z" />
<glyph unicode="&#x2dc;" horiz-adv-x="1024" d="M162 1300l141 152q44 51 100 51q30 0 65.5 -23t82 -64t70.5 -58l184 137l61 -55l-141 -152q-46 -49 -100 -49q-25 0 -58 22.5t-80 63t-77 61.5l-185 -141z" />
<glyph unicode="&#x2000;" horiz-adv-x="933" />
<glyph unicode="&#x2001;" horiz-adv-x="1866" />
<glyph unicode="&#x2002;" horiz-adv-x="933" />
<glyph unicode="&#x2003;" horiz-adv-x="1866" />
<glyph unicode="&#x2004;" horiz-adv-x="622" />
<glyph unicode="&#x2005;" horiz-adv-x="466" />
<glyph unicode="&#x2006;" horiz-adv-x="311" />
<glyph unicode="&#x2007;" horiz-adv-x="311" />
<glyph unicode="&#x2008;" horiz-adv-x="233" />
<glyph unicode="&#x2009;" horiz-adv-x="373" />
<glyph unicode="&#x200a;" horiz-adv-x="103" />
<glyph unicode="&#x2010;" horiz-adv-x="770" d="M90 535v176h590v-176h-590z" />
<glyph unicode="&#x2011;" horiz-adv-x="770" d="M90 535v176h590v-176h-590z" />
<glyph unicode="&#x2012;" horiz-adv-x="770" d="M90 535v176h590v-176h-590z" />
<glyph unicode="&#x2013;" horiz-adv-x="997" d="M90 539v168h817v-168h-817z" />
<glyph unicode="&#x2014;" horiz-adv-x="1550" d="M90 539v168h1370v-168h-1370z" />
<glyph unicode="&#x2018;" horiz-adv-x="399" d="M55 1085q0 149 199 363l57 -41q-33 -56 -51 -98t-22.5 -62t-8.5 -51l68 -29l-23 -120q-6 -37 -31 -54t-63 -10q-68 11 -96.5 32.5t-28.5 69.5z" />
<glyph unicode="&#x2019;" horiz-adv-x="399" d="M68 1024q33 56 51 98t22.5 62t8.5 51l-68 29l22 120q6 37 31.5 54t63.5 10q68 -11 96.5 -32.5t28.5 -69.5q0 -149 -199 -363z" />
<glyph unicode="&#x201a;" horiz-adv-x="419" d="M70 -219q33 57 51 100t22.5 63t8.5 52l-68 29l22 122q6 38 31.5 55.5t65.5 10.5q69 -11 98 -33t29 -71q0 -151 -203 -369z" />
<glyph unicode="&#x201c;" horiz-adv-x="706" d="M55 1079q0 151 203 369l57 -41q-33 -57 -51 -100t-22.5 -63t-8.5 -52l68 -29l-22 -123q-6 -38 -31.5 -55.5t-65.5 -9.5q-69 11 -98 33t-29 71zM360 1079q0 151 203 369l58 -41q-33 -57 -51 -100t-22.5 -63t-8.5 -52l67 -29l-22 -123q-6 -38 -31.5 -55.5t-65.5 -9.5 q-69 11 -98 33t-29 71z" />
<glyph unicode="&#x201d;" horiz-adv-x="706" d="M63 1014q33 57 51 100t22.5 63t8.5 52l-67 28l22 123q6 38 31.5 55.5t65.5 10.5q69 -11 98 -33.5t29 -71.5q0 -150 -203 -368zM369 1014q33 57 51 100t22.5 63t8.5 52l-68 28l23 123q6 38 31 55.5t65 10.5q69 -11 98 -33.5t29 -71.5q0 -150 -203 -368z" />
<glyph unicode="&#x201e;" horiz-adv-x="716" d="M70 -219q33 57 51 100t22.5 63t8.5 52l-68 29l22 122q6 38 31.5 55.5t65.5 10.5q69 -11 98 -33t29 -71q0 -151 -203 -369zM377 -219q33 57 51 100t22.5 63t8.5 52l-68 29l23 122q6 38 31 55.5t65 10.5q69 -11 98 -33t29 -71q0 -151 -203 -369z" />
<glyph unicode="&#x2022;" horiz-adv-x="657" d="M-8 743q0 206 108 307t326 101q219 0 327.5 -101t108.5 -307q0 -401 -436 -401q-434 0 -434 401z" />
<glyph unicode="&#x2026;" horiz-adv-x="1150" d="M82 109q0 120 129 120t129 -120q0 -119 -129 -119t-129 119zM444 109q0 120 129 120t129 -120q0 -119 -129 -119t-129 119zM811 109q0 120 129 120t129 -120q0 -119 -129 -119t-129 119z" />
<glyph unicode="&#x202f;" horiz-adv-x="373" />
<glyph unicode="&#x2039;" horiz-adv-x="628" d="M74 535v16l340 403h129v-69l-262 -334v-16l262 -334v-70h-129z" />
<glyph unicode="&#x203a;" horiz-adv-x="628" d="M72 131v70l262 334v16l-262 334v69h129l340 -403v-16l-340 -404h-129z" />
<glyph unicode="&#x205f;" horiz-adv-x="466" />
<glyph unicode="&#x20ac;" horiz-adv-x="1267" d="M8 557v94h117v121h-117v94h117v74q0 252 130.5 383t373.5 131h45q272 0 475 -78v-332h-160l-12 185q-47 22 -111.5 33t-105.5 12.5t-111 1.5q-140 0 -221.5 -88t-81.5 -242v-80h549l-21 -94h-528v-121h481l-22 -94h-459v-117q3 -281 291 -278h65q115 0 188 42.5 t114 135.5h155v-141q-167 -222 -444 -222h-101q-489 0 -489 455v125h-117z" />
<glyph unicode="&#x2122;" horiz-adv-x="1427" d="M45 1253v181h533v-181h-72l-10 95h-134v-379l97 -6v-84h-291v84l92 6v379h-135l-10 -95h-70zM610 879v84l80 6v379l-80 6v80h213l166 -400h6l166 400h221v-80l-77 -6v-379l75 -6v-84h-243v84l65 4v360l-174 -448h-72l-174 448v-360l64 -4v-84h-236z" />
<glyph unicode="&#x25fc;" horiz-adv-x="1064" d="M0 0v1065h1065v-1065h-1065z" />
<glyph unicode="&#xfb01;" horiz-adv-x="1294" d="M74 905v137q16 2 153 13v121q0 237 222 282q79 16 249 39l21 -145q-18 -5 -79.5 -18t-107.5 -27q-54 -16 -73 -52.5t-19 -107.5v-84h660v-895q66 -6 145 -18v-150h-504v150q78 12 146 18v737h-447v-739q122 -8 183 -16v-150h-541v150q78 9 145 12v743h-153zM862 1350 q0 53 37 84.5t92 31.5q54 0 89.5 -31.5t35.5 -84.5q0 -50 -36 -81.5t-89 -31.5q-55 0 -92 31.5t-37 81.5z" />
<glyph unicode="&#xfb02;" horiz-adv-x="1419" d="M74 905v137q16 2 153 13v121q0 237 222 282q79 16 249 39l21 -145q-18 -5 -79.5 -18t-107.5 -27q-54 -16 -73 -52.5t-19 -107.5v-84h316v-158h-316v-739q122 -8 183 -16v-150h-541v150q78 9 145 12v743h-153zM848 0v150q81 9 145 12v1108q-90 8 -137 14v150h350v-1272 q66 -3 146 -12v-150h-504z" />
<glyph unicode="&#xfb03;" horiz-adv-x="2000" d="M74 905v137q16 2 153 13v121q0 237 222 282q79 16 249 39l21 -145q-18 -5 -79.5 -18t-107.5 -27q-54 -16 -73 -52.5t-19 -107.5v-84h494v113q0 238 221 282q77 15 250 39l20 -145q-18 -5 -79 -18t-107 -27q-54 -16 -73 -52.5t-19 -107.5v-84h659v-895q68 -6 146 -18v-150 h-504v150q79 12 145 18v737h-446v-739q120 -8 182 -16v-150h-541v150q77 9 146 12v743h-494v-739q122 -8 183 -16v-150h-541v150q78 9 145 12v743h-153zM1569 1350q0 53 36.5 84.5t90.5 31.5q55 0 91 -31.5t36 -84.5q0 -50 -36 -81.5t-91 -31.5q-54 0 -90.5 31.5t-36.5 81.5 z" />
<glyph unicode="&#xfb04;" horiz-adv-x="2091" d="M74 905v137q16 2 153 13v121q0 237 222 282q79 16 249 39l21 -145q-18 -5 -79.5 -18t-107.5 -27q-54 -16 -73 -52.5t-19 -107.5v-84h494v113q0 238 221 282q77 15 250 39l20 -145q-18 -5 -79 -18t-107 -27q-54 -16 -73 -52.5t-19 -107.5v-84h315v-158h-315v-739 q120 -8 182 -16v-150h-541v150q77 9 146 12v743h-494v-739q122 -8 183 -16v-150h-541v150q78 9 145 12v743h-153zM1520 0v150q81 9 145 12v1108q-90 8 -137 14v150h350v-1272q64 -3 145 -12v-150h-503z" />
</font>
</defs>
</svg>
