<svg id="Layer_1" data-name="Layer 1" xmlns="http://www.w3.org/2000/svg" width="150" height="50.49" viewBox="0 0 150 50.49"><defs><style>.cls-1{fill:#f04e23;}.cls-2{fill:#004083;}</style></defs><title>GatorGood</title><path class="cls-1" d="M87.21,26.44H0V0H87.22V26.44ZM2.42,24H84.78V2.42H2.42V24Z" transform="translate(0 0.03)"/><path class="cls-1" d="M150,50.46H24V24H150V50.46ZM26.45,48H147.56V26.44H26.44V48h0Z" transform="translate(0 0.03)"/><path class="cls-2" d="M42.87,39.28H41.66L41.38,41H39.94l0.27-1.64H38.64L38.36,41H36.92l0.27-1.64H36.37v-1.4h1.06l0.28-1.62h-1v-1.4h1.2l0.27-1.59h1.44l-0.27,1.59h1.58l0.27-1.59h1.44l-0.27,1.59H43.2v1.4H42.13l-0.28,1.62h1v1.4Zm-4-1.35h1.65l0.28-1.7H39.15Z" transform="translate(0 0.03)"/><path class="cls-2" d="M46.17,37.12h0a3.92,3.92,0,0,1,3.84-4h0.16a4.2,4.2,0,0,1,3,1L52.11,35.4a2.82,2.82,0,0,0-2-.78A2.3,2.3,0,0,0,47.92,37h0a2.29,2.29,0,0,0,2.16,2.42h0.16A2.68,2.68,0,0,0,51.82,39V38H50.13V36.52h3.32v3.32A5,5,0,0,1,50.18,41a3.83,3.83,0,0,1-4-3.64Q46.17,37.26,46.17,37.12Z" transform="translate(0 0.03)"/><path class="cls-2" d="M59.66,33.22h1.55l3.28,7.7H62.73L62,39.21H58.8l-0.7,1.71H56.39Zm1.77,4.5-1-2.48-1,2.48h2Z" transform="translate(0 0.03)"/><path class="cls-2" d="M68.42,34.83H66.09V33.28h6.33v1.55H70.09V41H68.41V34.83Z" transform="translate(0 0.03)"/><path class="cls-2" d="M75,37.12h0a4.07,4.07,0,0,1,8.13,0h0A4.07,4.07,0,0,1,75,37.12Zm6.37,0h0a2.32,2.32,0,0,0-2.24-2.4H79.07A2.29,2.29,0,0,0,76.78,37s0,0.06,0,.09h0A2.32,2.32,0,0,0,79,39.5H79.1a2.29,2.29,0,0,0,2.29-2.29S81.39,37.15,81.39,37.12Z" transform="translate(0 0.03)"/><path class="cls-2" d="M86.56,33.28H90a3,3,0,0,1,2.23.78,2.4,2.4,0,0,1,.66,1.75h0a2.37,2.37,0,0,1-1.64,2.37l1.87,2.73h-2l-1.61-2.44H88.24V41H86.56V33.28ZM90,37a1.11,1.11,0,0,0,1.29-1.08h0a1.11,1.11,0,0,0-1.11-1.11l-0.21,0H88.25V37H90v0Z" transform="translate(0 0.03)"/><path class="cls-2" d="M96.12,37.12h0a3.92,3.92,0,0,1,3.84-4h0.16a4.2,4.2,0,0,1,3,1l-1.06,1.28a2.81,2.81,0,0,0-2-.78A2.3,2.3,0,0,0,97.86,37h0A2.29,2.29,0,0,0,100,39.42h0.16a2.68,2.68,0,0,0,1.58-.46V38h-1.69V36.52h3.32v3.32A5,5,0,0,1,100.12,41a3.83,3.83,0,0,1-4-3.65Q96.12,37.26,96.12,37.12Z" transform="translate(0 0.03)"/><path class="cls-2" d="M106.65,37.12h0a4.07,4.07,0,0,1,8.13,0h0A4.07,4.07,0,0,1,106.65,37.12Zm6.37,0h0a2.32,2.32,0,0,0-2.24-2.4H110.7A2.29,2.29,0,0,0,108.41,37s0,0.06,0,.09h0a2.32,2.32,0,0,0,2.24,2.4h0.08A2.29,2.29,0,0,0,113,37.2s0-.05,0-0.08h0Z" transform="translate(0 0.03)"/><path class="cls-2" d="M117.89,37.12h0a4.07,4.07,0,0,1,8.13,0h0A4.07,4.07,0,0,1,117.89,37.12Zm6.37,0h0a2.32,2.32,0,0,0-2.24-2.4h-0.08A2.29,2.29,0,0,0,119.65,37s0,0.06,0,.09h0a2.32,2.32,0,0,0,2.24,2.4H122a2.29,2.29,0,0,0,2.29-2.29S124.26,37.15,124.26,37.12Z" transform="translate(0 0.03)"/><path class="cls-2" d="M129.48,33.28h3a3.81,3.81,0,0,1,4.05,3.55q0,0.12,0,.25h0a3.83,3.83,0,0,1-3.76,3.9h-3.32V33.33Zm1.68,1.52v4.61h1.3a2.18,2.18,0,0,0,2.3-2.28h0a2.2,2.2,0,0,0-2.1-2.3h-1.5v0Z" transform="translate(0 0.03)"/><path class="cls-2" d="M12.91,9.22h5.82v1.53H14.56v1.63h3.65v1.53H14.56v3H12.88V9.27Z" transform="translate(0 0.03)"/><path class="cls-2" d="M21.7,13.06h0a4.07,4.07,0,1,1,8.13,0h0A4.07,4.07,0,1,1,21.7,13.06Zm6.37,0h0a2.32,2.32,0,0,0-2.24-2.4H25.75a2.29,2.29,0,0,0-2.29,2.29v0h0a2.32,2.32,0,0,0,2.24,2.4h0.08a2.29,2.29,0,0,0,2.29-2.29v0Z" transform="translate(0 0.03)"/><path class="cls-2" d="M33.29,9.22h3.49A3,3,0,0,1,39,10a2.4,2.4,0,0,1,.66,1.75h0A2.37,2.37,0,0,1,38,14.12l1.87,2.73h-2L36.26,14.4H34.94v2.45H33.26V9.21h0Zm3.39,3.71A1.11,1.11,0,0,0,38,11.85h0a1.11,1.11,0,0,0-1.11-1.11l-0.21,0H35V13h1.7v0Z" transform="translate(0 0.03)"/><path class="cls-2" d="M50.16,10.77H47.83V9.22h6.33v1.55H51.83v6.09H50.16V10.77Z" transform="translate(0 0.03)"/><path class="cls-2" d="M57.42,9.22H59.1v3h3.1v-3h1.68v7.64H62.2V13.79H59.1v3.07H57.42V9.22Z" transform="translate(0 0.03)"/><path class="cls-2" d="M67.69,9.22h5.77v1.5h-4.1v1.55H73v1.5h-3.6v1.61h4.15v1.5H67.69V9.22Z" transform="translate(0 0.03)"/></svg>