<svg id="Layer_1" data-name="Layer 1" xmlns="http://www.w3.org/2000/svg" width="3.82in" height="0.85in" viewBox="0 0 275 61.38"><defs><style>.cls-1{fill:#004083;}.cls-2{fill:#f04e23;}.cls-3{fill:#fff;}</style></defs><title>UF-LAS</title><path class="cls-1" d="M548.83,366h6a0.8,0.8,0,0,1,0,.76c-3.4,0-3.74,0-3.86.17s-0.21,1.3-.25,7.06c0,3.44,0,5.17,0,11.59,0,3.82,0,4.66.17,4.79s0.84,0.25,3.7.25c3.66,0,4.79-.25,5.63-1.05s1.6-2.65,2.9-8a0.56,0.56,0,0,1,.67,0c0,2.86-.17,7.27-0.34,9.7,0,0.21-.08.34-0.46,0.34-3.23-.13-6.3-0.08-10.63-0.08-4.66,0-7.35,0-10,0a0.9,0.9,0,0,1,0-.8c3.19,0,3.65,0,3.78-.17s0.17-.71.17-3.36c0-5,.13-10.33.13-15,0-3.86,0-5.12-.21-5.29s-0.71-.21-3.61-0.25a0.81,0.81,0,0,1,0-.76C544.59,366,547.28,366,548.83,366Z" transform="translate(-472.95 -364.72)"/><path class="cls-1" d="M565.74,391.52a0.63,0.63,0,0,1,0-.71c2.35,0,3,0,3.15-.21a3.49,3.49,0,0,0,.25-1.76c0-1.43,0-2.39,0-3.7,0-1.6-.08-5.71-0.17-7.77a2.13,2.13,0,0,0-.25-1.34c-0.17-.17-0.5-0.17-3.15-0.21a0.72,0.72,0,0,1,0-.71c2.18,0,5.92-.13,6.81-0.13,0.29,0,.42.08,0.42,0.38,0,2.35,0,7.22,0,10.17,0,3.95.17,4.91,0.34,5.08s0.67,0.21,2.94.21c0.21,0,.21.76,0,0.76Zm5.08-21.38a2.43,2.43,0,0,1-2.31-2.39,2.28,2.28,0,0,1,.67-1.68,2.53,2.53,0,0,1,2-.8,2.28,2.28,0,0,1,2.27,2.23A2.81,2.81,0,0,1,570.83,370.14Z" transform="translate(-472.95 -364.72)"/><path class="cls-1" d="M581.81,389.76c-0.21,0-.84.55-2.56,2.31-0.17.17-.63,0.08-0.63-0.17,0.08-2.14.17-6.47,0.17-11.85,0-3.15-.08-7.31-0.17-11.51,0-2-.08-2.65-0.21-2.77s-0.42-.13-2.73-0.13a0.57,0.57,0,0,1,0-.71c2.23,0,5.46-.17,6.64-0.21,0.29,0,.34.17,0.34,0.42,0,0.92-.13,12.43-0.13,13.53l0,0c1.18-2.35,3-4.37,5.59-4.37a7.18,7.18,0,0,1,5,2.31,8.08,8.08,0,0,1,2.27,5.84,9.84,9.84,0,0,1-3,6.93,7.64,7.64,0,0,1-5.46,2.52C584,391.94,582.19,389.76,581.81,389.76Zm1.34-10.67a7.71,7.71,0,0,0-.67,3.78c0,4.49.13,5.67,0.42,6.22a5.11,5.11,0,0,0,3.82,2,3.6,3.6,0,0,0,3.36-2.27,13.15,13.15,0,0,0,1-5.8,14,14,0,0,0-.92-5.84,2.62,2.62,0,0,0-2.6-1.68C585.63,375.48,584,377.37,583.16,379.09Z" transform="translate(-472.95 -364.72)"/><path class="cls-1" d="M614.46,386.86a7.64,7.64,0,0,1-7.22,5.25,10,10,0,0,1-7-2.86,8.11,8.11,0,0,1-2.44-6.09,9.19,9.19,0,0,1,8.86-8.82,8.27,8.27,0,0,1,5.88,2.44,8.55,8.55,0,0,1,2.23,5.8,0.29,0.29,0,0,1-.25.34c-6.81,0-10.17,0-12.35.13a12.7,12.7,0,0,0,.92,5.5c0.84,1.64,2.14,2.52,4.58,2.52,2.69,0,4.79-1.51,6-4.54A0.66,0.66,0,0,1,614.46,386.86ZM603.16,377a12.55,12.55,0,0,0-1,5.08l8.53,0c-0.25-4.87-1.51-6.89-4.33-6.89A3.47,3.47,0,0,0,603.16,377Z" transform="translate(-472.95 -364.72)"/><path class="cls-1" d="M618.63,390.6a12.37,12.37,0,0,0,.25-2.6c0-1.51,0-5.5,0-7.35,0-3.15-.21-4.41-0.38-4.58s-0.5-.17-2.81-0.21c-0.17,0-.17-0.76,0-0.76,1.68,0,5.34-.13,6.26-0.13,0.59,0,.67.08,0.67,0.63,0,1.05-.08,3.19-0.08,4.75h0.08c1.34-3.15,2.86-5.75,5.29-5.75,2.18,0,3.57,1.34,3.57,3a2.57,2.57,0,0,1-2.44,2.73,1.92,1.92,0,0,1-2.1-1.93c0-1.43,1.13-2,1.13-2.31,0-.17-0.21-0.34-0.71-0.34-1.3,0-2.65,1.68-3.65,3.78a8.52,8.52,0,0,0-1.09,4.12v3.82a9.27,9.27,0,0,0,.29,3.11c0.08,0.13.76,0.13,3.23,0.21,0.21,0,.21.8,0,0.8H615.44a0.7,0.7,0,0,1,0-.76C618.17,390.77,618.5,390.72,618.63,390.6Z" transform="translate(-472.95 -364.72)"/><path class="cls-1" d="M636.94,376.57c0,0.46,1.64.59,1.64,2.23a2.07,2.07,0,0,1-2.18,2.06,2.11,2.11,0,0,1-2.18-2.14,2.89,2.89,0,0,1,1-2.18,7.43,7.43,0,0,1,5.29-2,6.92,6.92,0,0,1,5.29,1.89,5.5,5.5,0,0,1,1.47,4.33c0,2.1-.13,5.75-0.13,8.61,0,1,.29,1.39,1,1.39,0.92,0,1.76-.92,2.18-3a0.51,0.51,0,0,1,.63.13c-0.38,2.35-1.68,4.12-3.91,4.12a3.68,3.68,0,0,1-3.86-2.81,7.2,7.2,0,0,1-5.25,2.77c-2.48,0-5-1.68-5-4.2a3.8,3.8,0,0,1,1.26-2.86c1.39-1.43,3.86-2.48,9.24-2.86,0-.55,0-1.76,0-2.94,0-1.6-.21-2.39-0.76-2.94a3.64,3.64,0,0,0-2.56-.8C638.2,375.31,636.94,376.27,636.94,376.57Zm-0.08,10.92c0,2.06.67,3.19,2.18,3.19a5.55,5.55,0,0,0,4-2.48,3.82,3.82,0,0,0,.25-1.85c0-1.22,0-1.68.08-3.61C637.9,383.21,636.85,384.09,636.85,387.49Z" transform="translate(-472.95 -364.72)"/><path class="cls-1" d="M658.46,364.85c0.34,0,.42.17,0.42,0.5,0,4.37-.08,8-0.08,12.52,0,4.2,0,7.69-.08,11a2.42,2.42,0,0,0,.34,1.68c0.17,0.13.34,0.21,2.86,0.25a0.7,0.7,0,0,1,0,.76c-3.7-.13-6-0.13-10-0.13a0.81,0.81,0,0,1,0-.76c2.27,0,2.6,0,2.73-.17a1.56,1.56,0,0,0,.13-1c0-2,.13-5.92.13-8.57,0-5.75,0-9.54-.08-14.07a1.74,1.74,0,0,0-.13-1.09c-0.13-.13-0.38-0.13-2.81-0.25-0.17,0-.17-0.71,0-0.71C654.38,364.89,655.94,364.89,658.46,364.85Z" transform="translate(-472.95 -364.72)"/><path class="cls-1" d="M674.63,390.05a10.06,10.06,0,0,0,1.68-2.73c3.49-7.52,7-15.29,9.54-22a1.18,1.18,0,0,1,.8-0.17c0.71,0,.84.08,0.88,0.25,1.13,3.4,2.9,8.65,7.69,21.76,0.71,2,1.05,2.69,1.55,3.19s0.76,0.42,3.19.55a0.72,0.72,0,0,1,0,.71c-2.35,0-4.07-.13-5.75-0.13-1.93,0-3.07,0-5.54,0a0.85,0.85,0,0,1,0-.71c2-.13,2.52-0.21,2.73-0.46s0.25-.5,0-1.43c-0.38-1.13-1.18-3.4-1.89-5.38-0.71,0-3-.08-6.3-0.08-1.6,0-2.65,0-3.82,0a0.37,0.37,0,0,0-.42.21c-0.67,1.47-1.05,2.44-1.68,4.07a6.33,6.33,0,0,0-.42,1.81c0,0.92.38,1.05,3.19,1.22a1,1,0,0,1,0,.71c-2.27-.08-5.92-0.08-8.57,0a0.93,0.93,0,0,1,0-.67C673.62,390.77,674,390.64,674.63,390.05Zm10.16-19.66c-1.89,4.45-3.78,8.7-5.25,12.1,2.56,0.13,7.14.21,9.66,0.21-1.18-3.57-3.11-8.9-4.33-12.31h-0.08Z" transform="translate(-472.95 -364.72)"/><path class="cls-1" d="M704.51,390.6a12.37,12.37,0,0,0,.25-2.6c0-1.51,0-5.5,0-7.35,0-3.15-.21-4.41-0.38-4.58s-0.5-.17-2.81-0.21c-0.17,0-.17-0.76,0-0.76,1.68,0,5.34-.13,6.26-0.13,0.59,0,.67.08,0.67,0.63,0,1.05-.08,3.19-0.08,4.75h0.08c1.34-3.15,2.86-5.75,5.29-5.75,2.18,0,3.57,1.34,3.57,3a2.57,2.57,0,0,1-2.44,2.73,1.92,1.92,0,0,1-2.1-1.93c0-1.43,1.13-2,1.13-2.31,0-.17-0.21-0.34-0.71-0.34-1.3,0-2.65,1.68-3.65,3.78a8.52,8.52,0,0,0-1.09,4.12v3.82a9.27,9.27,0,0,0,.29,3.11c0.08,0.13.76,0.13,3.23,0.21,0.21,0,.21.8,0,0.8H701.31a0.7,0.7,0,0,1,0-.76C704,390.77,704.38,390.72,704.51,390.6Z" transform="translate(-472.95 -364.72)"/><path class="cls-1" d="M726.78,391.86a5.29,5.29,0,0,1-3.95-1.47c-0.76-.76-1.13-1.68-1.13-3.53,0-2.73,0-7.52.13-10.84-0.25,0-2.52,0-3,0-0.21,0-.17-0.8,0-0.8,2.52-.13,3.28-0.34,3.87-0.92a12,12,0,0,0,2.39-5.21,0.48,0.48,0,0,1,.71,0c-0.13,1.43-.13,4.66-0.17,6,1.68,0,4.45,0,5.13,0,0.25,0,.17.88,0,0.88-3.32,0-4.62,0-5.08.08-0.08,1.55-.17,6.22-0.17,9.62,0,2.9.08,3.36,0.34,3.91a2.11,2.11,0,0,0,1.93,1.05c1.34,0,2.52-1.39,3.23-4.16,0-.17.76,0,0.71,0.17C730.94,390.09,729.22,391.86,726.78,391.86Z" transform="translate(-472.95 -364.72)"/><path class="cls-1" d="M746.44,389.93a7.72,7.72,0,0,1-5.21,1.89,14.38,14.38,0,0,1-5.42-1.18c-0.21,0-.5.46-0.88,1.43-0.08.17-.67,0.13-0.67,0-0.08-1.93-.25-4.33-0.42-6.18a0.57,0.57,0,0,1,.71-0.08,9.73,9.73,0,0,0,1.93,3.74A6.65,6.65,0,0,0,741.1,391a4.64,4.64,0,0,0,3.23-.92,3.08,3.08,0,0,0,.71-2.06c0-1.43-1.05-2.14-4.75-3.11-2.81-.76-4.12-1.3-5-2.14a3.71,3.71,0,0,1-1.05-2.69c0-3.15,2.86-5.46,6.17-5.46,2.56,0,4.37,1.34,4.79,1.34,0.21,0,.34-0.34.92-1.76a0.65,0.65,0,0,1,.67,0c-0.13,1.89-.13,3.7-0.08,5.63,0,0.29-.63.29-0.76,0.08a8.29,8.29,0,0,0-1.72-3,5.06,5.06,0,0,0-3.95-1.55,3.76,3.76,0,0,0-2.73,1,2.5,2.5,0,0,0-.71,1.76c0,1.6,1.22,2.23,4.87,3.15,2.9,0.76,4.2,1.34,5,2.23a3.8,3.8,0,0,1,1.13,2.81A5.1,5.1,0,0,1,746.44,389.93Z" transform="translate(-472.95 -364.72)"/><path class="cls-2" d="M554.48,413.7a6.28,6.28,0,0,1,.94-1.62,10.74,10.74,0,0,1,1.68.3,1.51,1.51,0,0,1,.13.67c-0.4.91-2.36,5.62-3.47,8.52a7.46,7.46,0,0,0-.5,2.29,0.87,0.87,0,0,0,.84,1c0.81,0,1.78-.47,3.77-3a0.65,0.65,0,0,1,.47.3c-1.89,2.52-3.16,3.6-4.78,3.6a2.28,2.28,0,0,1-2.39-2.12,8.11,8.11,0,0,1,.24-1.75c-1.55,2.09-3.74,3.9-5.42,3.9s-3.67-1.82-3.67-4.38c0-1.75.67-3.57,2.73-5.66,2.22-2.19,4.88-3.67,6.9-3.67A2.7,2.7,0,0,1,554.48,413.7Zm-9,5.39a9.46,9.46,0,0,0-1.21,4A1.79,1.79,0,0,0,546.2,425c1.75,0,4.44-2.46,5.76-5.12a21,21,0,0,0,2.09-5.39,2.07,2.07,0,0,0-2.09-1.85C549.26,412.69,547.24,415.65,545.53,419.08Z" transform="translate(-472.95 -364.72)"/><path class="cls-2" d="M566.08,412.52a0.12,0.12,0,0,1,.13.17c-0.24.71-1.41,4-1.75,4.81,0,0.07.07,0.2,0.13,0.13,2.89-3.8,4.48-5.59,6.29-5.59a3,3,0,0,1,2.26.91,2.55,2.55,0,0,1,.81,1.92c0,1.18-.4,2-1.65,4.54s-1.62,3.53-1.62,4.24a1,1,0,0,0,1,1c1,0,2.22-1,3.74-2.69a0.67,0.67,0,0,1,.47.37c-1.11,1.35-3.23,3.33-4.85,3.33a2.27,2.27,0,0,1-1.75-.74,2.41,2.41,0,0,1-.71-1.82c0-.67.34-1.82,1.58-4.38s1.62-3.47,1.62-4.27a1.29,1.29,0,0,0-1.31-1.38c-0.84,0-1.41.34-2.73,1.65a26,26,0,0,0-4.85,6.66c-0.5,1.28-1.18,2.76-1.65,3.94a13.09,13.09,0,0,1-2.32,0c-0.07,0-.07-0.07,0-0.17,0.44-1,2.79-6.29,3.3-7.51,1.24-3.13,1.48-4.38,1.41-4.44s-3.1,0-3.53-.07a0.65,0.65,0,0,1,.07-0.61C562,412.62,565.91,412.52,566.08,412.52Z" transform="translate(-472.95 -364.72)"/><path class="cls-2" d="M589.85,414.27a0.05,0.05,0,0,0,.1,0c1.35-3.3,2.22-5.45,3.47-8.65a0.75,0.75,0,0,0,0-.74,26.75,26.75,0,0,0-3.74-.17,0.56,0.56,0,0,1,0-.61c1.85,0,4.41.07,6.63,0a0.17,0.17,0,0,1,.17.2c-2.86,6.73-4.34,10.3-7.41,17.33a5.12,5.12,0,0,0-.54,2.12,0.9,0.9,0,0,0,.84,1c0.81,0,1.58-.44,2.73-1.58a12.1,12.1,0,0,0,1.25-1.38,0.57,0.57,0,0,1,.44.34c-1.78,2.26-3.37,3.57-4.75,3.57a2.44,2.44,0,0,1-2.63-2.22,4.78,4.78,0,0,1,.07-0.94c-1.72,2.12-3.4,3.3-5.25,3.3a4.6,4.6,0,0,1-3.06-1.35,4.31,4.31,0,0,1-1.25-3.1,9,9,0,0,1,2.86-6.13,10.36,10.36,0,0,1,6.93-3.3A3.32,3.32,0,0,1,589.85,414.27Zm-9.26,3.91a10.21,10.21,0,0,0-1.24,4.48c0,1.62.61,2.59,2.12,2.59,1.08,0,2.19-.44,3.67-1.92a11.28,11.28,0,0,0,2.79-4.34c0.77-1.85,1.45-3.4,1.51-3.74a2.89,2.89,0,0,0-2.86-2.63C584.16,412.62,582,415.31,580.59,418.17Z" transform="translate(-472.95 -364.72)"/><path class="cls-1" d="M623.2,399.53a0.57,0.57,0,0,1,.63.08,53.55,53.55,0,0,0-.08,8.29,0.56,0.56,0,0,1-.67,0c-1.14-2.94-2.1-4.63-3.16-5.68a6.34,6.34,0,0,0-4.8-1.81,6,6,0,0,0-4.58,1.6,4.77,4.77,0,0,0-1.35,3.37c0,2.78,1.85,3.66,6.65,4.92,4.37,1.18,6.48,2.23,7.74,3.49a5.62,5.62,0,0,1,1.64,4.37c0,4.46-4,7.74-8.92,7.74-4.54,0-6.82-2.23-7.7-2.23-0.55,0-1.22.76-1.81,1.89a0.46,0.46,0,0,1-.63-0.08,64.52,64.52,0,0,0-.29-9.17,0.46,0.46,0,0,1,.63-0.08c1.64,3.74,2.65,5.47,3.83,6.65a8.3,8.3,0,0,0,5.89,2.15,6.36,6.36,0,0,0,4.58-1.47,4.37,4.37,0,0,0,1.3-3.37c0-2.69-1.68-4-6.65-5.26-4.38-1.14-6.39-2.06-7.61-3.32a5.47,5.47,0,0,1-1.6-4.29c0-4.08,3.7-7.7,9-7.7a12.49,12.49,0,0,1,6.65,1.85C622.19,401.51,622.74,400.54,623.2,399.53Z" transform="translate(-472.95 -364.72)"/><path class="cls-1" d="M630.6,423.3a8,8,0,0,1-2.44-5.89,8.83,8.83,0,0,1,2.61-6.14,9.16,9.16,0,0,1,6.65-2.9c3.79,0,6.73,2.27,6.73,4.58a2.38,2.38,0,0,1-2.36,2.57,2.09,2.09,0,0,1-1.64-3.45,4.39,4.39,0,0,1,1.77-.76c0.34-.34-1.35-2.06-4.29-2.06a4.22,4.22,0,0,0-4.08,2.36,11.46,11.46,0,0,0-1,5.34c0,2.86.21,4.46,0.84,5.64a4.05,4.05,0,0,0,4.08,2.36c2.44,0,4.8-1.68,5.89-5,0.08-.34.88,0,0.8,0.34-1.18,3.49-3.79,5.68-7.28,5.68A8.91,8.91,0,0,1,630.6,423.3Z" transform="translate(-472.95 -364.72)"/><path class="cls-1" d="M645.54,425.44a0.63,0.63,0,0,1,0-.71c2.36,0,3,0,3.16-.21a3.49,3.49,0,0,0,.25-1.77c0-1.43,0-2.4,0-3.7,0-1.6-.08-5.72-0.17-7.78a2.14,2.14,0,0,0-.25-1.35c-0.17-.17-0.5-0.17-3.16-0.21a0.72,0.72,0,0,1,0-.72c2.19,0,5.93-.13,6.82-0.13,0.29,0,.42.08,0.42,0.38,0,2.36,0,7.24,0,10.18,0,4,.17,4.92.34,5.09s0.67,0.21,2.95.21c0.21,0,.21.76,0,0.76ZM650.63,404a2.44,2.44,0,0,1-2.31-2.4A2.28,2.28,0,0,1,649,400a2.53,2.53,0,0,1,2-.8,2.28,2.28,0,0,1,2.27,2.23A2.81,2.81,0,0,1,650.63,404Z" transform="translate(-472.95 -364.72)"/><path class="cls-1" d="M673.08,420.77a7.65,7.65,0,0,1-7.24,5.26,10,10,0,0,1-7-2.86,8.12,8.12,0,0,1-2.44-6.1,9.2,9.2,0,0,1,8.88-8.83,8.28,8.28,0,0,1,5.89,2.44,8.56,8.56,0,0,1,2.23,5.81,0.29,0.29,0,0,1-.25.34c-6.82,0-10.18,0-12.37.13a12.72,12.72,0,0,0,.93,5.51c0.84,1.64,2.15,2.52,4.58,2.52,2.69,0,4.8-1.51,6-4.54A0.66,0.66,0,0,1,673.08,420.77Zm-11.32-9.84a12.57,12.57,0,0,0-1,5.09l8.54,0c-0.25-4.88-1.51-6.9-4.33-6.9A3.47,3.47,0,0,0,661.76,410.93Z" transform="translate(-472.95 -364.72)"/><path class="cls-1" d="M674.39,424.77c2.19,0,2.61,0,2.78-.17s0.25-.8.25-3.32v-8.33c0-1.81-.13-2.82-0.34-3s-0.55-.21-2.73-0.25a0.64,0.64,0,0,1,0-.72c1.89,0,5,0,6.69,0,0.25,0,.29.13,0.29,0.42,0,1.05-.13,3.11-0.17,4.16l0.13,0c1.47-2.9,3.28-5.3,6.27-5.3,3.28,0,5.17,2.1,5.17,6.1,0,1.6,0,3.62,0,5.68,0,3.58.13,4.33,0.34,4.54s0.5,0.17,2.52.25a0.57,0.57,0,0,1,0,.67c-3.37-.08-6.14,0-8.75,0-0.21,0-.17-0.67,0-0.67a5.78,5.78,0,0,0,1.94-.25,3.57,3.57,0,0,0,.17-1.72c0-1.35,0-8.41,0-9.3,0-2.23-.67-3.53-2.4-3.53-2.06,0-3.79,2.23-4.67,4a5.16,5.16,0,0,0-.59,2.9c0,1.26,0,4,.08,5.47a5.4,5.4,0,0,0,.21,2.1c0.13,0.13.42,0.21,2.52,0.29,0.13,0,.13.71-0.08,0.71-2.69-.08-6.86-0.08-9.47,0A0.63,0.63,0,0,1,674.39,424.77Z" transform="translate(-472.95 -364.72)"/><path class="cls-1" d="M698.52,423.3a8,8,0,0,1-2.44-5.89,8.83,8.83,0,0,1,2.61-6.14,9.16,9.16,0,0,1,6.65-2.9c3.79,0,6.73,2.27,6.73,4.58a2.38,2.38,0,0,1-2.36,2.57,2.09,2.09,0,0,1-1.64-3.45,4.39,4.39,0,0,1,1.77-.76c0.34-.34-1.35-2.06-4.29-2.06a4.22,4.22,0,0,0-4.08,2.36,11.46,11.46,0,0,0-1,5.34c0,2.86.21,4.46,0.84,5.64a4.05,4.05,0,0,0,4.08,2.36c2.44,0,4.8-1.68,5.89-5,0.08-.34.88,0,0.8,0.34-1.18,3.49-3.79,5.68-7.28,5.68A8.91,8.91,0,0,1,698.52,423.3Z" transform="translate(-472.95 -364.72)"/><path class="cls-1" d="M730.95,420.77a7.65,7.65,0,0,1-7.24,5.26,10,10,0,0,1-7-2.86,8.12,8.12,0,0,1-2.44-6.1,9.2,9.2,0,0,1,8.88-8.83,8.28,8.28,0,0,1,5.89,2.44,8.56,8.56,0,0,1,2.23,5.81,0.29,0.29,0,0,1-.25.34c-6.82,0-10.18,0-12.37.13a12.72,12.72,0,0,0,.93,5.51c0.84,1.64,2.15,2.52,4.58,2.52,2.69,0,4.8-1.51,6-4.54A0.66,0.66,0,0,1,730.95,420.77Zm-11.32-9.84a12.57,12.57,0,0,0-1,5.09l8.54,0c-0.25-4.88-1.51-6.9-4.33-6.9A3.47,3.47,0,0,0,719.63,410.93Z" transform="translate(-472.95 -364.72)"/><path class="cls-1" d="M746.44,423.85a7.73,7.73,0,0,1-5.22,1.89,14.4,14.4,0,0,1-5.43-1.18c-0.21,0-.5.46-0.88,1.43-0.08.17-.67,0.13-0.67,0-0.08-1.94-.25-4.33-0.42-6.18a0.57,0.57,0,0,1,.72-0.08,9.74,9.74,0,0,0,1.94,3.74,6.66,6.66,0,0,0,4.63,1.51,4.65,4.65,0,0,0,3.24-.93A3.09,3.09,0,0,0,745,422c0-1.43-1.05-2.15-4.75-3.11-2.82-.76-4.12-1.3-5-2.15a3.71,3.71,0,0,1-1.05-2.69c0-3.16,2.86-5.47,6.18-5.47,2.57,0,4.38,1.35,4.8,1.35,0.21,0,.34-0.34.93-1.77a0.65,0.65,0,0,1,.67,0c-0.13,1.89-.13,3.7-0.08,5.64,0,0.29-.63.29-0.76,0.08a8.32,8.32,0,0,0-1.72-3,5.07,5.07,0,0,0-4-1.56,3.77,3.77,0,0,0-2.73,1,2.51,2.51,0,0,0-.72,1.77c0,1.6,1.22,2.23,4.88,3.16,2.9,0.76,4.21,1.35,5,2.23a3.81,3.81,0,0,1,1.14,2.82A5.11,5.11,0,0,1,746.44,423.85Z" transform="translate(-472.95 -364.72)"/><rect class="cls-2" width="61.38" height="61.38"/><polygon class="cls-3" points="38.32 38.47 38.32 32.35 43.96 32.35 43.96 28.32 38.32 28.32 38.32 22.61 44.51 22.61 44.51 24.82 48.59 24.82 48.59 18.61 32.25 18.61 32.25 22.61 33.78 22.61 33.78 38.47 32.25 38.47 32.25 42.5 39.8 42.5 39.8 38.47 38.32 38.47"/><path class="cls-3" d="M503.07,398.19V387.33h1.51v-4H497v4h1.47v9.51c0,4-.46,5.9-3.33,5.9s-3.33-1.92-3.33-5.9v-9.51h1.46v-4h-7.57v4h1.5v10.87c0,2.37,0,4.32,1.12,6.06,1.25,2,3.52,3.24,6.81,3.24,5.83,0,7.9-3,7.9-9.3" transform="translate(-472.95 -364.72)"/></svg>